<?xml version="1.0" encoding="utf-8"?>
<!-- Generator: Adobe Illustrator 25.2.1, SVG Export Plug-In . SVG Version: 6.00 Build 0)  -->
<svg version="1.1" id="Calque_1" xmlns="http://www.w3.org/2000/svg" xmlns:xlink="http://www.w3.org/1999/xlink" x="0px" y="0px"
	 viewBox="0 0 100 100" style="enable-background:new 0 0 100 100;" xml:space="preserve">
<style type="text/css">
	.st0{fill:url(#SVGID_1_);stroke:#6A1B9A;stroke-width:2;}
	.st1{fill:#FFFFFF;fill-opacity:0.2;}
	.st2{fill:#FFFFFF;}
	.st3{fill:#9C36B5;}
</style>
<linearGradient id="SVGID_1_" gradientUnits="userSpaceOnUse" x1="-75.5375" y1="178.1444" x2="-75.5375" y2="177.1444" gradientTransform="matrix(80 0 0 -90 6093 16038)">
	<stop  offset="0" style="stop-color:#DA77F2"/>
	<stop  offset="1" style="stop-color:#9C36B5"/>
</linearGradient>
<path class="st0" d="M50,5l40,15v35c0,16.7-13.3,30-40,40C23.3,85,10,71.7,10,55V20L50,5z"/>
<path class="st1" d="M50,15l30,12v25c0,13.3-10,24.3-30,33c-20-8.7-30-19.7-30-33V27L50,15z"/>
<circle class="st2" cx="50" cy="50" r="18"/>
<g>
	<g>
		<g>
			<g>
				<path class="st3" d="M53.4,33.9c1.5,0,2.6,1.2,2.6,2.6c0,1.5-1.2,2.6-2.6,2.6c-1.5,0-2.6-1.2-2.6-2.6
					C50.8,35.1,51.9,33.9,53.4,33.9z"/>
				<path class="st3" d="M62.4,48.6c0.2,0.1,0.3,0.1,0.5,0.1c0.5,0,1-0.3,1.2-0.9c0.8-2.3-0.5-5.6-0.7-6l-0.2-0.4L58.6,39
					c-0.3-0.1-0.6-0.2-0.9-0.1c-2.1-0.2-4.9,1.4-5.6,1.8c-0.1,0.1-0.2,0.1-0.2,0.1v0c-0.1,0.1-0.2,0.2-0.3,0.3L49,44.7l-3.4,1.7
					c-0.7,0.3-0.9,1.1-0.6,1.8c0.2,0.5,0.7,0.7,1.2,0.7c0.2,0,0.4,0,0.6-0.1l4-2l1.3-1.8l0.2,4.2c0,0,0,0,0,0c0,0.1,0,0.1,0,0.2
					l0.4,1.6l-2.5,2.9l-6.3,7.7c-0.5,0.6-0.4,1.4,0.2,1.9c0.2,0.2,0.5,0.3,0.8,0.3c0.4,0,0.8-0.2,1-0.5l6.3-7.6l1.3-1.5l0.1,0.5
					l0.7,0.2c2,0.6,4.5,1.4,5.2,1.8c0.2,0.3,0.6,0.6,1.1,0.6c0,0,0.1,0,0.1,0c0.7-0.1,1.3-0.7,1.2-1.4c-0.1-1.1-1.1-1.6-3.9-2.5
					c-0.9-0.3-1.7-0.5-2.3-0.7l-0.2-0.8l0.9-1c0.9-0.5,2.4-5.1,2.7-8.3l1.9,1c0.4,1,0.8,2.7,0.5,3.6C61.4,47.6,61.7,48.4,62.4,48.6z
					"/>
				<path class="st3" d="M40.3,57.5c1.5,0,2.8,1.2,2.8,2.8c0,1.5-1.2,2.8-2.8,2.8c-1.5,0-2.8-1.2-2.8-2.8
					C37.5,58.7,38.7,57.5,40.3,57.5z"/>
			</g>
		</g>
	</g>
</g>
</svg>
