<?xml version="1.0" encoding="utf-8"?>
<!-- Generator: Adobe Illustrator 25.2.1, SVG Export Plug-In . SVG Version: 6.00 Build 0)  -->
<svg version="1.1" id="Calque_1" xmlns="http://www.w3.org/2000/svg" xmlns:xlink="http://www.w3.org/1999/xlink" x="0px" y="0px"
	 viewBox="0 0 100 100" style="enable-background:new 0 0 100 100;" xml:space="preserve">
<style type="text/css">
	.st0{fill:url(#SVGID_1_);stroke:#1B5E20;stroke-width:2;}
	.st1{fill:#FFFFFF;fill-opacity:0.2;}
	.st2{fill:#FFFFFF;}
	.st3{fill:#2F9E44;}
</style>
<linearGradient id="SVGID_1_" gradientUnits="userSpaceOnUse" x1="-75.5375" y1="178.1444" x2="-75.5375" y2="177.1444" gradientTransform="matrix(80 0 0 -90 6093 16038)">
	<stop  offset="0" style="stop-color:#69DB7C"/>
	<stop  offset="1" style="stop-color:#2F9E44"/>
</linearGradient>
<path class="st0" d="M50,5l40,15v35c0,16.7-13.3,30-40,40C23.3,85,10,71.7,10,55V20L50,5z"/>
<path class="st1" d="M50,15l30,12v25c0,13.3-10,24.3-30,33c-20-8.7-30-19.7-30-33V27L50,15z"/>
<circle class="st2" cx="50" cy="50" r="18"/>
<g>
	<g>
		<g>
			<g>
				<path class="st3" d="M45.6,58.1c0.4,0.7,1.4,0.2,1.3-0.5c0.3,0.1,0.6,0.1,0.9,0.1l-0.3,4.1c0,0,0,0,0,0
					c-1.4,0.7-2.4,1.9-2.4,3.4h9.2c0-1.5-1-2.7-2.4-3.4c0,0,0,0,0,0l-0.3-4.1c0.3,0,0.6-0.1,0.9-0.1c-0.1,0.7,0.9,1.2,1.3,0.5
					c2.3-4,7.1-4.8,10.1-8.1c1.9-2.2,3.2-6.3-0.4-7.8c-1.5-0.6-4.2-0.4-5.7,0.8c-0.1-0.4-0.4-0.8-0.9-0.8c0.5,0,0.9-0.4,0.9-0.9
					c0-0.5-0.4-0.9-0.9-0.9h-0.5H43h-0.5c-0.5,0-0.9,0.4-0.9,0.9c0,0.5,0.4,0.9,0.9,0.9c-0.5,0-0.8,0.3-0.9,0.8
					c-1.5-1.2-4.2-1.4-5.7-0.8c-3.6,1.4-2.3,5.6-0.4,7.8C38.5,53.3,43.3,54.2,45.6,58.1z M57.8,47.2c0.9,0.6,2.3,0.2,3.4-0.8
					c0.7-0.6-0.3-1.6-1-1c-0.2,0.2-1.3,1.3-1.7,0.5c-0.2-0.5-0.1-1.1,0.3-1.5c1-0.9,2.7-1.5,4-1c3.7,1.5,0.8,5.5-1.3,6.9
					c-1.5,1.1-3.2,2-4.7,3C57.3,51.9,57.6,49.9,57.8,47.2z M36.8,43.4c1.3-0.5,3,0,4,1c0.4,0.4,0.5,1,0.3,1.5
					c-0.4,0.8-1.5-0.3-1.7-0.5c-0.7-0.6-1.7,0.4-1,1c1,1,2.5,1.4,3.4,0.8c0.2,2.7,0.6,4.7,1.1,6.2c-1.5-1-3.2-2-4.7-3
					C36,48.9,33,44.9,36.8,43.4z"/>
			</g>
		</g>
	</g>
</g>
</svg>
