<?xml version="1.0" encoding="utf-8"?>
<!-- Generator: Adobe Illustrator 25.2.1, SVG Export Plug-In . SVG Version: 6.00 Build 0)  -->
<svg version="1.1" id="Calque_1" xmlns="http://www.w3.org/2000/svg" xmlns:xlink="http://www.w3.org/1999/xlink" x="0px" y="0px"
	 viewBox="0 0 100 100" style="enable-background:new 0 0 100 100;" xml:space="preserve">
<style type="text/css">
	.st0{fill:url(#SVGID_1_);stroke:#880E4F;stroke-width:2;}
	.st1{fill:#FFFFFF;fill-opacity:0.2;}
	.st2{fill:#FFFFFF;}
	.st3{fill:#C2255C;}
</style>
<linearGradient id="SVGID_1_" gradientUnits="userSpaceOnUse" x1="-75.5375" y1="178.1444" x2="-75.5375" y2="177.1444" gradientTransform="matrix(80 0 0 -90 6093 16038)">
	<stop  offset="0" style="stop-color:#F783AC"/>
	<stop  offset="1" style="stop-color:#C2255C"/>
</linearGradient>
<path class="st0" d="M50,5l40,15v35c0,16.7-13.3,30-40,40C23.3,85,10,71.7,10,55V20L50,5z"/>
<path class="st1" d="M50,15l30,12v25c0,13.3-10,24.3-30,33c-20-8.7-30-19.7-30-33V27L50,15z"/>
<circle class="st2" cx="50" cy="50" r="18"/>
<g>
	<g>
		<g id="XMLID_25_">
			<path id="XMLID_27_" class="st3" d="M48,44.5c0.3,0,0.5-0.1,0.8-0.2c1.5-0.6,2.3-2.2,1.7-3.8c-0.6-1.5-2.2-2.3-3.8-1.7
				c-0.8,0.3-1.4,0.9-1.7,1.6l0.6,2.1L48,44.5z"/>
			<path id="XMLID_26_" class="st3" d="M59.5,61.3c-0.6-0.8-3-4.4-3.5-5.3c0,0-2.8-7-3.1-7.8l2-0.3c0.5-0.1,0.9-0.3,1.2-0.7l3-4.6
				c0.5-0.8,0.3-1.8-0.5-2.3c-0.8-0.5-1.8-0.3-2.3,0.5l-2.6,4l-5.6,1.3l-3.3-2.8l-1.7-6.2c-0.2-0.9-1.2-1.4-2-1.2
				c-0.9,0.2-1.4,1.2-1.2,2l1.8,6.7c0.1,0.3,0.3,0.6,0.5,0.8l4.6,3.9c1.1,3,0.6,1.8,2.7,7.3l-1.6,2.7L45.2,57
				c-0.9-0.7-2.1-0.6-2.8,0.3c-0.7,0.9-0.6,2.1,0.3,2.8l4.5,3.7c0.5,0.4,1.1,0.5,1.6,0.4c0.6-0.1,1.1-0.4,1.4-0.9l3.2-5.3l2-0.7
				l-3.4,5.7l5.6,1.3c0.8,0.2,1.6-0.1,2.1-0.8C60,62.8,60,61.9,59.5,61.3z"/>
		</g>
	</g>
</g>
</svg>
