<?xml version="1.0" encoding="utf-8"?>
<!-- Generator: Adobe Illustrator 25.2.1, SVG Export Plug-In . SVG Version: 6.00 Build 0)  -->
<svg version="1.1" id="Calque_1" xmlns="http://www.w3.org/2000/svg" xmlns:xlink="http://www.w3.org/1999/xlink" x="0px" y="0px"
	 viewBox="0 0 100 100" style="enable-background:new 0 0 100 100;" xml:space="preserve">
<style type="text/css">
	.st0{fill:url(#SVGID_1_);stroke:#111827;stroke-width:2;}
	.st1{fill:#FFFFFF;fill-opacity:0.2;}
	.st2{fill:#FFFFFF;}
	.st3{fill:#1F2937;}
</style>
<linearGradient id="SVGID_1_" gradientUnits="userSpaceOnUse" x1="-75.5375" y1="178.1444" x2="-75.5375" y2="177.1444" gradientTransform="matrix(80 0 0 -90 6093 16038)">
	<stop  offset="0" style="stop-color:#4B5563"/>
	<stop  offset="1" style="stop-color:#1F2937"/>
</linearGradient>
<path class="st0" d="M50,5l40,15v35c0,16.7-13.3,30-40,40C23.3,85,10,71.7,10,55V20L50,5z"/>
<path class="st1" d="M50,15l30,12v25c0,13.3-10,24.3-30,33c-20-8.7-30-19.7-30-33V27L50,15z"/>
<circle class="st2" cx="50" cy="50" r="18"/>
<g>
	<g>
		<g>
			<g>
				<path class="st3" d="M35.7,45.4c0.4-0.3,0.8-0.6,1.2-0.8c0.1,0.6,0.2,1.2,0.4,1.8c0.8,2.6,1.3,5.7,1.7,8.5c-1,0.4-1.7,1.3-2,2.4
					c-0.2,0.6,0.8,0.9,1,0.3c0.2-0.7,0.6-1.3,1.2-1.6c0,0.3,0.1,0.6,0.1,0.9c0.4,3.4,1.2,3.9,1.9,3.5c0.6-0.4,1.7-0.8,3.7-1
					c-0.2-3.6-0.8-7.1-0.9-10.7c-0.1-3.8,0.2-7.6-0.1-11.3C43,37.3,42,37.5,41,37.6c-3,0.4-3.7,2.3-3.7,2.3s-0.5,1.6-0.4,3.6
					c-0.7,0.3-1.3,0.7-1.8,1.2C34.5,45.1,35.2,45.8,35.7,45.4z"/>
				<path class="st3" d="M44.9,49.4c0.1,3.3,0.6,6.6,0.8,9.9c0.1,0,0.1,0,0.2,0c2.6,0,2.9-1,2.9-2.3c0-1.3,0.3-11,0.5-12.9
					c0.2-1.9,0-4.1-1.2-5.8c-0.7-0.9-1.9-1.2-3.3-1.1C45.1,41.2,44.7,45.3,44.9,49.4z"/>
				<path class="st3" d="M51.8,40.8c-1.2,1.7-1.5,3.9-1.2,5.8c0.2,1.9,0.5,11.6,0.5,12.9c0,1.3,0.3,2.4,2.9,2.3c0.1,0,0.1,0,0.2,0
					c0.2-3.3,0.7-6.6,0.8-9.9c0.2-4.1-0.2-8.2,0.1-12.2C53.7,39.6,52.5,39.8,51.8,40.8z"/>
				<path class="st3" d="M62.6,42.4c0,0-0.6-1.9-3.7-2.3c-1-0.1-2-0.3-2.9-0.4c-0.3,3.8,0,7.5-0.1,11.3c-0.1,3.6-0.7,7.1-0.9,10.7
					c2,0.1,3.1,0.6,3.7,1c0.7,0.4,1.4,0,1.8-2.5c0.1,0.4,0.2,0.8,0.2,1.2c0,0.6,1,0.6,1,0c0-1.1-0.3-2.1-1-2.9
					c0.4-3.2,0.9-6.7,1.8-9.6c0.3,0.6,0.4,1.2,0.5,1.9c0.1,0.6,1.1,0.6,1,0c-0.1-1.2-0.4-2.3-1.1-3.2C63.3,44.9,62.6,42.4,62.6,42.4
					z"/>
			</g>
		</g>
	</g>
</g>
</svg>
