<?xml version="1.0" encoding="utf-8"?>
<!-- Generator: Adobe Illustrator 25.2.1, SVG Export Plug-In . SVG Version: 6.00 Build 0)  -->
<svg version="1.1" id="Calque_1" xmlns="http://www.w3.org/2000/svg" xmlns:xlink="http://www.w3.org/1999/xlink" x="0px" y="0px"
	 viewBox="0 0 100 100" style="enable-background:new 0 0 100 100;" xml:space="preserve">
<style type="text/css">
	.st0{fill:url(#SVGID_1_);stroke:#E67700;stroke-width:2;}
	.st1{fill:#FFFFFF;fill-opacity:0.2;}
	.st2{fill:#FFFFFF;}
	.st3{fill:#E67700;}
</style>
<linearGradient id="SVGID_1_" gradientUnits="userSpaceOnUse" x1="-75.5375" y1="178.1444" x2="-75.5375" y2="177.1444" gradientTransform="matrix(80 0 0 -90 6093 16038)">
	<stop  offset="0" style="stop-color:#FFD43B"/>
	<stop  offset="1" style="stop-color:#F59F00"/>
</linearGradient>
<path class="st0" d="M50,5l40,15v35c0,16.7-13.3,30-40,40C23.3,85,10,71.7,10,55V20L50,5z"/>
<path class="st1" d="M50,15l30,12v25c0,13.3-10,24.3-30,33c-20-8.7-30-19.7-30-33V27L50,15z"/>
<circle class="st2" cx="50" cy="50" r="18"/>
<g>
	<g>
		<path class="st3" d="M63.2,49.5c-1.2-0.2-2.5-0.4-3.5-1C57,47.1,47,42,46.6,41.8c-0.1-0.1-0.2-0.1-0.4-0.1c-0.2,0-0.4,0.1-0.5,0.3
			l-1.4,1.9c-0.1,0.1-0.1,0.2-0.1,0.3c0.1,0.3,0.8,0.8,2.3,1.3c-0.6,0.3-2.5,0.9-4.6,0.9c-3.8,0-5.1-1.7-5.7-2.4
			c-0.2-0.3-0.4-0.5-0.6-0.5c-0.1,0-0.2,0-0.3,0.1c-2,2.5-1.2,6.3-0.6,9.1c0,0.1,0.1,0.3,0.1,0.4c0.4,1.8,1.1,2.1,2.4,2.4
			c0.2,0,0.6,0.1,1.2,0.1l0.2,1.6c0,0.4,0.4,0.7,0.7,0.7h1.1c0.4,0,0.7-0.3,0.7-0.7l0.2-1.5c0.3,0,0.7,0,1,0l0.2,1.5
			c0,0.4,0.4,0.7,0.7,0.7h1.1c0.4,0,0.7-0.3,0.7-0.7l0.2-1.5c3.1,0,6.6,0.1,9.7,0.1l0.1,1.4c0,0.4,0.4,0.7,0.7,0.7h1.1
			c0.4,0,0.7-0.3,0.7-0.7l0.1-1.4c0.4,0,0.7,0,1.1,0l0.1,1.4c0,0.4,0.4,0.7,0.7,0.7h1.1c0.4,0,0.7-0.3,0.7-0.7l0.2-1.5
			c1-0.2,2.1-0.5,2.9-1c1.5-0.8,2.3-1.8,2.3-3C66.7,50.1,65.1,49.8,63.2,49.5z M55,48.1l-5.3,4.8c0,0,0,0,0,0l-2.4,0c0,0,0,0,0,0
			l0,0l5.9-5.3c0,0,0,0,0,0L55,48.1C55,48.1,55,48.1,55,48.1z M44.9,52.9C44.9,52.9,44.9,52.9,44.9,52.9l-2.6,0c0,0,0,0,0,0
			c0,0,0,0,0,0c0,0,0,0,0,0l7.8-7c0,0,0,0,0,0l1.8,0.5c0,0,0,0,0,0c0,0,0,0,0,0L44.9,52.9C44.9,52.9,44.9,52.9,44.9,52.9z"/>
	</g>
</g>
</svg>
