<?xml version="1.0" encoding="utf-8"?>
<!-- Generator: Adobe Illustrator 25.2.1, SVG Export Plug-In . SVG Version: 6.00 Build 0)  -->
<svg version="1.1" id="Calque_1" xmlns="http://www.w3.org/2000/svg" xmlns:xlink="http://www.w3.org/1999/xlink" x="0px" y="0px"
	 viewBox="0 0 100 100" style="enable-background:new 0 0 100 100;" xml:space="preserve">
<style type="text/css">
	.st0{fill:url(#SVGID_1_);stroke:#8B0000;stroke-width:2;}
	.st1{fill:#FFFFFF;fill-opacity:0.2;}
	.st2{fill:#FFFFFF;}
	.st3{fill:#C92A2A;}
</style>
<linearGradient id="SVGID_1_" gradientUnits="userSpaceOnUse" x1="-75.5375" y1="178.1444" x2="-75.5375" y2="177.1444" gradientTransform="matrix(80 0 0 -90 6093 16038)">
	<stop  offset="0" style="stop-color:#FF6B6B"/>
	<stop  offset="1" style="stop-color:#C92A2A"/>
</linearGradient>
<path class="st0" d="M50,5l40,15v35c0,16.7-13.3,30-40,40C23.3,85,10,71.7,10,55V20L50,5z"/>
<path class="st1" d="M50,15l30,12v25c0,13.3-10,24.3-30,33c-20-8.7-30-19.7-30-33V27L50,15z"/>
<circle class="st2" cx="50" cy="50" r="18"/>
<g>
	<g>
		<path class="st3" d="M50,36.6c-7.4,0-13.4,6-13.4,13.4s6,13.4,13.4,13.4s13.4-6,13.4-13.4S57.4,36.6,50,36.6z M59.2,56.2h-2.9
			c-0.2,0-0.4-0.1-0.4-0.3l-1-1.8c-0.1-0.1-0.1-0.3-0.1-0.4l1-3.9c0-0.2,0.1-0.3,0.3-0.4l1.8-0.8c0.2-0.1,0.4,0,0.5,0.1l2.7,2.3
			c0.1,0.1,0.2,0.3,0.2,0.5c-0.2,1.5-0.8,3-1.6,4.3C59.5,56.1,59.4,56.2,59.2,56.2z M42.2,48.8l1.8,0.8c0.1,0.1,0.3,0.2,0.3,0.4
			l1,3.9c0,0.1,0,0.3-0.1,0.4l-1,1.8c-0.1,0.2-0.3,0.3-0.4,0.3h-2.9c-0.2,0-0.3-0.1-0.4-0.2c-0.8-1.3-1.3-2.8-1.6-4.3
			c0-0.2,0-0.4,0.2-0.5l2.7-2.3C41.8,48.7,42,48.7,42.2,48.8z M58.7,43.2l-1.2,3.3c0,0.1-0.1,0.2-0.3,0.3l-1.9,0.8
			c-0.2,0.1-0.4,0-0.5-0.1l-3.6-3c-0.1-0.1-0.2-0.2-0.2-0.4v-2.2c0-0.2,0.1-0.3,0.2-0.4l2.8-1.8c0.1-0.1,0.3-0.1,0.5,0
			c1.6,0.7,3,1.7,4.1,3.1C58.7,42.8,58.8,43,58.7,43.2L58.7,43.2z M46,39.7l2.8,1.8c0.1,0.1,0.2,0.3,0.2,0.4v2.2
			c0,0.2-0.1,0.3-0.2,0.4l-3.6,3c-0.1,0.1-0.4,0.2-0.5,0.1l-1.9-0.8c-0.1-0.1-0.2-0.2-0.3-0.3l-1.2-3.3c-0.1-0.2,0-0.4,0.1-0.5
			c1.1-1.3,2.5-2.4,4.1-3.1C45.7,39.5,45.8,39.6,46,39.7z M47.1,60.7l-1.3-3.2c-0.1-0.1,0-0.3,0-0.5l1-1.7c0.1-0.2,0.3-0.3,0.4-0.3
			h5.4c0.2,0,0.4,0.1,0.4,0.3l1,1.7c0.1,0.1,0.1,0.3,0,0.5l-1.3,3.2c-0.1,0.2-0.2,0.3-0.4,0.3c-1.7,0.4-3.4,0.4-5.1,0
			C47.3,61,47.2,60.9,47.1,60.7z"/>
	</g>
</g>
</svg>
