<?xml version="1.0" encoding="utf-8"?>
<!-- Generator: Adobe Illustrator 25.2.1, SVG Export Plug-In . SVG Version: 6.00 Build 0)  -->
<svg version="1.1" id="Calque_1" xmlns="http://www.w3.org/2000/svg" xmlns:xlink="http://www.w3.org/1999/xlink" x="0px" y="0px"
	 viewBox="0 0 100 100" style="enable-background:new 0 0 100 100;" xml:space="preserve">
<style type="text/css">
	.st0{fill:url(#SVGID_1_);stroke:#0D47A1;stroke-width:2;}
	.st1{fill:#FFFFFF;fill-opacity:0.2;}
	.st2{fill:#FFFFFF;}
	.st3{fill:#1864AB;}
</style>
<linearGradient id="SVGID_1_" gradientUnits="userSpaceOnUse" x1="-75.5375" y1="178.1444" x2="-75.5375" y2="177.1444" gradientTransform="matrix(80 0 0 -90 6093 16038)">
	<stop  offset="0" style="stop-color:#4DABF7"/>
	<stop  offset="1" style="stop-color:#1864AB"/>
</linearGradient>
<path class="st0" d="M50,5l40,15v35c0,16.7-13.3,30-40,40C23.3,85,10,71.7,10,55V20L50,5z"/>
<path class="st1" d="M50,15l30,12v25c0,13.3-10,24.3-30,33c-20-8.7-30-19.7-30-33V27L50,15z"/>
<circle class="st2" cx="50" cy="50" r="18"/>
<g>
	<g>
		<g>
			<g>
				<g>
					<path class="st3" d="M59.9,38.2l-6.3-1.4l-7.2,0l-6.4,1.4c-2.2,0.5-3.8,2.5-3.8,4.7v5.2l5.3,1.3v14.7h2.2h12.4h2.2V49.5
						l5.3-1.3v-5.2C63.7,40.7,62.1,38.7,59.9,38.2z M53,37.6c-0.2,1-0.9,3.3-3,4c-2.1-0.7-2.8-2.9-3-4H53z M43.8,63.3h-1.3V46h-0.9
						v2.5l-4.4-1.1v-0.9l3.4,0.8l0.2-0.9l-3.6-0.8v-2.7c0-1.9,1.3-3.5,3.1-3.9l5.8-1.3c0,0.2,0.1,0.6,0.2,0.9l-5.8,1.6l0.2,0.9
						l5.8-1.7c0.3,0.6,0.6,1.2,1.1,1.7c-2.4,0.9-3.9,3.2-3.9,5.8V63.3z M55.3,63.3H44.7V46.9c0-2.4,1.6-4.4,3.8-5.1
						c0.4,0.3,0.8,0.5,1.3,0.6l0.1,0l0.1,0c0.5-0.1,1-0.4,1.3-0.6c2.3,0.7,3.8,2.7,3.8,5.1V63.3z M62.8,45.7l-3.6,0.8l0.2,0.9
						l3.4-0.8v0.9l-4.4,1.1V46h-0.9v17.2h-1.3V46.9c0-2.6-1.6-4.8-3.9-5.8c0.5-0.5,0.8-1.1,1.1-1.7l5.8,1.7l0.2-0.9l-5.8-1.6
						c0.1-0.4,0.2-0.7,0.2-0.9l5.8,1.3c1.8,0.4,3.1,2,3.1,3.9V45.7z"/>
					<rect x="49.6" y="43.4" class="st3" width="0.9" height="0.9"/>
					<rect x="51.3" y="43.4" class="st3" width="0.9" height="0.9"/>
					<rect x="47.8" y="43.4" class="st3" width="0.9" height="0.9"/>
				</g>
			</g>
		</g>
	</g>
</g>
</svg>
