<?xml version="1.0" encoding="utf-8"?>
<!-- Generator: Adobe Illustrator 25.2.1, SVG Export Plug-In . SVG Version: 6.00 Build 0)  -->
<svg version="1.1" id="Calque_1" xmlns="http://www.w3.org/2000/svg" xmlns:xlink="http://www.w3.org/1999/xlink" x="0px" y="0px"
	 viewBox="0 0 100 100" style="enable-background:new 0 0 100 100;" xml:space="preserve">
<style type="text/css">
	.st0{fill:url(#SVGID_1_);stroke:#0E7490;stroke-width:2;}
	.st1{fill:#FFFFFF;fill-opacity:0.2;}
	.st2{fill:#FFFFFF;}
	.st3{fill:#0891B2;}
</style>
<linearGradient id="SVGID_1_" gradientUnits="userSpaceOnUse" x1="-75.5375" y1="178.1444" x2="-75.5375" y2="177.1444" gradientTransform="matrix(80 0 0 -90 6093 16038)">
	<stop  offset="0" style="stop-color:#22D3EE"/>
	<stop  offset="1" style="stop-color:#0891B2"/>
</linearGradient>
<path class="st0" d="M50,5l40,15v35c0,16.7-13.3,30-40,40C23.3,85,10,71.7,10,55V20L50,5z"/>
<path class="st1" d="M50,15l30,12v25c0,13.3-10,24.3-30,33c-20-8.7-30-19.7-30-33V27L50,15z"/>
<circle class="st2" cx="50" cy="50" r="18"/>
<g>
	<g>
		<g>
			<g>
				<g>
					<path class="st3" d="M60.5,49.6c-0.1-0.4-0.4-0.7-0.9-0.9L56,46.9c-0.1,0-0.2-0.1-0.3-0.1V36.2H42.6v19.5l8.4,0
						c0,0.9,0,5.3,0,5.3h6.5l3-9.8C60.7,50.6,60.7,50,60.5,49.6z M43.6,37.1h11.2V54c-0.3-0.1-0.5-0.4-0.7-0.8v-3.1c0-1.1,0.1-2-1-2
						s-2,0.9-2,2v4.6h-7.5V37.1L43.6,37.1z"/>
					<rect x="50.3" y="61.9" class="st3" width="8.4" height="2.7"/>
				</g>
			</g>
		</g>
	</g>
</g>
</svg>
