<?xml version="1.0" encoding="utf-8"?>
<!-- Generator: Adobe Illustrator 25.2.1, SVG Export Plug-In . SVG Version: 6.00 Build 0)  -->
<svg version="1.1" id="Calque_1" xmlns="http://www.w3.org/2000/svg" xmlns:xlink="http://www.w3.org/1999/xlink" x="0px" y="0px"
	 viewBox="0 0 220 164.7" style="enable-background:new 0 0 220 164.7;" xml:space="preserve">
<style type="text/css">
	.st0{fill:#FD9A28;}
</style>
<g>
	<rect x="13.7" y="148.5" class="st0" width="192.7" height="12.9"/>
	<g>
		<polygon class="st0" points="5.5,67.1 5.5,67.1 5.5,67 		"/>
		<path class="st0" d="M219,26.3l-25.5,33.9L204,73.8l0.1,0.1c0.2,7.3-2.6,20.3-18.8,38.6C171.9,94,171.2,81,172.7,73.8l12.7-13.5
			l-19.8-33.9l-23.7,33.9l11.3,13.6c0.6,6.8-1.1,18.7-14.1,35.3c-16.6-22.3-18.1-38.1-16.7-47.1l15.4-17.6L110,0L82.2,44.5
			l15.4,17.6c1.4,9,0,24.8-16.6,47.1C68.1,92.6,66.3,80.8,66.9,74l11.3-13.7L54.5,26.4L34.6,60.3l12.8,13.6
			c1.5,7.3,0.8,20.2-12.5,38.6C18.6,94.2,15.7,81.2,16,73.9v-0.1l10.5-13.6L1,26.4L5.5,67v0.1l2,17.7l-0.1,0.1l4.3,39.2v0.1l2,17.9
			h192.7l2-17.9l4.3-39.2l-0.1-0.1l2-17.9L219,26.3z"/>
	</g>
</g>
</svg>
