<?xml version="1.0" encoding="utf-8"?>
<!-- Generator: Adobe Illustrator 25.2.1, SVG Export Plug-In . SVG Version: 6.00 Build 0)  -->
<svg version="1.1" id="Calque_1" xmlns="http://www.w3.org/2000/svg" xmlns:xlink="http://www.w3.org/1999/xlink" x="0px" y="0px"
	 viewBox="0 0 220 164.7" style="enable-background:new 0 0 220 164.7;" xml:space="preserve">
<style type="text/css">
	.st0{fill:#FD9A28;}
</style>
<g>
	<g>
		<polygon class="st0" points="206.4,142.1 13.7,142.1 11.7,124.2 208.4,124.2 		"/>
		<g>
			<polygon class="st0" points="137.8,44.5 110,76.2 82.2,44.5 110,0 			"/>
			<path class="st0" d="M153.4,125.9c-45.8-47.5-28-72.6-28-72.6H94.6c0,0,17.8,25.2-28,72.6H153.4z"/>
		</g>
		<g>
			<g>
				<g>
					<polygon class="st0" points="78.2,60.3 57.8,84.9 34.6,60.3 54.5,26.4 					"/>
					<path class="st0" d="M94.6,124.2C56,86.6,68.8,67,68.8,67H44.7c0,0,15,19.6-19.4,57.1H94.6z"/>
				</g>
				<g>
					<path class="st0" d="M17.5,67c0,0-1.4,2.3-1.5,6.8l10.5-13.6L1,26.4L5.5,67H17.5z"/>
					<path class="st0" d="M16,73.9L7.4,84.9l4.3,39.2h34.6C19.8,99.6,15.7,82.6,16,73.9z"/>
					<path class="st0" d="M5.5,67l2,17.9L16,73.9c0.2-4.5,1.5-6.8,1.5-6.8H5.5z"/>
				</g>
			</g>
			<g>
				<g>
					<polygon class="st0" points="141.9,60.3 162.3,84.9 185.4,60.3 165.6,26.4 					"/>
					<path class="st0" d="M125.5,124.2C164.1,86.6,151.2,67,151.2,67h24.2c0,0-15,19.6,19.4,57.1H125.5z"/>
				</g>
				<g>
					<path class="st0" d="M202.5,67c0,0,1.4,2.3,1.5,6.8l-10.5-13.6l25.5-33.9L214.6,67H202.5z"/>
					<path class="st0" d="M204.1,73.9l8.6,11.1l-4.3,39.2h-34.6C200.3,99.6,204.4,82.6,204.1,73.9z"/>
					<path class="st0" d="M214.6,67l-2,17.9l-8.6-11.1c-0.2-4.5-1.5-6.8-1.5-6.8H214.6z"/>
				</g>
			</g>
		</g>
	</g>
	<rect x="13.7" y="148.5" class="st0" width="192.7" height="12.9"/>
</g>
</svg>
