<?xml version="1.0" encoding="utf-8"?>
<!-- Generator: Adobe Illustrator 25.2.1, SVG Export Plug-In . SVG Version: 6.00 Build 0)  -->
<svg version="1.1" id="Calque_1" xmlns="http://www.w3.org/2000/svg" xmlns:xlink="http://www.w3.org/1999/xlink" x="0px" y="0px"
	 viewBox="0 0 256 256" style="enable-background:new 0 0 256 256;" xml:space="preserve">
<style type="text/css">
	.st0{fill:#FFFFFF;}
	.st1{fill:#E85410;}
</style>
<g>
	<path class="st0" d="M99.1,23.2c2.5,7.2,7.1,12.7,13.4,16.7c6.6,4.3,14.1,5.7,21.9,5.9c0,1.1,0,2.3,0,3.6c-0.1,0-0.2,0.1-0.3,0.1
		c-2-0.1-4,0-6-0.2c-1.2-0.1-2.3-0.4-3.5-0.6c-1.7-0.4-3.5-0.6-5.2-1.2c-2.1-0.7-4.2-1.6-6.3-2.6c-1.6-0.8-3.3-1.7-4.7-2.8
		c-1.9-1.5-3.7-3.1-5.4-4.9c-1.3-1.4-2.5-3-3.6-4.5c-0.9-1.2-1.5-2.5-2.3-3.8c-0.3-0.6-0.4-1.1-1.4-0.7c-2.3,0.8-4.7,1.5-7,2.2
		c-1.5,0.4-3.1,0.8-4.6,1.2c-1.3,0.4-2.5,0.9-3.8,1.3c-0.7,0.2-1.5,0.4-2.3,0.6c-2.6,0.7-5.2,1.5-7.8,2.2c-1.3,0.4-2.5,0.7-3.8,1.1
		c-1.9,0.6-3.9,1.2-5.8,1.8c-0.9,0.3-1.9,0.4-2.8,0.7c-3.2,0.9-6.4,1.9-9.6,2.8c-2.1,0.6-4.3,1.2-6.4,1.8c-2.4,0.7-4.8,1.4-7.2,2.2
		c-1.6,0.5-3.2,0.9-4.8,1.4c-3.5,1-6.9,2-10.4,3c-3.2,0.9-6.4,1.9-9.7,2.8c-0.6,0.2-0.4,0.6-0.3,0.9c0.2,1.2,0.4,2.4,0.7,3.7
		c0.3,1.7,0.7,3.3,1,5c0.7,3.7,1.5,7.5,2.1,11.3c0.8,4.1,1.5,8.1,2.2,12.2c1,5.1,2,10.2,3,15.3c0.4,2.3,0.8,4.5,1.2,6.9
		c13.7-2.5,27.3-5,41-7.4c0,42.8,0,85.6,0,128.4c0.4,0,0.7,0,1,0c21.1,0,42.3,0,63.4,0c1.3,0,1.2-0.2,1.2,1.2c0,0.6,0,1.1,0,1.7
		c0.1,0.6-0.1,1-0.8,0.9c-0.1,0-0.1,0-0.2,0c-22.5,0-44.9,0-67.4,0c-0.3,0-0.5,0-0.9,0c0-42.6,0-85.1,0-127.7
		c-13.5,2.4-26.8,4.9-40.3,7.3c-0.3-1.5-0.6-3-0.8-4.5c-0.3-1.8-0.6-3.6-1-5.4c-0.2-1.2-0.5-2.4-0.8-3.7c-0.3-1.4-0.5-2.8-0.7-4.2
		c-0.2-1-0.4-1.9-0.6-2.9c-0.3-1.7-0.6-3.4-0.9-5.1c-0.2-0.9-0.4-1.8-0.5-2.7c-0.3-1.7-0.6-3.4-1-5.1c-0.3-1.7-0.7-3.3-1-5
		c-0.3-1.7-0.6-3.4-0.9-5C8.5,67.9,8.2,67,8,66.1c-0.2-1.1-0.3-2.2-0.5-3.2c-0.6-2.8-1.1-5.7-1.7-8.5c-0.2-1.2-0.5-2.4-0.7-3.6
		c0-0.2,0.2-0.5,0.4-0.5c3.2-1,6.4-1.9,9.6-2.8c3-0.9,6-1.7,9.1-2.6c3.7-1.1,7.4-2.2,11.1-3.3c1.9-0.6,3.8-1,5.7-1.6
		c1.9-0.5,3.8-1.1,5.6-1.6c1.3-0.4,2.5-0.7,3.8-1.1c2.2-0.6,4.4-1.3,6.5-1.9c2.7-0.8,5.4-1.5,8.1-2.3c1.7-0.5,3.5-1.2,5.2-1.7
		c3.9-1.1,7.7-2.1,11.6-3.2c3.7-1.1,7.4-2.2,11.1-3.3C95,24.3,97,23.7,99.1,23.2z"/>
	<path class="st1" d="M148.5,88.3c2,0.3,3.9,1.1,5.6,2.3c2.1,1.5,3.6,3.5,4.7,5.7c0.7,1.3,0.9,2.9,1.3,4.4c0,1.7,0,3.4,0,5
		c-0.4,1.4-0.7,2.9-1.2,4.3c-0.7,1.8-1.9,3.4-3.4,4.7c-1.1,0.9-2.3,1.8-3.5,2.5c-1,0.5-2.3,0.7-3.4,1c-1.3,0-2.7,0-4,0
		c-2.1-0.2-4-1-5.5-2.4c-0.1-0.1-0.2-0.2-0.3-0.3c0,0,0,0,0,0c-0.1-0.1-0.3-0.3-0.5-0.6c0,1,0,1.8,0,2.6c-0.1,0-0.2,0-0.3,0.1
		c-2.7,0-5.5,0-8.2,0c0,0,0,0,0,0c0-0.1,0-0.2,0-0.3c0-13,0-26,0-38.9c0-0.2,0-0.4,0.1-0.6c2.8,0,5.6,0,8.5,0c0,4.6,0,9.2,0,13.9
		c0.3-0.3,0.4-0.5,0.5-0.6c0,0,0,0,0,0c0.1-0.1,0.2-0.2,0.3-0.3c1.6-1.2,3.2-2.4,5.4-2.4C145.7,88.3,147.1,88.3,148.5,88.3z
		 M144.8,96.3c-4.1,0-6.7,2.7-6.7,6.9c0,4.2,2.6,7,6.7,7c4.1,0,6.8-2.7,6.8-6.9C151.6,99.1,148.9,96.3,144.8,96.3z"/>
	<path class="st1" d="M168.1,114.1c0-0.1-0.1-0.1-0.1-0.2c0,0,0-0.1,0-0.1l-0.1,0c-0.1,0-0.1-0.1-0.2-0.1c-0.8-1-1.6-2-2.4-3
		c-0.5-1.4-1-2.8-1.5-4.2c-0.1-0.4-0.1-0.9-0.2-1.3c0-1.3,0-2.7,0-4c0.6-6.7,6.3-12.3,12.9-12.9c1.4,0,2.8,0,4.2,0
		c1.6,0.4,3.2,0.7,4.6,1.3c1.8,0.7,3.1,2.2,4.5,3.4c1.4,1.3,2.2,2.9,2.9,4.6c1,2.4,1.2,4.9,0.8,7.5c-0.2,1.7-0.6,3.3-1.4,4.7
		c-0.6,1.1-1.3,2.2-2.1,3.2c-0.9,1.1-1.8,2.2-3,2.9c-1.9,1.1-3.9,2-6.2,2.2c-1.5,0-2.9,0-4.4,0c-1.6-0.4-3.1-0.8-4.7-1.2
		c-0.2-0.2-0.4-0.3-0.7-0.5c0,0,0,0,0,0c-0.7-0.4-1.3-0.8-2-1.2c0-0.1,0-0.1-0.1-0.1C168.8,114.8,168.5,114.4,168.1,114.1z
		 M178.7,109.9c3.8,0,6.6-2.9,6.6-6.7c0-3.9-2.7-6.7-6.5-6.7c-3.8,0-6.6,2.7-6.6,6.7C172.1,107,174.9,109.9,178.7,109.9z"/>
	<path class="st1" d="M225,94.3c0.3,1.5,0.7,3,1,4.5c0,0.3,0,0.6,0,0.8c0,5.9,0,11.8,0,17.8l0,0c-2.5,0-4.9,0-7.4,0
		c-0.1,0-0.2,0-0.3,0c-0.1,0-0.2,0-0.3,0c-0.1,0-0.2,0-0.3,0c0,0-0.1-0.1-0.1-0.1c0,0,0,0,0,0c0-5.3,0-10.7,0-16
		c0-0.5-0.1-0.9-0.2-1.4c-0.3-1.8-1.3-3-3-3.7c-1.2-0.5-2.5-0.5-3.7,0c-1.6,0.6-2.6,1.7-3,3.3c-0.1,0.7-0.2,1.4-0.3,2
		c0,4.6,0,9.2,0,13.7c0,0.1,0,0.2,0,0.3c0,0.1,0,0.2,0,0.3c0,0.1,0,0.1,0,0.2c0,0.4,0,0.8,0,1.2c-2.3,0-4.7,0-7,0
		c-0.1,0-0.2,0-0.3,0c-0.4,0-0.8,0-1.2,0c0,0,0,0,0,0c0-9.5,0-19,0-28.4c0,0,0,0,0,0c2.8,0,5.7,0,8.5,0c0,0.1,0,0.2,0,0.3
		c0,0.7,0,1.3,0,2.2c0.6-0.6,1-1.1,1.4-1.5c1.4-1,3-1.5,4.7-1.7c1.3,0,2.7,0,4,0c2,0.2,3.6,1.2,5.2,2.4c0.4,0.4,0.8,0.8,1.1,1.2
		c0,0,0,0.1,0.1,0.1c0.1,0.2,0.2,0.3,0.3,0.5c0,0,0,0,0,0C224.4,93.1,224.7,93.7,225,94.3z"/>
	<path class="st0" d="M182.8,176.2c0.7-0.9,1.4-1.8,2.1-2.6c1.7-1.9,4-2.6,6.5-2.8c2.5-0.2,5,0.2,7.1,1.7c2.4,1.6,3.7,4,4.1,6.8
		c0.2,1.2,0.2,2.5,0.2,3.7c0,5.6,0,11.2,0,16.8c-0.9,0-1.8,0-2.9,0c0-0.3,0-0.6,0-0.9c0-5.9,0.1-11.7,0-17.6c0-2.3-0.7-4.4-2.4-6
		c-1.4-1.2-3-1.8-4.8-1.8c-1.3,0-2.5,0-3.7,0.5c-2.7,1.3-4.2,3.5-4.7,6.3c-0.2,1.2-0.3,2.4-0.3,3.6c0,4.9,0,9.8,0,14.7
		c0,0.3,0,0.6,0,1c-0.9,0-1.9,0-2.9,0c0-0.3,0-0.6,0-0.9c0-5.8,0-11.5,0-17.3c0-2.6-0.7-5-2.8-6.7c-1.2-1-2.6-1.5-4.1-1.4
		c-1.1,0.1-2.2,0-3.2,0.4c-3.1,1-4.9,3.2-5.6,6.3c-0.3,1.2-0.4,2.4-0.4,3.6c0,5,0,10,0,15c0,0.3,0,0.6,0,1c-1,0-1.9,0-2.9,0
		c0-9.4,0-18.9,0-28.4c0.9,0,1.9,0,2.9,0c0,1.4,0,2.8,0,4.3c2.1-3.4,5.2-5,9.1-5C178,170.7,181,172.4,182.8,176.2z"/>
	<path class="st0" d="M88.7,137.5c0.7-1.3,1.7-2.4,2.9-3.2c1.6-1.1,3.4-1.5,5.2-1.6c2.6-0.2,5,0.4,7,2.1c0.9,0.7,1.5,1.9,2.2,2.8
		c0.1,0.1,0.2,0.3,0.3,0.5c0.8-0.9,1.5-1.8,2.2-2.6c1.6-1.7,3.7-2.5,6-2.7c2.3-0.3,4.7,0,6.7,1.1c2.4,1.3,3.9,3.4,4.5,6
		c0.4,1.5,0.5,3.2,0.5,4.8c0.1,5.7,0,11.4,0,17.1c-1,0-1.9,0-2.9,0c0-0.3,0-0.6,0-0.9c0-5.8,0.1-11.6,0-17.3c0-2.5-0.7-4.8-2.8-6.4
		c-0.9-0.8-2-1.2-3.3-1.4c-1.7-0.3-3.2-0.2-4.8,0.3c-2.2,0.8-3.6,2.4-4.4,4.6c-0.9,2.3-0.9,4.7-0.9,7.1c0,4.4,0,8.7,0,13.1
		c0,0.3,0,0.6,0,1c-1,0-1.9,0-2.9,0c0-0.3,0-0.6,0-0.9c0-5.7,0-11.4,0-17.1c0-2-0.4-3.9-1.5-5.6c-0.7-1-1.7-1.7-2.9-2.2
		c-1.1-0.4-2.3-0.6-3.5-0.5c-1.5,0.2-3,0.5-4.3,1.5c-3,2.1-3.7,5.2-3.8,8.5c-0.1,5.1,0,10.3,0,15.4c0,0.3,0,0.5,0,0.9
		c-1,0-1.9,0-2.8,0c0-9.5,0-18.9,0-28.5c0.9,0,1.8,0,2.9,0c0,1.4,0,2.8,0,4.2c0,0.1,0,0.2,0,0.5C88.6,137.8,88.6,137.7,88.7,137.5z"
		/>
	<path class="st0" d="M124,104.7c-8.5,0-17.1,0-25.7,0c0.2,4,2.9,8.2,7.3,9.8c4.7,1.7,11.3,0.9,14.6-4.3c0.4,0.2,0.8,0.5,1.3,0.7
		c0.4,0.2,0.8,0.5,1.2,0.7c-1.6,2.7-3.9,4.4-6.7,5.5c-2.2,0.8-4.4,1.2-6.7,1c-1.4-0.1-2.9-0.2-4.3-0.7c-2.5-0.9-4.6-2.2-6.4-4.2
		c-1.6-1.9-2.7-4.1-3.2-6.5c-0.4-2-0.5-4.1-0.1-6.2c0.5-2.6,1.4-4.9,3.1-7c1.3-1.6,2.9-2.9,4.9-3.8c4.3-2,8.6-1.9,12.9,0
		c1,0.5,2,1.2,2.8,1.9c1,0.9,2,1.9,2.8,3.1c0.7,1.1,1.1,2.5,1.6,3.8C124,100.3,124.2,102.6,124,104.7z M98.3,101.8
		c7.6,0,15.2,0,22.7,0c-0.1-4.9-3.8-10.7-10.9-10.8C103,91,98.6,96.3,98.3,101.8z"/>
	<path class="st0" d="M159.4,139.4c0-2,0-4,0-6c1,0,2,0,2.9,0c0,9.5,0,19,0,28.5c-1,0-1.9,0-2.9,0c0-2,0-4,0-6.1
		c-0.8,1-1.5,1.9-2.3,2.8c-0.2,0.2-0.5,0.5-0.7,0.7c-0.1,0-0.1,0-0.1,0.1c-0.5,0.4-0.9,0.8-1.4,1.2c-3.9,2-7.9,2.6-12.1,1.4
		c-0.1,0-0.2,0-0.3-0.1c-0.3-0.1-0.5-0.2-0.8-0.3c-0.2-0.1-0.3-0.1-0.5-0.2c-0.3-0.1-0.6-0.3-0.9-0.4c-2.7-1.2-4.6-3.2-6-5.7
		c-1.1-1.8-1.8-3.8-1.9-5.9c-0.2-2.2-0.2-4.5,0.6-6.6c1.8-4.9,5.1-8.2,10.3-9.5c4.3-1.1,8.4-0.4,12,2.1c1.4,1,2.6,2.3,3.6,3.7
		C159.2,139.1,159.3,139.2,159.4,139.4C159.4,139.4,159.4,139.4,159.4,139.4z M159.5,147.6c0-6.8-5.2-12.2-12-12.2
		c-7.3,0-12.1,5.7-12.1,12.2c0,6.8,5.3,12.1,12,12.1C154.2,159.7,159.5,154.4,159.5,147.6z"/>
	<path class="st0" d="M234.1,147.5c0.1,8.2-6.5,14.9-14.9,14.9c-9,0-14.4-6.7-15-13.4c-0.4-4.6,0.9-8.7,4.2-12.1c3-3,6.7-4.4,11-4.4
		C227.5,132.7,234.2,139.4,234.1,147.5z M219.2,159.7c6.8,0,12-5.3,12-12.1c0-6.8-5.4-12.2-12.1-12.1c-6.7,0-12.1,5.4-12,12.2
		C207.1,154.4,212.4,159.7,219.2,159.7z"/>
	<path class="st0" d="M140.2,170.7c8.4,0,14.9,6.5,14.9,14.9c0,8.4-6.6,14.9-15,14.9c-3.6,0-6.8-1.1-9.6-3.3
		c-2.9-2.4-4.8-5.5-5.3-9.2c-0.7-4.8,0.5-9.2,3.9-12.8C132,172.2,136,170.6,140.2,170.7z M140.2,197.7c6.7,0,12-5.3,12-12.1
		c0-6.8-5.3-12.2-12-12.2c-6.8,0-12.1,5.4-12.1,12.2C128.1,192.4,133.4,197.7,140.2,197.7z"/>
	<path class="st0" d="M118.7,191.9c0.7,0.4,1.4,0.6,2,1c0.2,0.1,0.3,0.6,0.2,0.7c-1,1.8-2.4,3.3-4.1,4.4c-2.1,1.3-4.3,2.2-6.8,2.3
		c-1.2,0.1-2.4,0.3-3.5,0.1c-1.6-0.3-3.2-0.7-4.6-1.3c-3-1.3-5.2-3.5-6.8-6.3c-0.8-1.5-1.5-3.2-1.5-5c0-1.2-0.3-2.5-0.2-3.7
		c0.2-2.1,0.7-4.1,1.7-6c1.4-2.5,3.4-4.6,6-5.8c1.4-0.7,2.9-1.1,4.4-1.4c2.5-0.5,4.9-0.3,7.4,0.4c3.5,1,6.4,3.4,8,6.7
		c-0.8,0.4-1.5,0.9-2.4,1.4c-2.6-4.9-6.9-6.2-12-5.8c-2.6,0.2-4.9,1.5-6.6,3.3c-5.5,5.8-4.2,14,0.9,18.1
		C105.6,199,114.1,199.2,118.7,191.9z"/>
	<path class="st0" d="M243.6,133.3c0-2.2,0-4.3,0-6.4c0-0.6,0.2-0.9,0.7-1c0.7-0.2,1.4-0.4,2.2-0.7c0,2.7,0,5.3,0,8
		c2.8,0,5.7,0,8.5,0c0,1,0,1.9,0,2.8c-2.8,0-5.6,0-8.5,0c0,0.3,0,0.6,0,0.8c0,5.8,0,11.6,0,17.4c0,0.8,0.1,1.7,0.3,2.5
		c0.4,1.5,1.5,2.5,3.1,2.5c1.7,0.1,3.4,0,5.1,0c0,0.8,0,1.6,0,2.5c-0.7,0.1-1.5,0.3-2.3,0.3c-1.8,0-3.7,0.2-5.5-0.6
		c-1.7-0.7-2.7-1.9-3.2-3.5c-0.3-1-0.4-2.1-0.4-3.2c0-5.9,0-11.8,0-17.7c0-0.3,0-0.6,0-1c-2.1,0-4.2,0-6.3,0c0-1,0-1.9,0-2.9
		C239.4,133.3,241.5,133.3,243.6,133.3z"/>
	<path class="st0" d="M194.5,120.2c1,0,1.8,0,2.8,0c0,13.9,0,27.7,0,41.6c-0.9,0-1.8,0-2.8,0C194.5,147.9,194.5,134.1,194.5,120.2z"
		/>
	<path class="st0" d="M185.6,120.1c0,13.9,0,27.7,0,41.6c-0.9,0-1.9,0-2.8,0c0-13.3,0-26.7,0-40.1c0-1.5,0-1.5,1.5-1.5
		C184.8,120.1,185.2,120.1,185.6,120.1z"/>
	<path class="st0" d="M88.3,117.4c-0.9,0-1.8,0-2.8,0c0-13.9,0-27.7,0-41.6c0.9,0,1.8,0,2.8,0C88.3,89.7,88.3,103.5,88.3,117.4z"/>
	<path class="st0" d="M171.2,133.3c1,0,1.9,0,2.8,0c0,9.5,0,19,0,28.5c-0.9,0-1.9,0-2.8,0C171.2,152.3,171.2,142.8,171.2,133.3z"/>
	<path class="st0" d="M87.5,195.3c0.4,0,1-0.1,1.2,0.2c0.5,0.7,1.2,1.4,1.2,2.4c0,1.5-1.4,2.7-2.9,2.7c-1.2,0-2.5-1.4-2.4-2.7
		C84.7,196.5,85.3,195.1,87.5,195.3z"/>
	<path class="st0" d="M172.9,121.9c0.9,0,2,1.1,2,2.2c0,1.3-1.1,2.3-2.6,2.4c-0.9,0-2-1.1-2.1-2C170.2,122.7,171,121.9,172.9,121.9z
		"/>
</g>
</svg>
