<?xml version="1.0" encoding="utf-8"?>
<!-- Generator: Adobe Illustrator 25.2.1, SVG Export Plug-In . SVG Version: 6.00 Build 0)  -->
<svg version="1.1" id="Calque_1" xmlns="http://www.w3.org/2000/svg" xmlns:xlink="http://www.w3.org/1999/xlink" x="0px" y="0px"
	 viewBox="0 0 220 115.68" style="enable-background:new 0 0 220 115.68;" xml:space="preserve">
<style type="text/css">
	.st0{fill:#FD9A28;}
	.st1{fill:#141515;}
	.st2{fill:#FEFEFE;}
</style>
<g>
	<path class="st0" d="M131.67,58.14c25.28,0,50.55,0.01,75.83,0c2.25,0,4.27,0.67,6.04,2.05c2.03,1.58,3.18,3.7,3.19,6.25
		c0.05,11.97,0.05,23.93,0,35.9c-0.02,4.47-3.77,8.5-8.25,8.66c-6.37,0.22-12.76,0.19-19.14,0.2c-23.83,0.02-47.65,0-71.48,0.01
		c-3.02,0-5.71-0.79-7.86-3.01c-1.67-1.72-2.49-3.8-2.49-6.17c-0.02-11.5,0-22.99,0-34.49c0.56,0.06,1.12,0.2,1.68,0.16
		c1.63-0.11,3.28-0.19,4.89-0.45c3.86-0.61,7.59-1.73,10.86-3.9C127.29,61.79,129.43,59.89,131.67,58.14z M183.32,68.55
		c0,11.33,0,22.51,0,33.71c5.23,0,10.37,0.05,15.52-0.02c2.23-0.03,4.38-0.46,6.43-1.54c3.55-1.88,5.56-5.99,4.63-9.94
		c-0.69-2.93-2.52-4.84-5.29-5.94c5.14-3.22,6.1-8.37,2.37-12.94c-1.75-2.14-4.19-3.1-6.89-3.26c-2.13-0.13-4.28-0.05-6.41-0.05
		C190.23,68.55,186.79,68.55,183.32,68.55z M137.77,68.59c0,4.27,0,8.42,0,12.57c-4.17,0-8.24,0-12.38,0c0-4.23,0-8.38,0-12.54
		c-2.76,0-5.45,0-8.15,0c0,11.23,0,22.39,0,33.57c2.74,0,5.43,0,8.17,0c0-4.41,0-8.75,0-13.12c4.15,0,8.26,0,12.44,0
		c0,4.41,0,8.75,0,13.14c2.84,0,5.61,0,8.39,0c0-11.23,0-22.41,0-33.63C143.42,68.59,140.67,68.59,137.77,68.59z M178.88,68.62
		c-2.75,0-5.38,0-8.07,0c0,0.43,0,0.79,0,1.15c0,6.6,0.03,13.2-0.02,19.8c-0.01,2.02-0.42,3.94-2.26,5.23
		c-1.46,1.02-3.11,1.04-4.79,1c-2.14-0.06-4.19-1.61-4.66-3.69c-0.25-1.12-0.39-2.29-0.4-3.44c-0.04-6.35-0.03-12.69-0.03-19.04
		c0-0.34,0-0.69,0-0.99c-2.8,0-5.43,0-8.09,0c0,7.65-0.03,15.22,0.01,22.79c0.03,5.03,3.18,9.03,8,10.5
		c2.87,0.88,5.8,0.71,8.71,0.59c7.16-0.3,11.54-5.19,11.58-11.75c0.04-6.96,0.01-13.93,0.01-20.89
		C178.88,69.47,178.88,69.08,178.88,68.62z"/>
	<path class="st1" d="M131.67,58.14c-2.24,1.75-4.38,3.65-6.73,5.21c-3.27,2.17-7,3.3-10.86,3.9c-1.61,0.25-3.26,0.34-4.89,0.45
		c-0.55,0.04-1.12-0.1-1.68-0.16c-13.25-1.08-22.47-7.8-27.61-19.99c-2.05-4.86-2.32-10.05-1.83-15.3c0.4-4.25,1.6-8.26,3.65-11.94
		c3.18-5.7,7.81-9.93,13.77-12.66c3.29-1.51,6.75-2.37,10.37-2.67c6.14-0.51,12.1,0.1,17.69,2.84c8.36,4.11,13.84,10.66,16.19,19.7
		c1.15,4.43,1.13,8.92,0.47,13.44c-0.76,5.12-2.62,9.76-5.73,13.88C133.62,56.01,132.61,57.05,131.67,58.14z M88.71,20.69
		c0.54,3.17,1.06,6.28,1.64,9.39c0.07,0.39,0.48,0.94,0.82,1.03c2.26,0.57,4.54,1.05,6.83,1.5c0.37,0.07,0.88-0.05,1.18-0.28
		c2.85-2.16,5.67-4.36,8.48-6.58c0.25-0.2,0.44-0.64,0.45-0.97c0.04-1.92-0.01-3.84,0.04-5.76c0.02-0.65-0.22-0.94-0.77-1.2
		c-2.33-1.12-4.64-2.29-6.96-3.44c-1.93-0.96-1.93-0.95-1.29-3.05c0.01-0.04-0.05-0.1-0.13-0.24c-5.16,1.78-9.17,5.02-12.38,9.61
		C87.45,20.69,88.02,20.69,88.71,20.69z M132.73,21.64c-3.81-5.87-9.52-9.55-13.01-10.33c0.07,0.28,0.1,0.57,0.21,0.83
		c0.48,1.08,0.1,1.61-0.97,2.1c-2.57,1.18-5.08,2.5-7.58,3.81c-0.29,0.15-0.57,0.62-0.58,0.95c-0.06,1.92-0.05,3.84-0.01,5.76
		c0.01,0.33,0.2,0.76,0.45,0.96c2.82,2.2,5.68,4.35,8.49,6.56c0.55,0.43,1.02,0.53,1.66,0.38c1.96-0.44,3.91-0.92,5.89-1.24
		c0.71-0.11,0.87-0.39,0.98-0.99c0.41-2.23,0.83-4.45,1.3-6.67C130.09,21.25,130.12,21.25,132.73,21.64z M97.11,52.67
		c1.33-1.82,2.69-3.63,3.99-5.48c0.18-0.26,0.21-0.74,0.11-1.06c-1.07-3.49-2.18-6.97-3.31-10.44c-0.08-0.26-0.44-0.53-0.72-0.6
		c-2.51-0.59-5.03-1.14-7.52-1.69c-1.69,2.24-3.39,4.43-5.03,6.66c-0.62,0.84-1.19,1.57-2.44,0.5c0.79,4.56,2.51,8.38,5.28,11.99
		c0.01-1.28,0.62-1.55,1.57-1.38C91.71,51.67,94.39,52.17,97.11,52.67z M119.94,54.01c-1.35-1.93-2.68-3.86-4.04-5.76
		c-0.13-0.19-0.48-0.3-0.73-0.31c-3.66-0.02-7.32-0.02-10.99,0c-0.27,0-0.64,0.16-0.8,0.37c-1.28,1.69-2.56,3.39-3.76,5.13
		c-0.19,0.28-0.2,0.9-0.02,1.19c1.05,1.72,2.11,3.44,3.29,5.07c0.75,1.04,1.19,1.94,0.04,2.94c-0.03,0.03,0.01,0.13,0.02,0.2
		c5.16,1.22,11.55,0.67,13.37-0.29c-0.36-0.4-0.72-0.79-1.07-1.18C116.83,58.89,118.38,56.46,119.94,54.01z M136.08,40.66
		c-1.04,0.89-1.68,0.55-2.25-0.24c-1.42-1.95-2.9-3.86-4.27-5.85c-0.48-0.71-0.91-0.91-1.74-0.71c-1.95,0.46-3.94,0.79-5.89,1.25
		c-0.36,0.08-0.81,0.46-0.92,0.8c-1.12,3.36-2.2,6.73-3.24,10.12c-0.1,0.31,0.02,0.79,0.22,1.06c1.21,1.73,2.45,3.44,3.72,5.13
		c0.14,0.18,0.53,0.3,0.77,0.26c2.27-0.36,4.54-0.72,6.79-1.18c0.93-0.19,1.64-0.3,1.63,1.3C133.67,48.9,135.3,45.12,136.08,40.66z"
		/>
	<path class="st1" d="M176.39,9.46c0,14.11,0,28.17,0,42.38c-0.66,0-1.29,0-1.93,0c-2.79,0-5.58-0.04-8.38,0.02
		c-0.85,0.02-1.29-0.26-1.68-0.99c-4.07-7.43-8.18-14.85-12.28-22.27c-0.23-0.42-0.48-0.84-0.85-1.48c0,8.37,0,16.47,0,24.64
		c-3.41,0-6.76,0-10.2,0c0-14.06,0-28.17,0-42.37c3.6,0,7.18-0.02,10.76,0.04c0.31,0.01,0.73,0.48,0.91,0.83
		c4.29,8.13,8.56,16.27,12.83,24.4c0.1,0.18,0.2,0.36,0.42,0.76c0-8.81,0-17.36,0-25.97C169.5,9.46,172.92,9.46,176.39,9.46z"/>
	<path class="st1" d="M52.73,51.79c-3.6,0-7.03,0-10.51,0c0-14.13,0-28.21,0-42.39c0.98,0,1.91,0,2.85,0
		c5.15,0,10.3-0.02,15.45,0.02c2.91,0.02,5.73,0.57,8.34,1.91c4.38,2.24,6.38,6.01,6.63,10.76c0.22,4.11-0.66,7.93-3.86,10.8
		c-1.16,1.04-2.58,1.79-3.98,2.74c2.85,5.23,5.81,10.63,8.85,16.19c-1.18,0-2.21,0-3.24,0c-2.5,0-5-0.02-7.51,0.01
		c-0.61,0.01-0.98-0.14-1.27-0.72c-2.33-4.57-4.7-9.12-7.03-13.69c-0.24-0.47-0.45-0.71-1.03-0.68c-1.19,0.06-2.39,0.02-3.68,0.02
		C52.73,41.75,52.73,46.73,52.73,51.79z M52.68,28.33c2.93,0,5.73,0.2,8.48-0.06c2.51-0.24,3.84-2.16,3.88-4.8
		c0.03-2.48-1.52-4.8-3.81-5.08c-2.81-0.34-5.66-0.28-8.54-0.4c0,3.46,0,6.68,0,9.91C52.68,28.08,52.68,28.25,52.68,28.33z"/>
	<path class="st1" d="M219.35,30.8c-0.21,5.1-1.21,9.88-4.21,14.1c-2.97,4.19-7.04,6.68-12.03,7.53c-4.29,0.73-8.58,0.48-12.62-1.34
		c-5.21-2.35-8.58-6.39-10.08-11.84c-1.87-6.8-1.72-13.56,1.29-20.05c2.78-5.99,7.54-9.39,14.07-10.26
		c5.01-0.67,9.81-0.02,14.14,2.7c4.75,2.99,7.38,7.48,8.55,12.86C218.91,26.56,219.06,28.7,219.35,30.8z M208.92,30.87
		c-0.05-3.09-0.45-6.09-1.98-8.84c-1.56-2.79-3.9-4.37-7.12-4.57c-3.98-0.25-7.27,1.96-8.72,5.97c-1.69,4.67-1.58,9.43-0.17,14.12
		c0.71,2.37,2.1,4.41,4.51,5.46c3.77,1.65,8.72,0.91,11.26-3.14C208.42,37.1,208.86,34.04,208.92,30.87z"/>
	<path class="st1" d="M15.93,51.82c-3.57,0-7.01,0-10.54,0c0-14.1,0-28.18,0-42.34c0.18-0.02,0.42-0.06,0.66-0.06
		c5.62,0,11.24-0.01,16.86,0c3.54,0.01,6.94,0.69,9.93,2.66c3.33,2.2,5.01,5.43,5.49,9.36c0.31,2.55,0.15,5.04-0.61,7.49
		c-1.25,4.09-4.26,6.38-8.05,7.92c-3.23,1.31-6.62,1.22-10.01,1.23c-1.23,0-2.45,0-3.74,0C15.93,42.68,15.93,47.2,15.93,51.82z
		 M15.98,18.3c0,3.68,0,7.43,0,11.21c1.85,0,3.62,0.01,5.39,0c0.65-0.01,1.31-0.02,1.95-0.11c2.82-0.39,4.64-2.44,4.65-5.56
		c0.01-2.77-0.88-5.06-4.06-5.46C21.32,18.04,18.66,18.3,15.98,18.3z"/>
	<path class="st1" d="M183.32,68.55c3.47,0,6.91,0,10.35,0c2.14,0,4.28-0.08,6.41,0.05c2.7,0.16,5.14,1.12,6.89,3.26
		c3.73,4.57,2.77,9.72-2.37,12.94c2.77,1.11,4.6,3.02,5.29,5.94c0.93,3.96-1.08,8.06-4.63,9.94c-2.05,1.09-4.2,1.51-6.43,1.54
		c-5.14,0.07-10.29,0.02-15.52,0.02C183.32,91.06,183.32,79.88,183.32,68.55z M191.14,88.4c0,2.43,0,4.91,0,7.39
		c2.64,0,5.21,0.06,7.78-0.02c2.27-0.07,3.51-1.44,3.62-3.76c0.09-1.77-1.16-3.48-2.94-3.57C196.81,88.29,193.99,88.4,191.14,88.4z
		 M191.12,82.07c2.37,0,4.68,0.06,6.99-0.03c1.18-0.05,2.2-0.59,2.74-1.77c0.93-2.03,0.44-4.88-2.23-5.18
		c-2.46-0.27-4.96-0.26-7.5-0.38C191.12,77.25,191.12,79.59,191.12,82.07z"/>
	<path class="st1" d="M137.77,68.59c2.9,0,5.65,0,8.46,0c0,11.21,0,22.4,0,33.63c-2.78,0-5.55,0-8.39,0c0-4.39,0-8.73,0-13.14
		c-4.18,0-8.29,0-12.44,0c0,4.37,0,8.71,0,13.12c-2.73,0-5.42,0-8.17,0c0-11.18,0-22.34,0-33.57c2.7,0,5.39,0,8.15,0
		c0,4.16,0,8.31,0,12.54c4.14,0,8.21,0,12.38,0C137.77,77,137.77,72.85,137.77,68.59z"/>
	<path class="st1" d="M178.88,68.62c0,0.46,0,0.86,0,1.25c0,6.96,0.03,13.93-0.01,20.89c-0.04,6.56-4.41,11.45-11.58,11.75
		c-2.91,0.12-5.83,0.29-8.71-0.59c-4.82-1.47-7.97-5.46-8-10.5c-0.04-7.57-0.01-15.15-0.01-22.79c2.67,0,5.3,0,8.09,0
		c0,0.31,0,0.65,0,0.99c0,6.35-0.01,12.69,0.03,19.04c0.01,1.15,0.14,2.32,0.4,3.44c0.47,2.09,2.51,3.63,4.66,3.69
		c1.68,0.05,3.32,0.02,4.79-1c1.84-1.28,2.24-3.21,2.26-5.23c0.05-6.6,0.02-13.2,0.02-19.8c0-0.36,0-0.71,0-1.15
		C173.5,68.62,176.13,68.62,178.88,68.62z"/>
	<path class="st2" d="M88.71,20.69c-0.69,0-1.26,0-2.07,0c3.21-4.59,7.22-7.83,12.38-9.61c0.08,0.14,0.14,0.2,0.13,0.24
		c-0.65,2.1-0.65,2.1,1.29,3.05c2.32,1.15,4.63,2.31,6.96,3.44c0.55,0.26,0.79,0.56,0.77,1.2c-0.05,1.92,0,3.84-0.04,5.76
		c-0.01,0.33-0.2,0.77-0.45,0.97c-2.8,2.22-5.63,4.42-8.48,6.58c-0.3,0.23-0.81,0.35-1.18,0.28c-2.29-0.45-4.57-0.93-6.83-1.5
		c-0.35-0.09-0.75-0.64-0.82-1.03C89.77,26.97,89.26,23.85,88.71,20.69z"/>
	<path class="st2" d="M132.73,21.64c-2.61-0.39-2.63-0.39-3.16,2.12c-0.47,2.22-0.89,4.44-1.3,6.67c-0.11,0.6-0.27,0.87-0.98,0.99
		c-1.98,0.32-3.94,0.8-5.89,1.24c-0.64,0.14-1.11,0.05-1.66-0.38c-2.81-2.21-5.67-4.36-8.49-6.56c-0.25-0.2-0.45-0.63-0.45-0.96
		c-0.04-1.92-0.05-3.84,0.01-5.76c0.01-0.33,0.29-0.8,0.58-0.95c2.5-1.31,5.01-2.63,7.58-3.81c1.06-0.49,1.44-1.02,0.97-2.1
		c-0.11-0.26-0.14-0.55-0.21-0.83C123.21,12.08,128.92,15.77,132.73,21.64z"/>
	<path class="st2" d="M97.11,52.67c-2.71-0.5-5.39-1-8.08-1.5c-0.94-0.17-1.56,0.1-1.57,1.38c-2.77-3.61-4.49-7.43-5.28-11.99
		c1.26,1.07,1.82,0.34,2.44-0.5c1.64-2.23,3.34-4.43,5.03-6.66c2.49,0.56,5.01,1.1,7.52,1.69c0.28,0.07,0.64,0.34,0.72,0.6
		c1.13,3.47,2.24,6.95,3.31,10.44c0.1,0.32,0.07,0.8-0.11,1.06C99.79,49.04,98.44,50.86,97.11,52.67z"/>
	<path class="st2" d="M119.94,54.01c-1.56,2.45-3.11,4.88-4.69,7.37c0.35,0.39,0.71,0.78,1.07,1.18c-1.82,0.97-8.21,1.51-13.37,0.29
		c-0.01-0.07-0.05-0.18-0.01-0.2c1.15-1,0.71-1.9-0.04-2.94c-1.18-1.63-2.25-3.35-3.29-5.07c-0.18-0.3-0.18-0.91,0.02-1.19
		c1.21-1.74,2.48-3.44,3.76-5.13c0.16-0.21,0.53-0.36,0.8-0.37c3.66-0.02,7.32-0.02,10.99,0c0.25,0,0.6,0.12,0.73,0.31
		C117.26,50.15,118.59,52.08,119.94,54.01z"/>
	<path class="st2" d="M136.08,40.66c-0.78,4.46-2.41,8.24-5.19,11.94c0.01-1.6-0.7-1.49-1.63-1.3c-2.25,0.46-4.52,0.81-6.79,1.18
		c-0.24,0.04-0.63-0.08-0.77-0.26c-1.27-1.69-2.52-3.4-3.72-5.13c-0.19-0.28-0.31-0.75-0.22-1.06c1.04-3.38,2.12-6.76,3.24-10.12
		c0.11-0.34,0.56-0.72,0.92-0.8c1.95-0.46,3.94-0.79,5.89-1.25c0.83-0.2,1.26,0.01,1.74,0.71c1.36,1.99,2.85,3.9,4.27,5.85
		C134.41,41.21,135.05,41.55,136.08,40.66z"/>
	<path class="st0" d="M191.14,88.4c2.85,0,5.66-0.1,8.47,0.04c1.77,0.09,3.02,1.8,2.94,3.57c-0.11,2.32-1.36,3.69-3.62,3.76
		c-2.57,0.08-5.14,0.02-7.78,0.02C191.14,93.31,191.14,90.83,191.14,88.4z"/>
	<path class="st0" d="M191.12,82.07c0-2.48,0-4.83,0-7.35c2.54,0.12,5.04,0.1,7.5,0.38c2.67,0.3,3.16,3.15,2.23,5.18
		c-0.54,1.18-1.56,1.72-2.74,1.77C195.8,82.14,193.49,82.07,191.12,82.07z"/>
</g>
</svg>
