<?xml version="1.0" encoding="utf-8"?>
<!-- Generator: Adobe Illustrator 25.2.1, SVG Export Plug-In . SVG Version: 6.00 Build 0)  -->
<svg version="1.1" xmlns="http://www.w3.org/2000/svg" xmlns:xlink="http://www.w3.org/1999/xlink" x="0px" y="0px"
	 viewBox="0 0 220 115.7" style="enable-background:new 0 0 220 115.7;" xml:space="preserve">
<style type="text/css">
	.st0{display:none;}
	.st1{display:inline;}
	.st2{fill:#FD9A28;}
	.st3{fill:#141515;}
	.st4{fill:#FEFEFE;}
	.st5{display:none;fill:#FD9A28;}
	.st6{fill:#FFFFFF;}
</style>
<g id="Calque_1" class="st0">
	<g class="st1">
		<path class="st2" d="M131.7,58.1c25.3,0,50.6,0,75.8,0c2.2,0,4.3,0.7,6,2c2,1.6,3.2,3.7,3.2,6.3c0.1,12,0.1,23.9,0,35.9
			c0,4.5-3.8,8.5-8.2,8.7c-6.4,0.2-12.8,0.2-19.1,0.2c-23.8,0-47.6,0-71.5,0c-3,0-5.7-0.8-7.9-3c-1.7-1.7-2.5-3.8-2.5-6.2
			c0-11.5,0-23,0-34.5c0.6,0.1,1.1,0.2,1.7,0.2c1.6-0.1,3.3-0.2,4.9-0.4c3.9-0.6,7.6-1.7,10.9-3.9C127.3,61.8,129.4,59.9,131.7,58.1
			z M183.3,68.6c0,11.3,0,22.5,0,33.7c5.2,0,10.4,0.1,15.5,0c2.2,0,4.4-0.5,6.4-1.5c3.6-1.9,5.6-6,4.6-9.9c-0.7-2.9-2.5-4.8-5.3-5.9
			c5.1-3.2,6.1-8.4,2.4-12.9c-1.8-2.1-4.2-3.1-6.9-3.3c-2.1-0.1-4.3-0.1-6.4-0.1C190.2,68.6,186.8,68.6,183.3,68.6z M137.8,68.6
			c0,4.3,0,8.4,0,12.6c-4.2,0-8.2,0-12.4,0c0-4.2,0-8.4,0-12.5c-2.8,0-5.4,0-8.2,0c0,11.2,0,22.4,0,33.6c2.7,0,5.4,0,8.2,0
			c0-4.4,0-8.8,0-13.1c4.1,0,8.3,0,12.4,0c0,4.4,0,8.8,0,13.1c2.8,0,5.6,0,8.4,0c0-11.2,0-22.4,0-33.6
			C143.4,68.6,140.7,68.6,137.8,68.6z M178.9,68.6c-2.8,0-5.4,0-8.1,0c0,0.4,0,0.8,0,1.2c0,6.6,0,13.2,0,19.8c0,2-0.4,3.9-2.3,5.2
			c-1.5,1-3.1,1-4.8,1c-2.1-0.1-4.2-1.6-4.7-3.7c-0.2-1.1-0.4-2.3-0.4-3.4c0-6.3,0-12.7,0-19c0-0.3,0-0.7,0-1c-2.8,0-5.4,0-8.1,0
			c0,7.7,0,15.2,0,22.8c0,5,3.2,9,8,10.5c2.9,0.9,5.8,0.7,8.7,0.6c7.2-0.3,11.5-5.2,11.6-11.8c0-7,0-13.9,0-20.9
			C178.9,69.5,178.9,69.1,178.9,68.6z"/>
		<path class="st3" d="M131.7,58.1c-2.2,1.8-4.4,3.7-6.7,5.2c-3.3,2.2-7,3.3-10.9,3.9c-1.6,0.2-3.3,0.3-4.9,0.4
			c-0.6,0-1.1-0.1-1.7-0.2c-13.2-1.1-22.5-7.8-27.6-20c-2.1-4.9-2.3-10-1.8-15.3c0.4-4.2,1.6-8.3,3.7-11.9
			c3.2-5.7,7.8-9.9,13.8-12.7c3.3-1.5,6.8-2.4,10.4-2.7c6.1-0.5,12.1,0.1,17.7,2.8c8.4,4.1,13.8,10.7,16.2,19.7
			c1.1,4.4,1.1,8.9,0.5,13.4c-0.8,5.1-2.6,9.8-5.7,13.9C133.6,56,132.6,57,131.7,58.1z M88.7,20.7c0.5,3.2,1.1,6.3,1.6,9.4
			c0.1,0.4,0.5,0.9,0.8,1c2.3,0.6,4.5,1.1,6.8,1.5c0.4,0.1,0.9,0,1.2-0.3c2.8-2.2,5.7-4.4,8.5-6.6c0.2-0.2,0.4-0.6,0.4-1
			c0-1.9,0-3.8,0-5.8c0-0.6-0.2-0.9-0.8-1.2c-2.3-1.1-4.6-2.3-7-3.4c-1.9-1-1.9-0.9-1.3-3.1c0,0-0.1-0.1-0.1-0.2
			c-5.2,1.8-9.2,5-12.4,9.6C87.4,20.7,88,20.7,88.7,20.7z M132.7,21.6c-3.8-5.9-9.5-9.6-13-10.3c0.1,0.3,0.1,0.6,0.2,0.8
			c0.5,1.1,0.1,1.6-1,2.1c-2.6,1.2-5.1,2.5-7.6,3.8c-0.3,0.1-0.6,0.6-0.6,1c-0.1,1.9-0.1,3.8,0,5.8c0,0.3,0.2,0.8,0.4,1
			c2.8,2.2,5.7,4.4,8.5,6.6c0.6,0.4,1,0.5,1.7,0.4c2-0.4,3.9-0.9,5.9-1.2c0.7-0.1,0.9-0.4,1-1c0.4-2.2,0.8-4.5,1.3-6.7
			C130.1,21.2,130.1,21.2,132.7,21.6z M97.1,52.7c1.3-1.8,2.7-3.6,4-5.5c0.2-0.3,0.2-0.7,0.1-1.1c-1.1-3.5-2.2-7-3.3-10.4
			c-0.1-0.3-0.4-0.5-0.7-0.6c-2.5-0.6-5-1.1-7.5-1.7c-1.7,2.2-3.4,4.4-5,6.7c-0.6,0.8-1.2,1.6-2.4,0.5c0.8,4.6,2.5,8.4,5.3,12
			c0-1.3,0.6-1.5,1.6-1.4C91.7,51.7,94.4,52.2,97.1,52.7z M119.9,54c-1.3-1.9-2.7-3.9-4-5.8c-0.1-0.2-0.5-0.3-0.7-0.3
			c-3.7,0-7.3,0-11,0c-0.3,0-0.6,0.2-0.8,0.4c-1.3,1.7-2.6,3.4-3.8,5.1c-0.2,0.3-0.2,0.9,0,1.2c1.1,1.7,2.1,3.4,3.3,5.1
			c0.8,1,1.2,1.9,0,2.9c0,0,0,0.1,0,0.2c5.2,1.2,11.6,0.7,13.4-0.3c-0.4-0.4-0.7-0.8-1.1-1.2C116.8,58.9,118.4,56.5,119.9,54z
			 M136.1,40.7c-1,0.9-1.7,0.5-2.2-0.2c-1.4-2-2.9-3.9-4.3-5.8c-0.5-0.7-0.9-0.9-1.7-0.7c-1.9,0.5-3.9,0.8-5.9,1.2
			c-0.4,0.1-0.8,0.5-0.9,0.8c-1.1,3.4-2.2,6.7-3.2,10.1c-0.1,0.3,0,0.8,0.2,1.1c1.2,1.7,2.4,3.4,3.7,5.1c0.1,0.2,0.5,0.3,0.8,0.3
			c2.3-0.4,4.5-0.7,6.8-1.2c0.9-0.2,1.6-0.3,1.6,1.3C133.7,48.9,135.3,45.1,136.1,40.7z"/>
		<path class="st3" d="M176.4,9.5c0,14.1,0,28.2,0,42.4c-0.7,0-1.3,0-1.9,0c-2.8,0-5.6,0-8.4,0c-0.9,0-1.3-0.3-1.7-1
			c-4.1-7.4-8.2-14.9-12.3-22.3c-0.2-0.4-0.5-0.8-0.9-1.5c0,8.4,0,16.5,0,24.6c-3.4,0-6.8,0-10.2,0c0-14.1,0-28.2,0-42.4
			c3.6,0,7.2,0,10.8,0c0.3,0,0.7,0.5,0.9,0.8c4.3,8.1,8.6,16.3,12.8,24.4c0.1,0.2,0.2,0.4,0.4,0.8c0-8.8,0-17.4,0-26
			C169.5,9.5,172.9,9.5,176.4,9.5z"/>
		<path class="st3" d="M52.7,51.8c-3.6,0-7,0-10.5,0c0-14.1,0-28.2,0-42.4c1,0,1.9,0,2.8,0c5.2,0,10.3,0,15.5,0
			c2.9,0,5.7,0.6,8.3,1.9c4.4,2.2,6.4,6,6.6,10.8c0.2,4.1-0.7,7.9-3.9,10.8c-1.2,1-2.6,1.8-4,2.7c2.8,5.2,5.8,10.6,8.8,16.2
			c-1.2,0-2.2,0-3.2,0c-2.5,0-5,0-7.5,0c-0.6,0-1-0.1-1.3-0.7c-2.3-4.6-4.7-9.1-7-13.7c-0.2-0.5-0.5-0.7-1-0.7c-1.2,0.1-2.4,0-3.7,0
			C52.7,41.8,52.7,46.7,52.7,51.8z M52.7,28.3c2.9,0,5.7,0.2,8.5-0.1c2.5-0.2,3.8-2.2,3.9-4.8c0-2.5-1.5-4.8-3.8-5.1
			c-2.8-0.3-5.7-0.3-8.5-0.4c0,3.5,0,6.7,0,9.9C52.7,28.1,52.7,28.2,52.7,28.3z"/>
		<path class="st3" d="M219.4,30.8c-0.2,5.1-1.2,9.9-4.2,14.1c-3,4.2-7,6.7-12,7.5c-4.3,0.7-8.6,0.5-12.6-1.3
			c-5.2-2.3-8.6-6.4-10.1-11.8c-1.9-6.8-1.7-13.6,1.3-20c2.8-6,7.5-9.4,14.1-10.3c5-0.7,9.8,0,14.1,2.7c4.8,3,7.4,7.5,8.6,12.9
			C218.9,26.6,219.1,28.7,219.4,30.8z M208.9,30.9c-0.1-3.1-0.4-6.1-2-8.8c-1.6-2.8-3.9-4.4-7.1-4.6c-4-0.2-7.3,2-8.7,6
			c-1.7,4.7-1.6,9.4-0.2,14.1c0.7,2.4,2.1,4.4,4.5,5.5c3.8,1.7,8.7,0.9,11.3-3.1C208.4,37.1,208.9,34,208.9,30.9z"/>
		<path class="st3" d="M15.9,51.8c-3.6,0-7,0-10.5,0c0-14.1,0-28.2,0-42.3c0.2,0,0.4-0.1,0.7-0.1c5.6,0,11.2,0,16.9,0
			c3.5,0,6.9,0.7,9.9,2.7c3.3,2.2,5,5.4,5.5,9.4c0.3,2.5,0.2,5-0.6,7.5c-1.2,4.1-4.3,6.4-8,7.9c-3.2,1.3-6.6,1.2-10,1.2
			c-1.2,0-2.5,0-3.7,0C15.9,42.7,15.9,47.2,15.9,51.8z M16,18.3c0,3.7,0,7.4,0,11.2c1.9,0,3.6,0,5.4,0c0.6,0,1.3,0,2-0.1
			C26.1,29,28,27,28,23.8c0-2.8-0.9-5.1-4.1-5.5C21.3,18,18.7,18.3,16,18.3z"/>
		<path class="st3" d="M183.3,68.6c3.5,0,6.9,0,10.4,0c2.1,0,4.3-0.1,6.4,0.1c2.7,0.2,5.1,1.1,6.9,3.3c3.7,4.6,2.8,9.7-2.4,12.9
			c2.8,1.1,4.6,3,5.3,5.9c0.9,4-1.1,8.1-4.6,9.9c-2.1,1.1-4.2,1.5-6.4,1.5c-5.1,0.1-10.3,0-15.5,0C183.3,91.1,183.3,79.9,183.3,68.6
			z M191.1,88.4c0,2.4,0,4.9,0,7.4c2.6,0,5.2,0.1,7.8,0c2.3-0.1,3.5-1.4,3.6-3.8c0.1-1.8-1.2-3.5-2.9-3.6
			C196.8,88.3,194,88.4,191.1,88.4z M191.1,82.1c2.4,0,4.7,0.1,7,0c1.2-0.1,2.2-0.6,2.7-1.8c0.9-2,0.4-4.9-2.2-5.2
			c-2.5-0.3-5-0.3-7.5-0.4C191.1,77.2,191.1,79.6,191.1,82.1z"/>
		<path class="st3" d="M137.8,68.6c2.9,0,5.6,0,8.5,0c0,11.2,0,22.4,0,33.6c-2.8,0-5.6,0-8.4,0c0-4.4,0-8.7,0-13.1
			c-4.2,0-8.3,0-12.4,0c0,4.4,0,8.7,0,13.1c-2.7,0-5.4,0-8.2,0c0-11.2,0-22.3,0-33.6c2.7,0,5.4,0,8.2,0c0,4.2,0,8.3,0,12.5
			c4.1,0,8.2,0,12.4,0C137.8,77,137.8,72.8,137.8,68.6z"/>
		<path class="st3" d="M178.9,68.6c0,0.5,0,0.9,0,1.2c0,7,0,13.9,0,20.9c0,6.6-4.4,11.4-11.6,11.8c-2.9,0.1-5.8,0.3-8.7-0.6
			c-4.8-1.5-8-5.5-8-10.5c0-7.6,0-15.2,0-22.8c2.7,0,5.3,0,8.1,0c0,0.3,0,0.7,0,1c0,6.3,0,12.7,0,19c0,1.2,0.1,2.3,0.4,3.4
			c0.5,2.1,2.5,3.6,4.7,3.7c1.7,0.1,3.3,0,4.8-1c1.8-1.3,2.2-3.2,2.3-5.2c0.1-6.6,0-13.2,0-19.8c0-0.4,0-0.7,0-1.2
			C173.5,68.6,176.1,68.6,178.9,68.6z"/>
		<path class="st4" d="M88.7,20.7c-0.7,0-1.3,0-2.1,0c3.2-4.6,7.2-7.8,12.4-9.6c0.1,0.1,0.1,0.2,0.1,0.2c-0.7,2.1-0.7,2.1,1.3,3.1
			c2.3,1.1,4.6,2.3,7,3.4c0.6,0.3,0.8,0.6,0.8,1.2c-0.1,1.9,0,3.8,0,5.8c0,0.3-0.2,0.8-0.4,1c-2.8,2.2-5.6,4.4-8.5,6.6
			c-0.3,0.2-0.8,0.3-1.2,0.3c-2.3-0.5-4.6-0.9-6.8-1.5c-0.3-0.1-0.8-0.6-0.8-1C89.8,27,89.3,23.9,88.7,20.7z"/>
		<path class="st4" d="M132.7,21.6c-2.6-0.4-2.6-0.4-3.2,2.1c-0.5,2.2-0.9,4.4-1.3,6.7c-0.1,0.6-0.3,0.9-1,1c-2,0.3-3.9,0.8-5.9,1.2
			c-0.6,0.1-1.1,0-1.7-0.4c-2.8-2.2-5.7-4.4-8.5-6.6c-0.2-0.2-0.4-0.6-0.4-1c0-1.9-0.1-3.8,0-5.8c0-0.3,0.3-0.8,0.6-1
			c2.5-1.3,5-2.6,7.6-3.8c1.1-0.5,1.4-1,1-2.1c-0.1-0.3-0.1-0.6-0.2-0.8C123.2,12.1,128.9,15.8,132.7,21.6z"/>
		<path class="st4" d="M97.1,52.7c-2.7-0.5-5.4-1-8.1-1.5c-0.9-0.2-1.6,0.1-1.6,1.4c-2.8-3.6-4.5-7.4-5.3-12
			c1.3,1.1,1.8,0.3,2.4-0.5c1.6-2.2,3.3-4.4,5-6.7c2.5,0.6,5,1.1,7.5,1.7c0.3,0.1,0.6,0.3,0.7,0.6c1.1,3.5,2.2,7,3.3,10.4
			c0.1,0.3,0.1,0.8-0.1,1.1C99.8,49,98.4,50.9,97.1,52.7z"/>
		<path class="st4" d="M119.9,54c-1.6,2.5-3.1,4.9-4.7,7.4c0.3,0.4,0.7,0.8,1.1,1.2c-1.8,1-8.2,1.5-13.4,0.3c0-0.1-0.1-0.2,0-0.2
			c1.2-1,0.7-1.9,0-2.9c-1.2-1.6-2.2-3.3-3.3-5.1c-0.2-0.3-0.2-0.9,0-1.2c1.2-1.7,2.5-3.4,3.8-5.1c0.2-0.2,0.5-0.4,0.8-0.4
			c3.7,0,7.3,0,11,0c0.2,0,0.6,0.1,0.7,0.3C117.3,50.2,118.6,52.1,119.9,54z"/>
		<path class="st4" d="M136.1,40.7c-0.8,4.5-2.4,8.2-5.2,11.9c0-1.6-0.7-1.5-1.6-1.3c-2.2,0.5-4.5,0.8-6.8,1.2
			c-0.2,0-0.6-0.1-0.8-0.3c-1.3-1.7-2.5-3.4-3.7-5.1c-0.2-0.3-0.3-0.8-0.2-1.1c1-3.4,2.1-6.8,3.2-10.1c0.1-0.3,0.6-0.7,0.9-0.8
			c1.9-0.5,3.9-0.8,5.9-1.2c0.8-0.2,1.3,0,1.7,0.7c1.4,2,2.9,3.9,4.3,5.8C134.4,41.2,135.1,41.5,136.1,40.7z"/>
		<path class="st2" d="M191.1,88.4c2.9,0,5.7-0.1,8.5,0c1.8,0.1,3,1.8,2.9,3.6c-0.1,2.3-1.4,3.7-3.6,3.8c-2.6,0.1-5.1,0-7.8,0
			C191.1,93.3,191.1,90.8,191.1,88.4z"/>
		<path class="st2" d="M191.1,82.1c0-2.5,0-4.8,0-7.3c2.5,0.1,5,0.1,7.5,0.4c2.7,0.3,3.2,3.2,2.2,5.2c-0.5,1.2-1.6,1.7-2.7,1.8
			C195.8,82.1,193.5,82.1,191.1,82.1z"/>
	</g>
</g>
<g id="Calque_2">
	<g>
		<path class="st5" d="M129.3,53c25.3,0,50.6,0,75.8,0c2.2,0,4.3,0.7,6,2c2,1.6,3.2,3.7,3.2,6.3c0.1,12,0.1,23.9,0,35.9
			c0,4.5-3.8,8.5-8.2,8.7c-6.4,0.2-12.8,0.2-19.1,0.2c-23.8,0-47.6,0-71.5,0c-3,0-5.7-0.8-7.9-3c-1.7-1.7-2.5-3.8-2.5-6.2
			c0-11.5,0-23,0-34.5c0.6,0.1,1.1,0.2,1.7,0.2c1.6-0.1,3.3-0.2,4.9-0.4c3.9-0.6,7.6-1.7,10.9-3.9C124.9,56.6,127.1,54.7,129.3,53z
			 M180.9,63.4c0,11.3,0,22.5,0,33.7c5.2,0,10.4,0.1,15.5,0c2.2,0,4.4-0.5,6.4-1.5c3.6-1.9,5.6-6,4.6-9.9c-0.7-2.9-2.5-4.8-5.3-5.9
			c5.1-3.2,6.1-8.4,2.4-12.9c-1.8-2.1-4.2-3.1-6.9-3.3c-2.1-0.1-4.3-0.1-6.4-0.1C187.9,63.4,184.4,63.4,180.9,63.4z M135.4,63.4
			c0,4.3,0,8.4,0,12.6c-4.2,0-8.2,0-12.4,0c0-4.2,0-8.4,0-12.5c-2.8,0-5.4,0-8.2,0c0,11.2,0,22.4,0,33.6c2.7,0,5.4,0,8.2,0
			c0-4.4,0-8.8,0-13.1c4.1,0,8.3,0,12.4,0c0,4.4,0,8.8,0,13.1c2.8,0,5.6,0,8.4,0c0-11.2,0-22.4,0-33.6
			C141,63.4,138.3,63.4,135.4,63.4z M176.5,63.4c-2.8,0-5.4,0-8.1,0c0,0.4,0,0.8,0,1.1c0,6.6,0,13.2,0,19.8c0,2-0.4,3.9-2.3,5.2
			c-1.5,1-3.1,1-4.8,1c-2.1-0.1-4.2-1.6-4.7-3.7c-0.2-1.1-0.4-2.3-0.4-3.4c0-6.3,0-12.7,0-19c0-0.3,0-0.7,0-1c-2.8,0-5.4,0-8.1,0
			c0,7.6,0,15.2,0,22.8c0,5,3.2,9,8,10.5c2.9,0.9,5.8,0.7,8.7,0.6c7.2-0.3,11.5-5.2,11.6-11.8c0-7,0-13.9,0-20.9
			C176.5,64.3,176.5,63.9,176.5,63.4z"/>
		<path class="st5" d="M209.1,60.2h-84.2c-5.2,3.3-11.4,5.1-18,5.1s-12.8-1.9-18-5.1H7.7c-2.6,0-4.7,2.1-4.7,4.7v40.4
			c0,2.6,2.1,4.7,4.7,4.7h201.4c2.6,0,4.7-2.1,4.7-4.7V64.9C213.8,62.3,211.7,60.2,209.1,60.2z"/>
		<path class="st2" d="M163.9,59.2h-37.5c-5.4,3.7-12,5.9-19.1,5.9s-13.7-2.2-19.1-5.9H56.1c-1.4,0-2.5,2.1-2.5,4.7v40.4
			c0,2.6,1.1,4.7,2.5,4.7h107.8c1.4,0,2.5-2.1,2.5-4.7V63.9C166.4,61.3,165.3,59.2,163.9,59.2z"/>
		<path class="st3" d="M127.7,51.4c-2.1,1.6-4.1,3.4-6.3,4.8c-3,2-6.5,3.1-10.1,3.6c-1.5,0.2-3,0.3-4.6,0.4c-0.5,0-1-0.1-1.6-0.1
			c-12.3-1-20.9-7.3-25.7-18.6c-1.9-4.5-2.2-9.4-1.7-14.2c0.4-4,1.5-7.7,3.4-11.1c3-5.3,7.3-9.2,12.8-11.8c3.1-1.4,6.3-2.2,9.7-2.5
			c5.7-0.5,11.3,0.1,16.5,2.6c7.8,3.8,12.9,9.9,15.1,18.3c1.1,4.1,1.1,8.3,0.4,12.5c-0.7,4.8-2.4,9.1-5.3,12.9
			C129.6,49.5,128.6,50.4,127.7,51.4z M87.8,16.6c0.5,3,1,5.8,1.5,8.7c0.1,0.4,0.4,0.9,0.8,1c2.1,0.5,4.2,1,6.4,1.4
			c0.3,0.1,0.8,0,1.1-0.3c2.7-2,5.3-4.1,7.9-6.1c0.2-0.2,0.4-0.6,0.4-0.9c0-1.8,0-3.6,0-5.4c0-0.6-0.2-0.9-0.7-1.1
			c-2.2-1-4.3-2.1-6.5-3.2c-1.8-0.9-1.8-0.9-1.2-2.8c0,0,0-0.1-0.1-0.2c-4.8,1.7-8.5,4.7-11.5,8.9C86.6,16.6,87.1,16.6,87.8,16.6z
			 M128.7,17.5c-3.5-5.5-8.9-8.9-12.1-9.6c0.1,0.3,0.1,0.5,0.2,0.8c0.4,1,0.1,1.5-0.9,2c-2.4,1.1-4.7,2.3-7.1,3.5
			c-0.3,0.1-0.5,0.6-0.5,0.9c-0.1,1.8,0,3.6,0,5.4c0,0.3,0.2,0.7,0.4,0.9c2.6,2,5.3,4,7.9,6.1c0.5,0.4,0.9,0.5,1.5,0.4
			c1.8-0.4,3.6-0.9,5.5-1.2c0.7-0.1,0.8-0.4,0.9-0.9c0.4-2.1,0.8-4.1,1.2-6.2C126.3,17.1,126.3,17.1,128.7,17.5z M95.6,46.3
			c1.2-1.7,2.5-3.4,3.7-5.1c0.2-0.2,0.2-0.7,0.1-1c-1-3.2-2-6.5-3.1-9.7c-0.1-0.2-0.4-0.5-0.7-0.6c-2.3-0.5-4.7-1.1-7-1.6
			c-1.6,2.1-3.2,4.1-4.7,6.2c-0.6,0.8-1.1,1.5-2.3,0.5c0.7,4.2,2.3,7.8,4.9,11.2c0-1.2,0.6-1.4,1.5-1.3C90.6,45.4,93,45.9,95.6,46.3
			z M116.8,47.6c-1.3-1.8-2.5-3.6-3.8-5.4c-0.1-0.2-0.4-0.3-0.7-0.3c-3.4,0-6.8,0-10.2,0c-0.3,0-0.6,0.1-0.7,0.3
			c-1.2,1.6-2.4,3.2-3.5,4.8c-0.2,0.3-0.2,0.8,0,1.1c1,1.6,2,3.2,3.1,4.7c0.7,1,1.1,1.8,0,2.7c0,0,0,0.1,0,0.2
			c4.8,1.1,10.8,0.6,12.4-0.3c-0.3-0.4-0.7-0.7-1-1.1C113.9,52.1,115.4,49.9,116.8,47.6z M131.9,35.2c-1,0.8-1.6,0.5-2.1-0.2
			c-1.3-1.8-2.7-3.6-4-5.4c-0.4-0.7-0.8-0.8-1.6-0.7c-1.8,0.4-3.7,0.7-5.5,1.2c-0.3,0.1-0.8,0.4-0.9,0.7c-1,3.1-2,6.3-3,9.4
			c-0.1,0.3,0,0.7,0.2,1c1.1,1.6,2.3,3.2,3.5,4.8c0.1,0.2,0.5,0.3,0.7,0.2c2.1-0.3,4.2-0.7,6.3-1.1c0.9-0.2,1.5-0.3,1.5,1.2
			C129.6,42.8,131.1,39.3,131.9,35.2z"/>
		<path class="st6" d="M174,4.3c0,14.1,0,28.2,0,42.4c-0.7,0-1.3,0-1.9,0c-2.8,0-5.6,0-8.4,0c-0.9,0-1.3-0.3-1.7-1
			c-4.1-7.4-8.2-14.9-12.3-22.3c-0.2-0.4-0.5-0.8-0.9-1.5c0,8.4,0,16.5,0,24.6c-3.4,0-6.8,0-10.2,0c0-14.1,0-28.2,0-42.4
			c3.6,0,7.2,0,10.8,0c0.3,0,0.7,0.5,0.9,0.8c4.3,8.1,8.6,16.3,12.8,24.4c0.1,0.2,0.2,0.4,0.4,0.8c0-8.8,0-17.4,0-26
			C167.1,4.3,170.5,4.3,174,4.3z"/>
		<path class="st6" d="M50.4,46.6c-3.6,0-7,0-10.5,0c0-14.1,0-28.2,0-42.4c1,0,1.9,0,2.8,0c5.2,0,10.3,0,15.5,0
			c2.9,0,5.7,0.6,8.3,1.9c4.4,2.2,6.4,6,6.6,10.8c0.2,4.1-0.7,7.9-3.9,10.8c-1.2,1-2.6,1.8-4,2.7c2.8,5.2,5.8,10.6,8.8,16.2
			c-1.2,0-2.2,0-3.2,0c-2.5,0-5,0-7.5,0c-0.6,0-1-0.1-1.3-0.7c-2.3-4.6-4.7-9.1-7-13.7c-0.2-0.5-0.5-0.7-1-0.7c-1.2,0.1-2.4,0-3.7,0
			C50.4,36.6,50.4,41.5,50.4,46.6z M50.3,23.1c2.9,0,5.7,0.2,8.5-0.1c2.5-0.2,3.8-2.2,3.9-4.8c0-2.5-1.5-4.8-3.8-5.1
			c-2.8-0.3-5.7-0.3-8.5-0.4c0,3.5,0,6.7,0,9.9C50.3,22.9,50.3,23.1,50.3,23.1z"/>
		<path class="st6" d="M217,25.6c-0.2,5.1-1.2,9.9-4.2,14.1c-3,4.2-7,6.7-12,7.5c-4.3,0.7-8.6,0.5-12.6-1.3
			c-5.2-2.3-8.6-6.4-10.1-11.8c-1.9-6.8-1.7-13.6,1.3-20c2.8-6,7.5-9.4,14.1-10.3c5-0.7,9.8,0,14.1,2.7c4.8,3,7.4,7.5,8.6,12.9
			C216.5,21.4,216.7,23.5,217,25.6z M206.5,25.7c-0.1-3.1-0.4-6.1-2-8.8c-1.6-2.8-3.9-4.4-7.1-4.6c-4-0.2-7.3,2-8.7,6
			c-1.7,4.7-1.6,9.4-0.2,14.1c0.7,2.4,2.1,4.4,4.5,5.5c3.8,1.7,8.7,0.9,11.3-3.1C206,31.9,206.5,28.9,206.5,25.7z"/>
		<path class="st6" d="M13.6,46.6c-3.6,0-7,0-10.5,0C3,32.5,3,18.5,3,4.3c0.2,0,0.4-0.1,0.7-0.1c5.6,0,11.2,0,16.9,0
			c3.5,0,6.9,0.7,9.9,2.7c3.3,2.2,5,5.4,5.5,9.4c0.3,2.5,0.2,5-0.6,7.5c-1.2,4.1-4.3,6.4-8,7.9c-3.2,1.3-6.6,1.2-10,1.2
			c-1.2,0-2.5,0-3.7,0C13.6,37.5,13.6,42,13.6,46.6z M13.6,13.1c0,3.7,0,7.4,0,11.2c1.9,0,3.6,0,5.4,0c0.6,0,1.3,0,2-0.1
			c2.8-0.4,4.6-2.4,4.6-5.6c0-2.8-0.9-5.1-4.1-5.5C18.9,12.9,16.3,13.1,13.6,13.1z"/>
		<path class="st3" d="M128.8,69.4c3.3,0,6.5,0,9.7,0c2,0,4-0.1,6,0c2.5,0.2,4.8,1.1,6.5,3.1c3.5,4.3,2.6,9.1-2.2,12.2
			c2.6,1,4.3,2.8,5,5.6c0.9,3.7-1,7.6-4.4,9.3c-1.9,1-3.9,1.4-6,1.4c-4.8,0.1-9.7,0-14.6,0C128.8,90.5,128.8,80,128.8,69.4z
			 M136.1,88c0,2.3,0,4.6,0,6.9c2.5,0,4.9,0.1,7.3,0c2.1-0.1,3.3-1.4,3.4-3.5c0.1-1.7-1.1-3.3-2.8-3.4C141.4,87.9,138.8,88,136.1,88
			z M136.1,82.1c2.2,0,4.4,0.1,6.6,0c1.1,0,2.1-0.6,2.6-1.7c0.9-1.9,0.4-4.6-2.1-4.9c-2.3-0.3-4.7-0.2-7-0.4
			C136.1,77.6,136.1,79.8,136.1,82.1z"/>
		<path class="st3" d="M86,69.4c2.7,0,5.3,0,8,0c0,10.5,0,21.1,0,31.6c-2.6,0-5.2,0-7.9,0c0-4.1,0-8.2,0-12.4c-3.9,0-7.8,0-11.7,0
			c0,4.1,0,8.2,0,12.3c-2.6,0-5.1,0-7.7,0c0-10.5,0-21,0-31.6c2.5,0,5.1,0,7.7,0c0,3.9,0,7.8,0,11.8c3.9,0,7.7,0,11.6,0
			C86,77.3,86,73.4,86,69.4z"/>
		<path class="st3" d="M124.6,69.4c0,0.4,0,0.8,0,1.2c0,6.5,0,13.1,0,19.6c0,6.2-4.1,10.8-10.9,11c-2.7,0.1-5.5,0.3-8.2-0.6
			c-4.5-1.4-7.5-5.1-7.5-9.9c0-7.1,0-14.2,0-21.4c2.5,0,5,0,7.6,0c0,0.3,0,0.6,0,0.9c0,6,0,11.9,0,17.9c0,1.1,0.1,2.2,0.4,3.2
			c0.4,2,2.4,3.4,4.4,3.5c1.6,0,3.1,0,4.5-0.9c1.7-1.2,2.1-3,2.1-4.9c0-6.2,0-12.4,0-18.6c0-0.3,0-0.7,0-1.1
			C119.5,69.4,122,69.4,124.6,69.4z"/>
		<path class="st4" d="M87.8,16.6c-0.6,0-1.2,0-1.9,0c3-4.3,6.7-7.3,11.5-8.9c0.1,0.1,0.1,0.2,0.1,0.2c-0.6,2-0.6,2,1.2,2.8
			c2.2,1.1,4.3,2.2,6.5,3.2c0.5,0.2,0.7,0.5,0.7,1.1c0,1.8,0,3.6,0,5.4c0,0.3-0.2,0.7-0.4,0.9c-2.6,2.1-5.2,4.1-7.9,6.1
			c-0.3,0.2-0.8,0.3-1.1,0.3c-2.1-0.4-4.3-0.9-6.4-1.4c-0.3-0.1-0.7-0.6-0.8-1C88.7,22.4,88.3,19.5,87.8,16.6z"/>
		<path class="st4" d="M128.7,17.5c-2.4-0.4-2.4-0.4-2.9,2c-0.4,2.1-0.8,4.1-1.2,6.2c-0.1,0.6-0.3,0.8-0.9,0.9
			c-1.8,0.3-3.7,0.7-5.5,1.2c-0.6,0.1-1,0-1.5-0.4c-2.6-2.1-5.3-4.1-7.9-6.1c-0.2-0.2-0.4-0.6-0.4-0.9c0-1.8,0-3.6,0-5.4
			c0-0.3,0.3-0.7,0.5-0.9c2.3-1.2,4.7-2.4,7.1-3.5c1-0.5,1.3-0.9,0.9-2c-0.1-0.2-0.1-0.5-0.2-0.8C119.9,8.6,125.2,12,128.7,17.5z"/>
		<path class="st4" d="M95.6,46.3c-2.5-0.5-5-0.9-7.5-1.4c-0.9-0.2-1.5,0.1-1.5,1.3c-2.6-3.4-4.2-6.9-4.9-11.2
			c1.2,1,1.7,0.3,2.3-0.5c1.5-2.1,3.1-4.1,4.7-6.2c2.3,0.5,4.7,1,7,1.6c0.3,0.1,0.6,0.3,0.7,0.6c1.1,3.2,2.1,6.5,3.1,9.7
			c0.1,0.3,0.1,0.7-0.1,1C98.1,43,96.8,44.7,95.6,46.3z"/>
		<path class="st4" d="M116.8,47.6c-1.5,2.3-2.9,4.5-4.4,6.9c0.3,0.4,0.7,0.7,1,1.1c-1.7,0.9-7.6,1.4-12.4,0.3c0-0.1,0-0.2,0-0.2
			c1.1-0.9,0.7-1.8,0-2.7c-1.1-1.5-2.1-3.1-3.1-4.7c-0.2-0.3-0.2-0.8,0-1.1c1.1-1.6,2.3-3.2,3.5-4.8c0.1-0.2,0.5-0.3,0.7-0.3
			c3.4,0,6.8,0,10.2,0c0.2,0,0.6,0.1,0.7,0.3C114.3,44,115.6,45.8,116.8,47.6z"/>
		<path class="st4" d="M131.9,35.2c-0.7,4.2-2.2,7.7-4.8,11.1c0-1.5-0.7-1.4-1.5-1.2c-2.1,0.4-4.2,0.8-6.3,1.1
			c-0.2,0-0.6-0.1-0.7-0.2c-1.2-1.6-2.3-3.2-3.5-4.8c-0.2-0.3-0.3-0.7-0.2-1c1-3.1,2-6.3,3-9.4c0.1-0.3,0.5-0.7,0.9-0.7
			c1.8-0.4,3.7-0.7,5.5-1.2c0.8-0.2,1.2,0,1.6,0.7c1.3,1.9,2.7,3.6,4,5.4C130.3,35.7,130.9,36,131.9,35.2z"/>
		<path class="st5" d="M188.8,83.2c2.9,0,5.7-0.1,8.5,0c1.8,0.1,3,1.8,2.9,3.6c-0.1,2.3-1.4,3.7-3.6,3.8c-2.6,0.1-5.1,0-7.8,0
			C188.8,88.1,188.8,85.6,188.8,83.2z"/>
		<path class="st5" d="M188.7,76.9c0-2.5,0-4.8,0-7.3c2.5,0.1,5,0.1,7.5,0.4c2.7,0.3,3.2,3.2,2.2,5.2c-0.5,1.2-1.6,1.7-2.7,1.8
			C193.4,77,191.1,76.9,188.7,76.9z"/>
	</g>
	<polygon class="st2" points="193,61.5 199.2,74.1 213,76.1 203,85.9 205.4,99.7 193,93.2 180.6,99.7 183,85.9 172.9,76.1 
		186.8,74.1 	"/>
	<polygon class="st2" points="26.8,61.5 33,74.1 46.9,76.1 36.9,85.9 39.2,99.7 26.8,93.2 14.4,99.7 16.8,85.9 6.8,76.1 20.6,74.1 	
		"/>
</g>
</svg>
