<?xml version="1.0" encoding="utf-8"?>
<!-- Generator: Adobe Illustrator 25.2.1, SVG Export Plug-In . SVG Version: 6.00 Build 0)  -->
<svg version="1.1" id="Calque_1" xmlns="http://www.w3.org/2000/svg" xmlns:xlink="http://www.w3.org/1999/xlink" x="0px" y="0px"
	 viewBox="0 0 220 214.79" style="enable-background:new 0 0 220 214.79;" xml:space="preserve">
<style type="text/css">
	.st0{fill:#FE7F04;}
	.st1{fill:#FCFCFC;}
</style>
<g>
	<path class="st0" d="M110.07,5.58c19.34,0,38.68-0.03,58.02,0.01c8.79,0.02,17.29,1.43,24.98,6.06
		c10.64,6.42,17.39,15.65,19.75,27.9c0.61,3.18,0.93,6.47,0.93,9.71c0.06,38.3,0.08,76.59,0.02,114.89
		c-0.02,10.43-3.22,19.8-10.13,27.77c-7.16,8.26-16.13,13.16-27.02,14.33c-3.44,0.37-6.91,0.57-10.36,0.58
		c-38.97,0.04-77.94,0.11-116.91-0.03c-12.49-0.04-23.37-4.47-31.92-13.81c-5.54-6.05-9-13.24-10.29-21.34
		c-0.58-3.63-0.87-7.35-0.88-11.02C6.2,123.05,6.14,85.48,6.27,47.91c0.04-11.27,4.01-21.16,11.97-29.32
		c6.82-7,15.08-11.22,24.76-12.27c5.63-0.61,11.33-0.67,17-0.7C76.7,5.53,93.38,5.59,110.07,5.58
		C110.07,5.59,110.07,5.58,110.07,5.58z M133.81,49.93c-7.05,0-13.98,0-20.98,0c0,37.54,0,75.04,0,112.53c7.04,0,14,0,21.05,0
		c0-15.52,0-30.94,0-46.42c8.4,0,16.71,0,25.17,0c0,15.52,0,30.97,0,46.43c7.11,0,14.07,0,21.04,0c0-37.56,0-75.02,0-112.5
		c-7.03,0-13.99,0-21.08,0c0,15.35,0,30.62,0,45.91c-8.45,0-16.76,0-25.2,0C133.81,80.52,133.81,65.25,133.81,49.93z M33.83,49.88
		c0,37.64,0,75.13,0,112.57c7.11,0,14.12,0,21.26,0c0-12.72,0-25.32,0-38.02c5.1,0,10.07,0.15,15.02-0.05
		c3.57-0.15,7.2-0.45,10.67-1.24c10.43-2.35,18.02-8.24,21.86-18.48c3.48-9.28,4.07-18.79,2.07-28.44
		c-1.35-6.51-4.18-12.36-8.92-17.13c-4.6-4.63-10.37-7.17-16.68-8.14c-4.96-0.76-10.04-0.95-15.07-1.02
		C54.02,49.78,43.99,49.88,33.83,49.88z"/>
	<path d="M133.81,49.93c0,15.32,0,30.59,0,45.95c8.44,0,16.75,0,25.2,0c0-15.29,0-30.56,0-45.91c7.09,0,14.05,0,21.08,0
		c0,37.48,0,74.94,0,112.5c-6.97,0-13.93,0-21.04,0c0-15.45,0-30.91,0-46.43c-8.46,0-16.77,0-25.17,0c0,15.48,0,30.9,0,46.42
		c-7.04,0-14,0-21.05,0c0-37.5,0-74.99,0-112.53C119.83,49.93,126.75,49.93,133.81,49.93z"/>
	<path d="M33.83,49.88c10.16,0,20.19-0.1,30.22,0.04c5.03,0.07,10.11,0.26,15.07,1.02c6.31,0.97,12.08,3.51,16.68,8.14
		c4.74,4.77,7.57,10.62,8.92,17.13c2,9.65,1.41,19.16-2.07,28.44c-3.84,10.25-11.43,16.13-21.86,18.48
		c-3.48,0.78-7.1,1.09-10.67,1.24c-4.95,0.2-9.92,0.05-15.02,0.05c0,12.7,0,25.3,0,38.02c-7.15,0-14.16,0-21.26,0
		C33.83,125.01,33.83,87.52,33.83,49.88z M88.28,77.13c-2.44-4.76-8.95-9.38-12.79-9.08c0.47,0.59,0.95,1.17,1.41,1.77
		c1.14,1.51,1.08,2-0.42,3.18c-1.13,0.89-2.26,1.79-3.45,2.59c-0.71,0.48-0.84,1.06-0.96,1.87c-0.36,2.4,0.46,4.04,2.59,5.12
		c0.55,0.28,1.07,0.66,1.5,1.1c0.91,0.93,1.82,0.87,3.06,0.59c1.94-0.44,3.04-1.41,3.39-3.33c0.06-0.32,0.19-0.63,0.3-0.94
		C84.25,76.31,84.51,76.17,88.28,77.13z M54.19,76.99c0.48-0.07,0.82-0.09,1.14-0.16c2.15-0.51,2.86-0.18,3.67,1.81
		c0.5,1.23,0.89,2.51,1.37,3.74c0.14,0.36,0.38,0.83,0.69,0.97c1.21,0.53,2.46,1.27,3.72,1.3c0.78,0.02,1.6-1.07,2.39-1.66
		c0.46-0.35,0.87-0.78,1.37-1.05c1.6-0.87,1.91-2.13,1.8-3.9c-0.1-1.49-0.66-2.36-1.78-3.13c-0.99-0.68-1.94-1.41-2.85-2.18
		c-0.89-0.75-1.07-1.66-0.32-2.65c0.51-0.68,1.02-1.36,1.71-2.28C61.3,68.99,57.25,72.16,54.19,76.99z M56.81,99.86
		c0.18-2.79,0.42-3.02,3.11-3.05c1.06-0.01,2.12,0.04,3.17-0.01c0.37-0.02,0.88-0.16,1.08-0.43c1.49-2.07,3.08-4.14,1.36-6.88
		c-0.35-0.55-0.59-1.21-0.72-1.85c-0.21-1.02-0.85-1.38-1.74-1.79c-1.83-0.85-3.32-0.61-4.69,0.81c-0.26,0.27-0.6,0.48-0.9,0.72
		c-2.84,2.21-2.84,2.21-5.45,0.06C51.8,91.6,54.18,97.9,56.81,99.86z M90.77,87.2c-2.51,2.33-2.67,2.34-5.21,0.51
		c-0.86-0.62-1.66-1.32-2.58-1.83c-0.52-0.29-1.21-0.37-1.82-0.36c-2.14,0.02-3.34,1.15-3.75,3.25c-0.14,0.74-0.45,1.46-0.8,2.13
		c-0.6,1.18-0.26,2.07,0.35,3.22c1.09,2.06,2.52,2.85,4.8,2.56c1-0.12,2.23-0.02,3.04,0.48c0.74,0.46,1.07,1.6,1.59,2.48
		C89.07,96.08,90.59,92.04,90.77,87.2z M78.51,105.49c-0.6-0.22-0.91-0.34-1.22-0.45c-1.91-0.66-2.19-1.2-1.56-3.07
		c0.36-1.08,0.67-2.18,1.15-3.21c0.43-0.93,0.08-1.55-0.31-2.38c-1.09-2.33-2.81-3.1-5.27-2.72c-0.89,0.14-1.83-0.04-2.74,0.05
		c-0.4,0.04-0.89,0.29-1.13,0.61c-1.6,2.08-2.46,4.27-0.83,6.77c0.15,0.23,0.21,0.53,0.3,0.8c0.71,2.03,0.35,2.75-1.73,3.37
		c-0.18,0.05-0.36,0.12-0.84,0.29C69.18,107.2,73.68,107.17,78.51,105.49z"/>
	<path class="st1" d="M88.28,77.13c-3.78-0.96-4.03-0.82-5.36,2.9c-0.11,0.31-0.24,0.62-0.3,0.94c-0.34,1.92-1.45,2.88-3.39,3.33
		c-1.24,0.28-2.15,0.34-3.06-0.59c-0.43-0.44-0.95-0.83-1.5-1.1c-2.13-1.08-2.96-2.73-2.59-5.12c0.12-0.82,0.25-1.39,0.96-1.87
		c1.19-0.81,2.32-1.7,3.45-2.59c1.5-1.18,1.56-1.67,0.42-3.18c-0.46-0.6-0.94-1.18-1.41-1.78C79.33,67.74,85.84,72.37,88.28,77.13z"
		/>
	<path class="st1" d="M54.19,76.99c3.06-4.83,7.1-8,12.91-9.19c-0.69,0.92-1.2,1.6-1.71,2.28c-0.74,0.99-0.56,1.9,0.32,2.65
		c0.91,0.77,1.86,1.5,2.85,2.18c1.12,0.77,1.68,1.64,1.78,3.13c0.12,1.78-0.19,3.04-1.8,3.9c-0.5,0.27-0.91,0.7-1.37,1.05
		c-0.79,0.6-1.61,1.69-2.39,1.66c-1.25-0.04-2.51-0.77-3.72-1.3c-0.32-0.14-0.55-0.6-0.69-0.97c-0.49-1.24-0.87-2.51-1.37-3.74
		c-0.82-2-1.53-2.32-3.67-1.81C55.01,76.9,54.68,76.92,54.19,76.99z"/>
	<path class="st1" d="M56.81,99.86c-2.63-1.96-5.01-8.27-4.78-12.44c2.61,2.15,2.61,2.15,5.45-0.06c0.3-0.24,0.64-0.44,0.9-0.72
		c1.37-1.42,2.86-1.65,4.69-0.81c0.89,0.41,1.53,0.78,1.74,1.79c0.13,0.64,0.38,1.3,0.72,1.85c1.72,2.74,0.13,4.81-1.36,6.88
		c-0.19,0.27-0.71,0.41-1.08,0.43c-1.06,0.05-2.12,0-3.17,0.01C57.22,96.84,56.98,97.08,56.81,99.86z"/>
	<path class="st1" d="M90.77,87.2c-0.17,4.84-1.7,8.88-4.37,12.44c-0.53-0.87-0.85-2.01-1.59-2.48c-0.81-0.5-2.04-0.61-3.04-0.48
		c-2.29,0.29-3.71-0.5-4.8-2.56c-0.61-1.15-0.95-2.04-0.35-3.22c0.34-0.68,0.65-1.4,0.8-2.13c0.41-2.09,1.61-3.23,3.75-3.25
		c0.61-0.01,1.31,0.07,1.82,0.36c0.91,0.51,1.72,1.21,2.58,1.83C88.1,89.54,88.26,89.53,90.77,87.2z"/>
	<path class="st1" d="M78.51,105.49c-4.83,1.68-9.32,1.71-14.18,0.06c0.48-0.17,0.66-0.24,0.84-0.29c2.08-0.62,2.45-1.33,1.73-3.37
		c-0.1-0.27-0.15-0.57-0.3-0.8c-1.63-2.49-0.77-4.69,0.83-6.77c0.24-0.31,0.73-0.57,1.13-0.61c0.91-0.09,1.85,0.09,2.74-0.05
		c2.45-0.38,4.18,0.39,5.27,2.72c0.39,0.83,0.74,1.45,0.31,2.38c-0.48,1.02-0.78,2.13-1.15,3.21c-0.63,1.87-0.36,2.41,1.56,3.07
		C77.59,105.16,77.9,105.27,78.51,105.49z"/>
</g>
</svg>
