<?xml version="1.0" encoding="utf-8"?>
<svg version="1.1" xmlns="http://www.w3.org/2000/svg" xmlns:xlink="http://www.w3.org/1999/xlink" x="0px" y="0px"
	 viewBox="0 0 512 512" style="enable-background:new 0 0 512 512;" xml:space="preserve">
<g>
	<path d="M256,0C114.6,0,0,114.6,0,256s114.6,256,256,256s256-114.6,256-256S397.4,0,256,0z M256,469.3
		c-117.8,0-213.3-95.5-213.3-213.3S138.2,42.7,256,42.7S469.3,138.2,469.3,256S373.8,469.3,256,469.3z"/>
	<path d="M355.9,156.1c-8.3-8.3-21.8-8.3-30.2,0L256,225.8l-69.7-69.7c-8.3-8.3-21.8-8.3-30.2,0c-8.3,8.3-8.3,21.8,0,30.2
		l69.7,69.7l-69.7,69.7c-8.3,8.3-8.3,21.8,0,30.2c4.2,4.2,9.6,6.2,15.1,6.2s10.9-2.1,15.1-6.2l69.7-69.7l69.7,69.7
		c4.2,4.2,9.6,6.2,15.1,6.2s10.9-2.1,15.1-6.2c8.3-8.3,8.3-21.8,0-30.2L286.2,256l69.7-69.7C364.3,177.9,364.3,164.5,355.9,156.1z
		"/>
</g>
</svg>
