<?xml version="1.0" encoding="utf-8"?>
<!-- Generator: Adobe Illustrator 25.2.1, SVG Export Plug-In . SVG Version: 6.00 Build 0)  -->
<svg version="1.1" xmlns="http://www.w3.org/2000/svg" xmlns:xlink="http://www.w3.org/1999/xlink" x="0px" y="0px"
	 viewBox="0 0 419.5 375.3" style="enable-background:new 0 0 419.5 375.3;" xml:space="preserve">
<style type="text/css">
	.st0{display:none;}
	.st1{display:inline;}
</style>
<g id="new" class="st0">
	<path class="st1" d="M417.1,64.6c-1.7-10.4-8.3-15.8-18.9-15.9c-22.2,0-44.4,0-66.6,0c-1.5,0-3,0-5.1,0c0-2,0-3.9,0-5.7
		c0-6,0.1-12-0.1-18c-0.3-12.9-10.1-22.7-23-22.8c-15.1-0.1-30.2,0-45.3,0c-46,0-92,0-138,0c-15.8,0-24.9,8.5-25.6,24.3
		C94,33.8,94.3,41,94.3,48.8c-1.7,0-3.1,0-4.6,0c-22.2,0-44.4,0-66.6,0c-11.2,0-17.8,5.1-19.5,16.2c-8.4,56.5,7.9,104.9,49.1,144.5
		c23.4,22.4,51.7,36.9,82,47.5c9.7,3.4,19.7,6.2,29.6,9.1c15.5,4.6,24.4,18.4,22.3,34.8c-1.9,14.7-15.1,26.6-30.6,26.5
		c-12.9,0-23.8,3.7-31.8,14.3c-4.3,5.7-6.5,12.2-6.9,19.3c-0.4,7.7,4.5,13,12.3,13c53.2,0,106.5,0,159.7,0c7.2,0,11.6-4.5,11.7-11.8
		c0.3-18.8-15.1-34.1-34.5-34.8c-5.7-0.2-11.8-1-17-3.2c-12.1-5-19.1-17.8-18.1-30.7c1.1-13.1,9.8-24,22.6-27.4
		c24.4-6.6,48-14.8,70.2-27c39.8-21.8,69.2-52.7,85.3-95.6c5.1-13.7,8-27.9,8.9-42.6c0.1-1.3,0.4-2.6,0.7-4c0-4.9,0-9.8,0-14.7
		C418.7,76.4,418.1,70.5,417.1,64.6z M40.2,122.8c-3.3-12.7-4.5-25.6-3.6-39c1.6-0.1,2.9-0.2,4.2-0.2c16.5,0,32.9,0.1,49.4-0.1
		c3.5,0,4.8,0.8,5.2,4.6c4,39.9,12.7,78.6,31,114.6c3,5.8,6.3,11.4,10,18.1C89.9,201.2,53.5,173.3,40.2,122.8z M275.3,154.8h-41.8
		v41.8h-45.3v-41.8h-41.8v-45.3h41.8V67.6h45.3v41.8h41.8V154.8z M380.7,121.6c-7.2,30.8-24.7,54.7-49.6,73.5
		c-13.3,10-28,17.8-43.3,24.2c-0.8,0.4-1.7,0.6-2.6,0.9c4.7-9.1,9.6-17.9,13.8-26.9c13.5-29.1,20.8-60,25-91.7c0.7-5,1-10,1.8-15
		c0.2-1.1,1.8-2.8,2.7-2.8c18.1-0.2,36.2-0.1,54.3-0.1c0.4,0,0.8,0.2,1.5,0.4C384.7,96.7,383.6,109.3,380.7,121.6z"/>
</g>
<g id="join" class="st0">
	<path class="st1" d="M417.1,64.6c-1.7-10.4-8.3-15.8-18.9-15.9c-22.2,0-44.4,0-66.6,0c-1.5,0-3,0-5.1,0c0-2,0-3.9,0-5.7
		c0-6,0.1-12-0.1-18c-0.3-12.9-10.1-22.7-23-22.8c-15.1-0.1-30.2,0-45.3,0c-46,0-92,0-138,0c-15.8,0-24.9,8.5-25.6,24.3
		C94,33.8,94.3,41,94.3,48.8c-1.7,0-3.1,0-4.6,0c-22.2,0-44.4,0-66.6,0c-11.2,0-17.8,5.1-19.5,16.2c-8.4,56.5,7.9,104.9,49.1,144.5
		c23.4,22.4,51.7,36.9,82,47.5c9.7,3.4,19.7,6.2,29.6,9.1c15.5,4.6,24.4,18.4,22.3,34.8c-1.9,14.7-15.1,26.6-30.6,26.5
		c-12.9,0-23.8,3.7-31.8,14.3c-4.3,5.7-6.5,12.2-6.9,19.3c-0.4,7.7,4.5,13,12.3,13c53.2,0,106.5,0,159.7,0c7.2,0,11.6-4.5,11.7-11.8
		c0.3-18.8-15.1-34.1-34.5-34.8c-5.7-0.2-11.8-1-17-3.2c-12.1-5-19.1-17.8-18.1-30.7c1.1-13.1,9.8-24,22.6-27.4
		c24.4-6.6,48-14.8,70.2-27c39.8-21.8,69.2-52.7,85.3-95.6c5.1-13.7,8-27.9,8.9-42.6c0.1-1.3,0.4-2.6,0.7-4c0-4.9,0-9.8,0-14.7
		C418.7,76.4,418.1,70.5,417.1,64.6z M40.2,122.8c-3.3-12.7-4.5-25.6-3.6-39c1.6-0.1,2.9-0.2,4.2-0.2c16.5,0,32.9,0.1,49.4-0.1
		c3.5,0,4.8,0.8,5.2,4.6c4,39.9,12.7,78.6,31,114.6c3,5.8,6.3,11.4,10,18.1C89.9,201.2,53.5,173.3,40.2,122.8z M218.6,175.6
		c-4.7,4.7-9.1,9.7-14.3,13.8c-21.1,16.4-52.6,3.3-56.1-23.2c-1.5-11.3,1.7-21.2,9.6-29.3c7-7.2,14.1-14.3,21.3-21.3
		c6.7-6.5,14.9-9.6,24.1-9.7c9.6,0.1,17.8,3.4,24.6,9.9c2.9,2.8,3.2,6.9,0.6,9.6c-2.6,2.7-6.6,2.7-9.6-0.1
		c-9.3-8.6-22.4-8.4-31.4,0.5c-6.6,6.6-13.3,13.2-19.8,19.8c-6.2,6.3-8.2,13.9-5.6,22.4c2.6,8.4,8.6,13.5,17.2,15.1
		c7.4,1.4,13.9-0.8,19.3-6c3.5-3.3,6.8-6.8,10.3-10.2c3.6-3.5,9.5-2.1,10.9,2.6C220.5,171.7,220.2,173.9,218.6,175.6z M269.4,124.8
		c-6.9,7.2-14.1,14.2-21.2,21.2c-6.8,6.6-15,9.8-24.6,10c-9.2-0.1-17.4-3.4-24.3-9.9c-2.9-2.8-3.2-6.9-0.6-9.6
		c2.6-2.7,6.6-2.7,9.6,0c8.1,7.4,19.2,8.4,28,2.4c1.2-0.8,2.3-1.8,3.3-2.8c6.7-6.6,13.3-13.2,19.9-19.9c6.2-6.3,8.2-13.9,5.6-22.4
		c-2.6-8.4-8.5-13.5-17.2-15.2c-7.3-1.4-13.7,0.6-19.1,5.7c-3.6,3.4-7,7-10.5,10.4c-3.7,3.5-9.4,2.2-10.9-2.6
		c-0.7-2.1-0.5-4.4,1.1-5.9c5.1-5.1,9.8-10.6,15.6-14.8c21.3-15.3,51.4-1.9,54.9,24.1C280.3,106.9,277.2,116.7,269.4,124.8z
		 M380.7,121.6c-7.2,30.8-24.7,54.7-49.6,73.5c-13.3,10-28,17.8-43.3,24.2c-0.8,0.4-1.7,0.6-2.6,0.9c4.7-9.1,9.6-17.9,13.8-26.9
		c13.5-29.1,20.8-60,25-91.7c0.7-5,1-10,1.8-15c0.2-1.1,1.8-2.8,2.7-2.8c18.1-0.2,36.2-0.1,54.3-0.1c0.4,0,0.8,0.2,1.5,0.4
		C384.7,96.7,383.6,109.3,380.7,121.6z"/>
</g>
<g id="Calque_3">
	<g>
		<path d="M21.8,265.8c6,3.4,11.4,6.6,16.9,9.6c17.9,9.7,36.7,17.2,56.5,22.3c5.7,1.4,10.6-1.3,12.4-6.6c1.7-5.3-1-10.5-6.5-12.5
			c-1-0.4-2.1-0.7-3.1-1c-25.8-7-49.5-18.4-71.8-33.2c-3.3-2.2-4.8-4.4-4.6-8.6c0.4-11,0.1-22,0.1-33.7c1.5,0.9,2.7,1.5,3.8,2.1
			c21.7,12.9,44.5,23.2,68.9,29.8c5.8,1.6,10.7-0.4,12.9-5.2c2.7-5.8-0.4-11.8-7.2-14.1c-9.6-3.3-19.3-6.3-28.7-10
			c-16.2-6.4-31.5-14.8-46.1-24.5c-2.8-1.8-3.6-3.8-3.6-7c0.1-25.4,0.5-50.8-0.1-76.2c-0.4-18.9,6.8-34.1,20-47
			c16.2-15.7,35.9-25.5,57-32.8C140.1,2.9,183-1.5,226.7,0.4c32.8,1.4,64.9,6.6,95.9,17.7c13.9,4.9,27.1,11.2,39.4,19.4
			c3.6,2.5,5.4,5.9,4.5,10.2c-0.9,4.1-3.5,7.1-7.7,7.5c-2.4,0.2-5.4-0.3-7.4-1.6c-30.3-19.4-64.3-27.5-99.5-31.8
			c-29.2-3.6-58.4-3.4-87.5,0.2c-31.7,3.9-62.4,11.3-90.3,27.5c-9.1,5.3-17.4,11.5-24,19.8c-12.2,15.3-12,31,0.8,45.9
			c11.2,13.1,26,20.8,41.3,27.9c5,2.3,8.6,2,13.4-1.1c23.9-15.9,50.4-25,78.9-28.5c44.6-5.4,86.5,2.8,125.2,25.9
			c0.7,0.4,1.5,0.7,2.1,1.3c5.5,5.6,11.1,4.5,17.6,1.3c13-6.4,25.7-13.2,35.8-23.7c7.2-7.5,12.3-16,12.6-26.9
			c0.2-5.7,4.6-9.4,10-9.2c5.5,0.2,9.3,4.2,9.4,10.4c0.1,19.8,0,39.6,0,59.3c0,7.4-0.1,14.8,0.1,22.3c0.1,2.7-0.8,4.2-3,5.7
			c-22.3,15.1-46.4,26.4-72.3,34.1c-1.2,0.3-2.4,0.6-3.6,1c-5.8,2-8.8,7.1-7.2,12.5c1.7,5.7,7.1,8.8,13,6.7
			c15.2-5.4,30.5-10.8,45.3-17.1c9.4-4,18.2-9.5,27.7-14.5c0,10.7-0.4,21.3,0.2,31.8c0.3,5.5-1.8,8.3-6.1,11.1
			c-21.7,14.4-44.9,25.2-70,32.1c-1.1,0.3-2.1,0.6-3.2,0.9c-5.6,1.9-8.4,7-6.9,12.3c1.6,5.6,6.7,8.4,12.5,6.9
			c24.6-6.3,47.7-16.4,69.4-29.6c0.9-0.6,1.9-1.1,2.8-1.7c0.2-0.1,0.5,0,1.9,0c-0.7,12.6-0.5,25.2-2.4,37.5
			c-1.8,11.6-9.3,20.4-19.5,26.3c-37.2,21.3-77,35-119.4,41.3c-27.2,4-54.4,4.9-81.7,2.3c-47.5-4.6-92.1-18.6-133-43.5
			c-12.6-7.7-19.2-19.5-20.1-34.1C21.3,286.4,21.8,276.4,21.8,265.8z M209.8,210.4c-31.9-0.4-57.5,24.7-57.9,55.3
			c-0.5,35.4,31.7,62.7,66.6,56.3c8.8-1.6,16.8-5.1,23.8-10.7c4.7-3.7,5.7-9.3,2.6-13.8c-3.2-4.7-9-5.8-14.1-2.5
			c-1.5,1-2.9,2-4.5,2.9c-12.5,7.3-28.2,6.3-39.9-2.6c-11.5-8.7-16.7-23.5-13.2-37.4c6.3-25,34.6-35.3,56.3-20.5
			c5.8,3.9,11.8,3.3,15.2-1.6c3.5-5,2.1-10.8-3.7-14.9C231.3,214,220.4,210.4,209.8,210.4z M294,153.7
			c-26.1-15.3-54.5-22.1-84.4-22.1c-30,0-58.4,6.9-84.5,22.1C181.5,167.5,237.7,167.6,294,153.7z"/>
	</g>
</g>
</svg>
