<svg id="Calque_5" data-name="Calque 5" xmlns="http://www.w3.org/2000/svg" viewBox="0 0 73.53 66.18"><defs><style>.cls-1{fill:none;stroke:#000;stroke-linecap:round;stroke-linejoin:round;stroke-width:7.35px;}</style></defs><g id="Communication_Chat_Conversation_Circle" data-name="Communication / Chat_Conversation_Circle"><path id="Vector" class="cls-1" d="M30.21,54.67A22.05,22.05,0,1,0,10.33,44.45L8.77,49.12h0c-.6,1.79-.9,2.69-.68,3.29A1.8,1.8,0,0,0,9.2,53.53c.6.21,1.49-.08,3.27-.68h0l4.68-1.56A22,22,0,0,0,29,54.71C29.39,54.71,29.8,54.69,30.21,54.67Zm0,0Zm0,0A22.07,22.07,0,0,0,62.83,66l4.68,1.56h0c1.79.6,2.69.9,3.28.69a1.84,1.84,0,0,0,1.11-1.12c.22-.6-.08-1.49-.68-3.29l-1.56-4.68.52-.86A22.07,22.07,0,0,0,51,25.29l-.83,0-.41,0" transform="translate(-3.24 -6.91)"/></g></svg>