<svg id="Calque_8" data-name="Calque 8" xmlns="http://www.w3.org/2000/svg" viewBox="0 0 52.2 73.69"><path d="M25,21.58h7.81a36.91,36.91,0,0,1,1.94-8.36A17,17,0,0,0,25,21.58Z" transform="translate(-13.9 -3.15)"/><path d="M25,36.93a16.92,16.92,0,0,0,9.75,8.35,37,37,0,0,1-1.94-8.35Z" transform="translate(-13.9 -3.15)"/><path d="M32.32,29.25c0-1.54.07-3.09.18-4.6H23.77a16.4,16.4,0,0,0,0,9.21H32.5C32.39,32.34,32.32,30.8,32.32,29.25Z" transform="translate(-13.9 -3.15)"/><path d="M38.43,46.06c.51,0,1,.08,1.57.08s1.06,0,1.58-.08a27.9,27.9,0,0,0,2.54-9.13H35.88A27.61,27.61,0,0,0,38.43,46.06Z" transform="translate(-13.9 -3.15)"/><path d="M41.58,12.44c-.52,0-1-.08-1.58-.08s-1.06,0-1.57.08a27.6,27.6,0,0,0-2.55,9.14h8.24A27.9,27.9,0,0,0,41.58,12.44Z" transform="translate(-13.9 -3.15)"/><path d="M56.23,24.65H47.5c.12,1.51.18,3.06.18,4.6s-.06,3.09-.18,4.61h8.73a16.4,16.4,0,0,0,0-9.21Z" transform="translate(-13.9 -3.15)"/><path d="M56.93,49.07a26.1,26.1,0,1,0-33.86,0L14,74.8a1.53,1.53,0,0,0,.43,1.66,1.56,1.56,0,0,0,1.71.22L27.53,71l6.91,5.53a1.54,1.54,0,0,0,2.46-.87L39,66.09l4.18,9.82a1.53,1.53,0,0,0,2.37.6L52.48,71l11.4,5.7a1.48,1.48,0,0,0,.68.16,1.56,1.56,0,0,0,1-.38A1.53,1.53,0,0,0,66,74.8Zm-9.48,2L42.7,52.11a24,24,0,0,1-2.7.17A23.11,23.11,0,1,1,47.45,51Z" transform="translate(-13.9 -3.15)"/><path d="M45.28,45.28A16.9,16.9,0,0,0,55,36.93H47.21A37.52,37.52,0,0,1,45.28,45.28Z" transform="translate(-13.9 -3.15)"/><path d="M55,21.58a16.92,16.92,0,0,0-9.74-8.36,37.06,37.06,0,0,1,1.93,8.36Z" transform="translate(-13.9 -3.15)"/><path d="M35.58,24.65c-.11,1.45-.18,3-.18,4.6s.07,3.16.18,4.61h8.84c.11-1.45.19-3,.19-4.61s-.08-3.15-.19-4.6Z" transform="translate(-13.9 -3.15)"/></svg>