<?xml version="1.0" encoding="utf-8"?>
<!-- Generator: Adobe Illustrator 25.2.1, SVG Export Plug-In . SVG Version: 6.00 Build 0)  -->
<svg version="1.1" id="_x32_" xmlns="http://www.w3.org/2000/svg" xmlns:xlink="http://www.w3.org/1999/xlink" x="0px" y="0px"
	 viewBox="0 0 800 800" style="enable-background:new 0 0 800 800;" xml:space="preserve">
<path d="M644,550.6c-19.6,5.9-38.8,16-58.2,35.3l0,0c-25.2,25.4-35.1,50.6-39.5,76.6c-4.3,26-2.2,52.6-1.7,78.1
	c0,4.3,0.1,8.5,0,12.7l208.7-208.7c-6.6,0.2-13.3,0.1-20.1-0.1C704,543.6,673.3,541.8,644,550.6z"/>
<g>
	<path d="M287.5,159.6c-4.8-1.6-10-1.6-14.8,0c-5.5,1.8-15.2,11.5-29.9,26.2l-44.1,44.1c-14.7,14.7-24.4,24.4-26.2,29.9
		c-1.6,4.8-1.6,10,0,14.8c1.8,5.5,11.5,15.2,26.2,29.9l81.2,81.2c0,0,0.1,0.1,0.1,0.1c0,0,0.1,0.1,0.1,0.1l152.4,152.4l118.7-118.7
		L317.4,185.8C302.7,171.1,293,161.4,287.5,159.6z M271.6,292.6c-4.7,4.7-10.8,7-16.9,7c-6.1,0-12.3-2.3-17-7
		c-9.4-9.4-9.4-24.5,0-33.9l33.9-33.9c9.4-9.4,24.5-9.4,33.9,0c9.4,9.4,9.4,24.5,0,33.9L271.6,292.6z M441.1,360.4
		c9.4,9.4,9.4,24.5,0,33.9l-33.9,33.9c-4.7,4.7-10.8,7-17,7s-12.3-2.3-17-7c-9.4-9.4-9.4-24.5,0-33.9l33.9-33.9
		C416.6,351,431.8,351,441.1,360.4z M373.3,292.6c9.4,9.4,9.4,24.5,0,33.9l-33.9,33.9c-4.7,4.7-10.8,7-17,7s-12.3-2.3-17-7
		c-9.4-9.4-9.4-24.5,0-33.9l33.9-33.9C348.8,283.2,364,283.2,373.3,292.6z"/>
	<path d="M230.9,468.9c-3.9,3.9-7.9,7.9-9.8,10.2c1.9,2.2,5.9,6.3,9.8,10.2l125.4,125.4l42.4-42.4L263.1,436.7L230.9,468.9z"/>
	<path d="M400,0C179.1,0,0,179.1,0,400c0,220.9,179.1,400,400,400c33.1,0,65.1-4.3,95.9-11.9c4-4.4,6.5-9.8,8.1-18.5
		c1.7-9.1,1.8-21.3,1.4-35.3c-0.7-28.1-3.4-63.7,7.7-101.5c7.4-25.1,21.3-51,45.2-74.7c0,0,0,0,0,0c31.2-31.4,66-45.3,98-50.4
		c32.1-5.2,61.6-2.5,85.1-2.2c15.6,0.3,28.3-0.6,36.6-3.6c4.4-1.5,7.5-3.5,10.3-6.1C795.7,465.1,800,433,800,400
		C800,179.1,620.9,0,400,0z M695.4,343.5l-93.1,93.1c0,0-0.1,0.1-0.1,0.1s-0.1,0.1-0.1,0.1L373.4,665.4c0,0-0.1,0.1-0.1,0.1
		c0,0-0.1,0.1-0.1,0.1l-16.8,16.8c-4.7,4.7-10.8,7-17,7s-12.3-2.3-17-7c-9.4-9.4-9.4-24.5,0-33.9L197,523.1
		c-11-11-18.3-18.3-21.9-29.3c-3.1-9.7-3.1-19.9,0-29.6C178.7,453.3,186,446,197,435l32.2-32.2l-64.4-64.4c-21-21-32.5-32.5-37.9-49
		c-4.7-14.5-4.7-29.9,0-44.4c5.3-16.4,16.9-28,37.9-49l44.1-44.1c21-21,32.6-32.5,49-37.9c14.5-4.7,29.9-4.7,44.4,0
		c16.4,5.3,28,16.9,49,37.9l64.4,64.4l32.2-32.2c11-11,18.3-18.3,29.3-21.9c9.7-3.1,19.9-3.1,29.6,0c10.9,3.6,18.2,10.8,29.3,21.9
		l125.4,125.4c9.4-9.4,24.5-9.4,33.9,0C704.7,318.9,704.7,334.1,695.4,343.5z"/>
	<path d="M492,208.2c-2.2,1.9-6.3,5.9-10.2,9.8l-32.2,32.2l135.6,135.6l42.4-42.4L502.1,218C498.2,214.1,494.2,210.1,492,208.2z"/>
</g>
</svg>
