<svg id="Calque_3" data-name="Calque 3" xmlns="http://www.w3.org/2000/svg" viewBox="0 0 61.35 65.12"><path d="M30.65,63.77c0-1.42,0-2.72,0-4S31.2,58,32.41,58h2.93l.21,0V52c-1.58-.32-1.82-.63-1.82-2.28,0-1.35,0-2.7,0-4a.71.71,0,0,0-.53-.77,19.44,19.44,0,0,1-9.06-7,1.48,1.48,0,0,0-.91-.5A15.35,15.35,0,0,1,9.34,22.07c0-2.17,0-4.35,0-6.53,0-1.35.5-1.83,1.88-1.83h9.45V9.6c0-1.7.46-2.16,2.12-2.16H57.24c1.63,0,2.09.47,2.09,2.11,0,1.3,0,2.6,0,3.9a2.16,2.16,0,0,0,.07.26h9.4c1.35,0,1.85.5,1.85,1.86,0,2.5,0,5,0,7.5A15.38,15.38,0,0,1,56.78,37.32a1.5,1.5,0,0,0-1,.53,19.47,19.47,0,0,1-9,7,.73.73,0,0,0-.56.81c0,1.4,0,2.8,0,4.2s-.38,1.88-1.83,2.09V58h3c1.4,0,1.88.49,1.89,1.91,0,1.25,0,2.49,0,3.85h2.37c1.46,0,1.95.49,1.95,1.92,0,1.71,0,3.41,0,5.11a1.52,1.52,0,0,1-1.74,1.75q-11.94,0-23.87,0a1.53,1.53,0,0,1-1.73-1.7c0-1.81,0-3.61,0-5.41a1.5,1.5,0,0,1,1.62-1.66c.44,0,.9,0,1.35,0Zm28.68-47v.88c0,3,0,5.95,0,8.92a19.3,19.3,0,0,1-1,6.26c-.14.41-.27.82-.42,1.28a12.55,12.55,0,0,0,8.28-6.17c2-3.54,1.36-7.36,1.47-11.17Zm-47,0c0,1.92,0,3.77,0,5.61a11.88,11.88,0,0,0,3.39,8.18A12.25,12.25,0,0,0,22,34.12a3.47,3.47,0,0,0-.13-.5,19.52,19.52,0,0,1-1.28-7.25c0-2.95,0-5.9,0-8.85v-.78Z" transform="translate(-9.33 -7.44)"/></svg>