<?xml version="1.0" encoding="utf-8"?>
<!-- Generator: Adobe Illustrator 25.2.1, SVG Export Plug-In . SVG Version: 6.00 Build 0)  -->
<svg version="1.1" id="_x32_" xmlns="http://www.w3.org/2000/svg" xmlns:xlink="http://www.w3.org/1999/xlink" x="0px" y="0px"
	 viewBox="0 0 800 800" style="enable-background:new 0 0 800 800;" xml:space="preserve">
<path d="M644,550.6c-19.6,5.9-38.8,16-58.2,35.3l0,0c-25.2,25.4-35.1,50.6-39.5,76.6c-4.3,26-2.2,52.6-1.7,78.1
	c0,4.3,0.1,8.5,0,12.7l208.7-208.7c-6.6,0.2-13.3,0.1-20.1-0.1C704,543.6,673.3,541.8,644,550.6z"/>
<path d="M400,0C179.1,0,0,179.1,0,400s179.1,400,400,400c33.1,0,65.1-4.3,95.9-11.9c4-4.4,6.5-9.8,8.1-18.5
	c1.7-9.1,1.8-21.3,1.4-35.3c-0.7-28.1-3.4-63.7,7.7-101.5c7.4-25.1,21.3-51,45.2-74.7c31.2-31.4,66-45.3,98-50.4
	c32.1-5.2,61.6-2.5,85.1-2.2c15.6,0.3,28.3-0.6,36.6-3.6c4.4-1.5,7.5-3.5,10.3-6.1C795.7,465.1,800,433,800,400
	C800,179.1,620.9,0,400,0z M524.8,279l-2.4,4.1c-20.1,33.6-50.3,59.9-86.3,75.4c-33.2,14.2-61.6,37.8-81.6,67.9l-20.9,31.3
	l123.7,123.7c6.3,6.3,6.3,16.5,0,22.8s-16.5,6.3-22.8,0L131,300.6c-6.3-6.3-6.3-16.5,0-22.8s16.5-6.3,22.8,0l28.1,28.1l20.9-31.3
	c20-30.1,48.4-53.6,81.6-67.9l4.3-1.9c33.2-14.2,61-38.5,79.6-69.5c8.6-14.4,28.4-16.8,40.3-5l111.8,111.8
	C530.1,252,531.9,267.2,524.8,279z"/>
</svg>
