<?xml version="1.0" encoding="iso-8859-1"?>
<!-- Uploaded to: SVG Repo, www.svgrepo.com, Generator: SVG Repo Mixer Tools -->
<svg fill="#000000" height="800px" width="800px" version="1.1" id="Layer_1" xmlns="http://www.w3.org/2000/svg" xmlns:xlink="http://www.w3.org/1999/xlink" 
	 viewBox="0 0 485 485" xml:space="preserve">
<path d="M0,70v345h30V121.213l40,40V371h30v-43.5h48.75V371h30v-43.5h48.75V371h30v-43.5h48.75V371h30v-43.5H385V371h30V161.213
	l40-40V415h30V70H0z M100,170h48.75v48.75H100V170z M385,170v48.75h-48.75V170H385z M306.25,218.75H257.5V170h48.75V218.75z
	 M227.5,218.75h-48.75V170h48.75V218.75z M100,297.5v-48.75h48.75v48.75H100z M178.75,297.5v-48.75h48.75v48.75H178.75z
	 M257.5,297.5v-48.75h48.75v48.75H257.5z M336.25,297.5v-48.75H385v48.75H336.25z M393.787,140H91.213l-40-40h382.574L393.787,140z"
	/>
</svg>