<?xml version="1.0" encoding="iso-8859-1"?>
<!-- Uploaded to: SVG Repo, www.svgrepo.com, Generator: SVG Repo Mixer Tools -->
<svg fill="#000000" height="800px" width="800px" version="1.1" id="Layer_1" xmlns="http://www.w3.org/2000/svg" xmlns:xlink="http://www.w3.org/1999/xlink" 
	 viewBox="0 0 512 512" xml:space="preserve">
<g>
	<g>
		<path d="M495.286,61.86h-52.643V45.675c0-18.461-14.967-33.429-33.429-33.429c-18.461,0-33.428,14.967-33.428,33.429V61.86
			h-86.357V45.675c0-18.461-14.967-33.429-33.429-33.429s-33.429,14.967-33.429,33.429V61.86h-86.357V45.675
			c0-18.461-14.967-33.429-33.429-33.429c-18.461,0-33.429,14.967-33.429,33.429V61.86H16.714C7.484,61.86,0,69.344,0,78.574
			v404.465c0,9.231,7.484,16.714,16.714,16.714h478.571c9.231,0,16.714-7.484,16.714-16.714V78.574
			C512,69.344,504.516,61.86,495.286,61.86z M372.972,312.178l-46.36,45.191l10.943,63.81c1.075,6.27-1.503,12.608-6.65,16.348
			c-5.118,3.718-11.937,4.249-17.602,1.273l-57.304-30.127l-57.304,30.127c-5.63,2.961-12.454,2.468-17.602-1.273
			c-5.147-3.74-7.725-10.076-6.649-16.348l10.945-63.81l-46.36-45.191c-4.555-4.44-6.195-11.083-4.229-17.133
			c1.966-6.051,7.196-10.461,13.493-11.376l64.068-9.309l28.652-58.055c2.816-5.705,8.626-9.318,14.988-9.318
			s12.172,3.611,14.988,9.317l28.653,58.056l64.068,9.309c6.296,0.915,11.526,5.325,13.492,11.376
			C379.166,301.096,377.527,307.738,372.972,312.178z M478.571,158.799H33.429V95.289h35.929v9.925
			c0,18.461,14.967,33.429,33.429,33.429c18.461,0,33.428-14.967,33.428-33.429v-9.925h86.357v9.925
			c0,18.461,14.967,33.429,33.429,33.429s33.429-14.967,33.429-33.429v-9.925h86.357v9.925c0,18.461,14.967,33.429,33.428,33.429
			c18.461,0,33.429-14.967,33.429-33.429v-9.925h35.929V158.799z"/>
	</g>
</g>
</svg>