<?xml version="1.0" encoding="utf-8"?>
<!-- Generator: Adobe Illustrator 25.2.1, SVG Export Plug-In . SVG Version: 6.00 Build 0)  -->
<svg version="1.1" id="Calque_1" xmlns="http://www.w3.org/2000/svg" xmlns:xlink="http://www.w3.org/1999/xlink" x="0px" y="0px"
	 viewBox="0 0 24 24" style="enable-background:new 0 0 24 24;" xml:space="preserve">
<style type="text/css">
	.st0{display:none;}
	.st1{display:inline;}
	.st2{fill:#FD9A28;}
</style>
<g id="Calque_1_1_" class="st0">
	<g class="st1">
		<path class="st2" d="M0,9.7C0,9.7,0.1,9.7,0,9.7c0.9-2.2,2.2-3.9,4-5.3c0,0,0,0,0.1-0.1c-1-1-2-2-2.9-2.9C1.6,0.9,2,0.5,2.5,0
			c6.4,6.4,12.9,12.9,19.3,19.3c-0.4,0.5-0.9,0.9-1.4,1.4c-0.1,0-0.1-0.1-0.2-0.2c-1.1-1.1-2.2-2.2-3.3-3.3
			c-0.1-0.1-0.2-0.1-0.3-0.1c-4.9,1.7-9.4,0.9-13.3-2.6c-1.4-1.2-2.4-2.8-3.2-4.5c0-0.1-0.1-0.2-0.1-0.3C0,9.8,0,9.8,0,9.7z
			 M7.2,7.4c-1,1.7-0.8,4.4,1,6.3c1.8,1.8,4.5,2,6.2,1c-0.5-0.5-1-1-1.5-1.5c-0.1-0.1-0.2-0.1-0.4-0.1c-0.4,0-0.8,0-1.2,0
			c-1.7-0.4-2.8-2-2.5-3.8c0-0.1,0-0.2-0.1-0.2C8.2,8.5,7.7,8,7.2,7.4z"/>
		<path class="st2" d="M20.3,15c-0.1-0.1-0.1-0.1-0.2-0.2c-1-1-1.9-1.9-2.9-2.9c-0.1-0.1-0.1-0.2-0.1-0.3c1.3-3.7-1.5-7.5-5.4-7.3
			c-0.5,0-1,0.2-1.6,0.3c-0.1,0-0.2,0-0.2,0C9.2,3.9,8.4,3.1,7.7,2.4c0.1,0,0.2-0.1,0.3-0.1c4.5-1.4,8.6-0.6,12.3,2.4
			c1.6,1.3,2.8,3,3.7,5c0.1,0.1,0,0.3,0,0.4C23.1,12,21.9,13.6,20.3,15z"/>
		<path class="st2" d="M11.9,6.5c1,0,1.8,0.3,2.5,1C15,8.2,15.3,9,15.3,9.9C14.1,8.8,13,7.7,11.9,6.5z"/>
	</g>
</g>
<g id="Calque_2_1_">
	<g>
		<path class="st2" d="M11.8,1.6c5.2,0.2,9.2,2.7,11.9,7.6c0.2,0.4,0.2,0.8,0,1.2c-2.2,4.1-5.4,6.6-9.6,7.4c-5.5,1.1-11.2-2-14-7.4
			C-0.1,10,0,9.6,0.2,9.2c2.2-4,5.3-6.5,9.4-7.3C10.4,1.7,11.2,1.7,11.8,1.6z M12,4.2c-2.8,0-5,2.5-5,5.6c0,3.1,2.2,5.7,5,5.7
			c2.8,0,5-2.5,5-5.6C17,6.7,14.7,4.2,12,4.2z"/>
		<path class="st2" d="M12,13.7c-1.9,0-3.4-1.7-3.4-3.8S10.1,6,12,6s3.4,1.7,3.4,3.8S13.8,13.7,12,13.7z"/>
	</g>
</g>
</svg>
