<?xml version="1.0" encoding="utf-8"?>
<!-- Generator: Adobe Illustrator 25.2.1, SVG Export Plug-In . SVG Version: 6.00 Build 0)  -->
<svg version="1.1" xmlns="http://www.w3.org/2000/svg" xmlns:xlink="http://www.w3.org/1999/xlink" x="0px" y="0px"
	 viewBox="0 0 24 24" style="enable-background:new 0 0 24 24;" xml:space="preserve">
<style type="text/css">
	.st0{display:none;}
	.st1{display:inline;}
</style>
<g id="Calque_1" class="st0">
	<g class="st1">
		<path d="M0,9.74c0.02-0.03,0.05-0.06,0.06-0.09c0.86-2.08,2.17-3.81,3.92-5.22C4,4.41,4.02,4.39,4.04,4.37
			C3.06,3.38,2.07,2.39,1.1,1.42c0.5-0.5,0.95-0.95,1.39-1.39C8.92,6.46,15.37,12.91,21.8,19.36c-0.44,0.45-0.89,0.91-1.36,1.38
			c-0.06-0.05-0.12-0.11-0.18-0.17c-1.11-1.11-2.21-2.22-3.31-3.33c-0.11-0.11-0.19-0.13-0.34-0.08c-4.92,1.71-9.37,0.88-13.31-2.55
			c-1.41-1.23-2.43-2.75-3.17-4.46C0.1,10.05,0.05,9.97,0,9.88C0,9.84,0,9.79,0,9.74z M7.15,7.42c-0.96,1.74-0.84,4.41,1.01,6.26
			c1.82,1.82,4.48,1.98,6.24,1c-0.5-0.5-1.01-0.99-1.5-1.5c-0.12-0.13-0.24-0.15-0.41-0.14c-0.4,0.01-0.8,0.04-1.19-0.04
			c-1.73-0.38-2.78-1.97-2.52-3.76c0.01-0.07,0-0.18-0.05-0.23C8.22,8.48,7.69,7.96,7.15,7.42z"/>
		<path d="M20.29,15c-0.07-0.06-0.12-0.11-0.17-0.16c-0.96-0.96-1.92-1.93-2.89-2.89c-0.11-0.11-0.13-0.19-0.08-0.34
			c1.29-3.66-1.54-7.48-5.41-7.26c-0.52,0.03-1.04,0.21-1.56,0.31c-0.08,0.02-0.2,0.02-0.24-0.02C9.19,3.89,8.45,3.14,7.68,2.37
			c0.1-0.04,0.19-0.08,0.29-0.1c4.53-1.39,8.65-0.61,12.33,2.37c1.65,1.33,2.84,3.03,3.66,4.99c0.06,0.14,0.05,0.26-0.01,0.4
			C23.14,11.96,21.92,13.61,20.29,15z"/>
		<path d="M11.9,6.53c1-0.03,1.84,0.32,2.52,1.05c0.61,0.66,0.89,1.44,0.87,2.34C14.15,8.79,13.03,7.67,11.9,6.53z"/>
	</g>
</g>
<g id="Calque_2">
	<g>
		<path d="M11.84,1.6c5.22,0.25,9.18,2.7,11.9,7.6c0.23,0.42,0.23,0.81,0,1.23c-2.23,4.07-5.42,6.56-9.59,7.37
			c-5.51,1.07-11.17-1.96-14-7.43c-0.2-0.39-0.19-0.75,0.02-1.14c2.18-4.01,5.32-6.47,9.42-7.34C10.36,1.72,11.17,1.68,11.84,1.6z
			 M11.97,4.19c-2.75,0-4.99,2.51-4.99,5.61c-0.01,3.12,2.23,5.65,4.98,5.66c2.75,0,4.99-2.51,4.99-5.61
			C16.96,6.73,14.72,4.19,11.97,4.19z"/>
		<path d="M11.96,13.66c-1.87,0-3.39-1.72-3.39-3.83c0-2.11,1.52-3.83,3.39-3.83c1.87,0,3.39,1.72,3.39,3.83
			C15.35,11.94,13.83,13.66,11.96,13.66z"/>
	</g>
</g>
</svg>
