<?xml version="1.0" encoding="utf-8"?>
<!-- Generator: Adobe Illustrator 25.2.1, SVG Export Plug-In . SVG Version: 6.00 Build 0)  -->
<svg version="1.1" id="_x32_" xmlns="http://www.w3.org/2000/svg" xmlns:xlink="http://www.w3.org/1999/xlink" x="0px" y="0px"
	 viewBox="0 0 800 800" style="enable-background:new 0 0 800 800;" xml:space="preserve">
<path d="M644,550.6c-19.6,5.9-38.8,16-58.2,35.3l0,0c-25.2,25.4-35.1,50.6-39.5,76.6c-4.3,26-2.2,52.6-1.7,78.1
	c0,4.3,0.1,8.5,0,12.7l208.7-208.7c-6.6,0.2-13.3,0.1-20.1-0.1C704,543.6,673.3,541.8,644,550.6z"/>
<path d="M400,0C179.1,0,0,179.1,0,400c0,220.9,179.1,400,400,400c33.1,0,65.1-4.3,95.9-11.9c4-4.4,6.5-9.8,8.1-18.5
	c1.7-9.1,1.8-21.3,1.4-35.3c-0.7-28.1-3.4-63.7,7.7-101.5c7.4-25.1,21.3-51,45.2-74.7c0,0,0,0,0,0c31.2-31.4,66-45.3,98-50.4
	c32.1-5.2,61.6-2.5,85.1-2.2c15.6,0.3,28.3-0.6,36.6-3.6c4.4-1.5,7.5-3.5,10.3-6.1C795.7,465.1,800,433,800,400
	C800,179.1,620.9,0,400,0z M360.4,659.2L175.3,474l46.3-46.3l185.2,185.2L360.4,659.2z M615,404.6l-162,162L267.8,381.4
	c13-13,20.4-28.7,20.4-46.3c0-17.6-44.9-151.4-50.9-169.4c-4.2-13.4-1.9-27.8,6-37.5c2.8-3.7,6-5.1,10.2-7.4
	c16.2-7.9,35.2-0.9,43.5,14.8c8.3,15.7,51.8,95.4,63.4,106.9c11.6,11.6,33.3,13,46.3,0l69.4-69.4c13-13,33.3-13,46.3,0
	c13,13,100,195.4,100,195.4C627.1,380.5,624.8,394.9,615,404.6z"/>
</svg>
