<svg id="Calque_2" data-name="Calque 2" xmlns="http://www.w3.org/2000/svg" viewBox="0 0 69.36 69.37"><path d="M5.32,43.39c.09-.25.17-.5.26-.76A5.05,5.05,0,0,1,8,39.75a5.85,5.85,0,0,1,.68-.3l7.6-2.91c-.06,3.17,1.1,5.64,3.93,7s5.5.91,8-1.12a12.13,12.13,0,0,0,3.48,7.07c-.95.4-1.83.78-2.71,1.14-1,.43-2.09.84-3.13,1.28a8.24,8.24,0,0,0-4.28,4,.83.83,0,0,1-.88.52c-4.24,0-8.48,0-12.72,0A2.49,2.49,0,0,1,5.32,54.9Z" transform="translate(-5.32 -5.31)"/><path d="M24.69,5.31c.5.11,1,.2,1.51.33a8.32,8.32,0,0,1,6.35,7.47c0,.35.07.71.11,1.1a9.67,9.67,0,0,1-7.56-2.37c-1.35-1.21-2.16-1.22-3.51,0a9.61,9.61,0,0,1-7.48,2.39c-.11-2.84,1.43-6.54,4.66-8a29,29,0,0,1,3.21-1Z" transform="translate(-5.32 -5.31)"/><path d="M33.62,53.12c0,1.14,0,2.13,0,3.12a6.38,6.38,0,1,0,12.75,0c0-1,0-2,0-3a2.09,2.09,0,0,1,.41.09c2,.82,4,1.59,5.92,2.47a4.12,4.12,0,0,1,2.6,3.95c0,4.28,0,8.57,0,12.86a2,2,0,0,1-2.08,2.1H26.77a2,2,0,0,1-2.09-2.09c0-4.31,0-8.63,0-12.94A3.85,3.85,0,0,1,26.87,56C29,55,31.29,54.11,33.62,53.12Z" transform="translate(-5.32 -5.31)"/><path d="M48.32,49.54a12.15,12.15,0,0,0,3.47-7,7.17,7.17,0,0,0,12-5.91c.23.07.43.12.63.2l6.94,2.66a5.07,5.07,0,0,1,3.37,4.91v9.81a2.06,2.06,0,0,1-2.27,2.26c-4.38,0-8.76,0-13.13,0a.79.79,0,0,1-.83-.5,8.29,8.29,0,0,0-4.46-4C52.13,51.14,50.29,50.35,48.32,49.54Z" transform="translate(-5.32 -5.31)"/><path d="M47.35,16.78c3.47.2,6.81,0,9.31-2.93,2.49,2.93,5.81,3.16,9.33,2.9-.12,2.49.27,4.87-.34,7.19A9.29,9.29,0,0,1,47.37,22C47.28,20.31,47.35,18.6,47.35,16.78Z" transform="translate(-5.32 -5.31)"/><path d="M32.62,18.32c.16,3.26.18,6.39-2,9.07A9.32,9.32,0,0,1,14,21.79c0-1.13,0-2.25,0-3.42,1-.05,1.87-.07,2.78-.16a12.45,12.45,0,0,0,6-2.21.74.74,0,0,1,1,0,13.18,13.18,0,0,0,7.64,2.34Z" transform="translate(-5.32 -5.31)"/><path d="M47.5,32.56a12.77,12.77,0,0,1,.26,1.72c0,2.53.13,5.06,0,7.58a7.67,7.67,0,0,1-7.75,7,7.77,7.77,0,0,1-7.71-7.16c0-.51,0-1,0-1.64a12.48,12.48,0,0,0,9-.79A13.23,13.23,0,0,0,47.5,32.56Z" transform="translate(-5.32 -5.31)"/><path d="M35.79,36.64c-1-.25-2.09-.49-3.13-.77a.72.72,0,0,1-.44-.49c-.12-2.56.79-5.88,3.89-7.31a9.52,9.52,0,0,1,7.37-.22c.58.2.6.55.57,1A8.54,8.54,0,0,1,35.79,36.64Z" transform="translate(-5.32 -5.31)"/><path d="M26.31,32.68c0,1.69.06,3.34,0,5a2.89,2.89,0,0,1-2.95,2.62,2.92,2.92,0,0,1-3-2.68c-.07-1.62,0-3.24,0-4.92Z" transform="translate(-5.32 -5.31)"/><path d="M54.6,5.53c0,1.12.09,2.26,0,3.37a4.15,4.15,0,0,1-3.69,3.75,30.06,30.06,0,0,1-3.29,0C47.52,9.42,51,5.87,54.6,5.53Z" transform="translate(-5.32 -5.31)"/><path d="M58.69,5.51c3.8.52,7,3.79,7,7.21a12.31,12.31,0,0,1-4.19-.27,4.26,4.26,0,0,1-2.83-4C58.68,7.49,58.69,6.52,58.69,5.51Z" transform="translate(-5.32 -5.31)"/><path d="M53.68,34.83h5.86a20.1,20.1,0,0,1,0,3.19,2.85,2.85,0,0,1-3.23,2.25,3,3,0,0,1-2.6-2.91C53.66,36.49,53.68,35.61,53.68,34.83Z" transform="translate(-5.32 -5.31)"/><path d="M37.68,52.84h4.61c0,1.22.07,2.51,0,3.78a2.3,2.3,0,0,1-4.54,0c-.09-1.06,0-2.12,0-3.18Z" transform="translate(-5.32 -5.31)"/></svg>