<svg id="Filled_Icons" data-name="Filled Icons" xmlns="http://www.w3.org/2000/svg" viewBox="0 0 800 733.33"><g id="Trophy-Filled"><path d="M600,66.67V33.33H200V66.67H0V243.33C0,332.67,71.67,400,166.67,400h60.66c22,38,55.67,68.33,97,85-53.66,28-90.66,83.67-91,148.33H166.67V766.67H633.33V633.33H568.67c-.34-65-37.67-120.66-91.67-148.66h-.33A199.06,199.06,0,0,0,572.33,400h61c95,0,166.67-67.33,166.67-156.67V66.67ZM166.67,333.33c-58,0-100-38-100-90v-110H200V300a185,185,0,0,0,3,33.33Zm566.66-90c0,52-42,90-100,90H597A185,185,0,0,0,600,300V133.33H733.33Z" transform="translate(0 -33.33)"/></g></svg>