<svg id="Calque_9" data-name="Calque 9" xmlns="http://www.w3.org/2000/svg" viewBox="0 0 66.92 74.35"><path d="M66,25.13V21.41H58.59V10.26H14V62.31H32.56V77.18H43.72a7.44,7.44,0,0,1-7.44-7.44V32.56a7.44,7.44,0,0,1,7.44-7.43ZM44.65,77.18H14a7.44,7.44,0,0,1-7.44-7.44V10.26A7.46,7.46,0,0,1,14,2.82H58.59A7.44,7.44,0,0,1,66,10.26V25.13a7.44,7.44,0,0,1,7.44,7.43V69.74A7.44,7.44,0,0,1,66,77.18Zm-.93-44.62V62.31H66V32.56Zm11.15,40.9a3.72,3.72,0,1,0-3.72-3.72A3.73,3.73,0,0,0,54.87,73.46Z" transform="translate(-6.54 -2.82)"/></svg>