<?xml version="1.0" encoding="utf-8"?>
<!-- Generator: Adobe Illustrator 25.2.1, SVG Export Plug-In . SVG Version: 6.00 Build 0)  -->
<svg version="1.1" xmlns="http://www.w3.org/2000/svg" xmlns:xlink="http://www.w3.org/1999/xlink" x="0px" y="0px"
	 viewBox="0 0 419.5 375.3" style="enable-background:new 0 0 419.5 375.3;" xml:space="preserve">
<style type="text/css">
	.st0{display:none;}
	.st1{display:inline;}
	.st2{fill:#FFFFFF;}
</style>
<g id="new">
	<path d="M417.1,64.6c-1.7-10.4-8.3-15.8-18.9-15.9c-22.2,0-44.4,0-66.6,0c-1.5,0-3,0-5.1,0c0-2,0-3.9,0-5.7c0-6,0.1-12-0.1-18
		c-0.3-12.9-10.1-22.7-23-22.8c-15.1-0.1-30.2,0-45.3,0c-46,0-92,0-138,0c-15.8,0-24.9,8.5-25.6,24.3C94,33.8,94.3,41,94.3,48.8
		c-1.7,0-3.1,0-4.6,0c-22.2,0-44.4,0-66.6,0c-11.2,0-17.8,5.1-19.5,16.2c-8.4,56.5,7.9,104.9,49.1,144.5
		c23.4,22.4,51.7,36.9,82,47.5c9.7,3.4,19.7,6.2,29.6,9.1c15.5,4.6,24.4,18.4,22.3,34.8c-1.9,14.7-15.1,26.6-30.6,26.5
		c-12.9,0-23.8,3.7-31.8,14.3c-4.3,5.7-6.5,12.2-6.9,19.3c-0.4,7.7,4.5,13,12.3,13c53.2,0,106.5,0,159.7,0c7.2,0,11.6-4.5,11.7-11.8
		c0.3-18.8-15.1-34.1-34.5-34.8c-5.7-0.2-11.8-1-17-3.2c-12.1-5-19.1-17.8-18.1-30.7c1.1-13.1,9.8-24,22.6-27.4
		c24.4-6.6,48-14.8,70.2-27c39.8-21.8,69.2-52.7,85.3-95.6c5.1-13.7,8-27.9,8.9-42.6c0.1-1.3,0.4-2.6,0.7-4c0-4.9,0-9.8,0-14.7
		C418.7,76.4,418.1,70.5,417.1,64.6z M40.2,122.8c-3.3-12.7-4.5-25.6-3.6-39c1.6-0.1,2.9-0.2,4.2-0.2c16.5,0,32.9,0.1,49.4-0.1
		c3.5,0,4.8,0.8,5.2,4.6c4,39.9,12.7,78.6,31,114.6c3,5.8,6.3,11.4,10,18.1C89.9,201.2,53.5,173.3,40.2,122.8z M275.3,154.8h-41.8
		v41.8h-45.3v-41.8h-41.8v-45.3h41.8V67.6h45.3v41.8h41.8V154.8z M380.7,121.6c-7.2,30.8-24.7,54.7-49.6,73.5
		c-13.3,10-28,17.8-43.3,24.2c-0.8,0.4-1.7,0.6-2.6,0.9c4.7-9.1,9.6-17.9,13.8-26.9c13.5-29.1,20.8-60,25-91.7c0.7-5,1-10,1.8-15
		c0.2-1.1,1.8-2.8,2.7-2.8c18.1-0.2,36.2-0.1,54.3-0.1c0.4,0,0.8,0.2,1.5,0.4C384.7,96.7,383.6,109.3,380.7,121.6z"/>
</g>
<g id="join" class="st0">
	<g class="st1">
		<path d="M419.5,82.3c0,4.9,0,9.8,0,14.7c-0.2,1.3-0.6,2.6-0.7,4c-0.9,14.6-3.8,28.9-8.9,42.6c-16.1,42.9-45.5,73.8-85.3,95.6
			c-22.2,12.1-45.9,20.4-70.2,27c-12.9,3.5-21.6,14.3-22.6,27.4c-1,12.9,6,25.6,18.1,30.7c5.2,2.2,11.3,2.9,17,3.2
			c19.4,0.8,34.7,16.1,34.5,34.8c-0.1,7.3-4.5,11.7-11.7,11.8c-53.2,0-106.5,0-159.7,0c-7.8,0-12.7-5.3-12.3-13
			c0.4-7.1,2.5-13.6,6.9-19.3c8-10.5,18.9-14.3,31.8-14.3c15.4,0,28.7-11.8,30.6-26.5c2.1-16.4-6.8-30.2-22.3-34.8
			c-9.9-2.9-19.9-5.7-29.6-9.1c-30.3-10.6-58.6-25.1-82-47.5C11.6,169.8-4.7,121.5,3.7,64.9c1.6-11,8.2-16.2,19.5-16.2
			c22.2,0,44.4,0,66.6,0c1.4,0,2.9,0,4.6,0c0-7.8-0.3-15,0.1-22.1c0.7-15.8,9.8-24.3,25.6-24.3c46,0,92,0,138,0
			c15.1,0,30.2-0.1,45.3,0c12.9,0.1,22.7,9.9,23,22.8c0.2,6,0.1,12,0.1,18c0,1.8,0,3.7,0,5.7c2.1,0,3.6,0,5.1,0
			c22.2,0,44.4,0,66.6,0c10.6,0,17.2,5.4,18.9,15.9C418.1,70.5,418.7,76.4,419.5,82.3z M136.4,220.8c-3.7-6.7-7.1-12.3-10-18.1
			c-18.3-36-27-74.7-31-114.6c-0.4-3.8-1.6-4.6-5.2-4.6c-16.5,0.2-32.9,0.1-49.4,0.1c-1.3,0-2.7,0.1-4.2,0.2
			c-0.9,13.4,0.2,26.3,3.6,39C53.5,173.3,89.9,201.2,136.4,220.8z M285.1,220.2c0.9-0.3,1.8-0.5,2.6-0.9c15.3-6.5,30-14.2,43.3-24.2
			c25-18.8,42.5-42.7,49.6-73.5c2.9-12.4,4-24.9,3.6-37.5c-0.7-0.2-1.1-0.4-1.5-0.4c-18.1,0-36.2-0.1-54.3,0.1c-1,0-2.6,1.7-2.7,2.8
			c-0.8,5-1.1,10-1.8,15c-4.2,31.7-11.5,62.6-25,91.7C294.8,202.3,289.9,211.1,285.1,220.2z"/>
	</g>
	<g class="st1">
		<path class="st2" d="M203.2,105.8c9.6,0.1,17.8,3.4,24.6,9.9c2.9,2.8,3.2,6.9,0.6,9.6c-2.6,2.7-6.6,2.7-9.6-0.1
			c-9.3-8.6-22.4-8.4-31.4,0.5c-6.6,6.6-13.3,13.2-19.8,19.8c-6.2,6.3-8.2,13.9-5.6,22.4c2.6,8.4,8.6,13.5,17.2,15.1
			c7.4,1.4,13.9-0.8,19.3-6c3.5-3.3,6.8-6.8,10.3-10.2c3.6-3.5,9.5-2.1,10.9,2.6c0.7,2.2,0.4,4.4-1.2,6.1
			c-4.7,4.7-9.1,9.7-14.3,13.8c-21.1,16.4-52.6,3.3-56.1-23.2c-1.5-11.3,1.7-21.2,9.6-29.3c7-7.2,14.1-14.3,21.3-21.3
			C185.9,109,194.1,105.9,203.2,105.8z"/>
		<path class="st2" d="M223.6,156c-9.2-0.1-17.4-3.4-24.3-9.9c-2.9-2.8-3.2-6.9-0.6-9.6c2.6-2.7,6.6-2.7,9.6,0
			c8.1,7.4,19.2,8.4,28,2.4c1.2-0.8,2.3-1.8,3.3-2.8c6.7-6.6,13.3-13.2,19.9-19.9c6.2-6.3,8.2-13.9,5.6-22.4
			c-2.6-8.4-8.5-13.5-17.2-15.2c-7.3-1.4-13.7,0.6-19.1,5.7c-3.6,3.4-7,7-10.5,10.4c-3.7,3.5-9.4,2.2-10.9-2.6
			c-0.7-2.1-0.5-4.4,1.1-5.9c5.1-5.1,9.8-10.6,15.6-14.8c21.3-15.3,51.4-1.9,54.9,24.1c1.5,11.1-1.7,21-9.5,29.1
			c-6.9,7.2-14.1,14.2-21.2,21.2C241.4,152.7,233.2,155.8,223.6,156z"/>
	</g>
</g>
</svg>
