<svg id="Calque_4" data-name="Calque 4" xmlns="http://www.w3.org/2000/svg" viewBox="0 0 72.8 74.15"><path d="M27.83,77.08c0-.32,0-.63,0-.94q0-16.62,0-33.23c0-2.16.87-3,3-3H49.27c1.94,0,2.87.94,2.87,2.89V76.14c0,.31,0,.62,0,.94Z" transform="translate(-3.6 -2.92)"/><path d="M5.09,77.08A2.27,2.27,0,0,1,3.6,74.63c0-7.41,0-14.82,0-22.23,0-1.92.91-2.83,2.84-2.83H23V76.21c0,.29,0,.58,0,.87Z" transform="translate(-3.6 -2.92)"/><path d="M57,77.08q0-8.44,0-16.87v-.93H73.54c1.93,0,2.84.9,2.84,2.83,0,4.17,0,8.35,0,12.52a2.27,2.27,0,0,1-1.49,2.45Z" transform="translate(-3.6 -2.92)"/><path d="M28.7,32.44c.29-1.7.6-3.58.93-5.46.15-.92.36-1.84.46-2.78a1.25,1.25,0,0,0-.32-.92Q27,20.49,24.13,17.76A2.46,2.46,0,0,1,23.32,15a2.53,2.53,0,0,1,2.31-1.69c2.58-.36,5.15-.76,7.73-1.11a1,1,0,0,0,.86-.62c1.13-2.34,2.31-4.67,3.44-7a2.48,2.48,0,0,1,4.7,0c1.12,2.32,2.29,4.62,3.41,6.94a1,1,0,0,0,.89.68c2.61.34,5.2.75,7.8,1.12a2.47,2.47,0,0,1,1.47,4.37c-1.89,1.83-3.76,3.68-5.66,5.5a1.08,1.08,0,0,0-.34,1.14c.47,2.58.9,5.17,1.34,7.76a2.45,2.45,0,0,1-3.67,2.67c-2.32-1.23-4.65-2.43-7-3.68a1.15,1.15,0,0,0-1.25,0c-2.36,1.27-4.72,2.52-7.11,3.73A2.43,2.43,0,0,1,28.7,32.44Z" transform="translate(-3.6 -2.92)"/></svg>