<svg id="Calque_1" data-name="Calque 1" xmlns="http://www.w3.org/2000/svg" viewBox="0 0 104.53 125.61"><path d="M95.34,101.38a6.59,6.59,0,0,0,.82,0,1.5,1.5,0,0,1,1.6,1.06c2.09,4.72,4.21,9.43,6.31,14.15a4.1,4.1,0,0,1,.21.48c.39,1.47,1.13,2.29,2.86,2.07,1.1-.14,2.12,1,2.17,2.2.06,1.4,0,2.79,0,4.19A1.17,1.17,0,0,1,108,126.8H20.64c-1.69,0-2-.28-2-2,0-1,0-2.1,0-3.14a2.33,2.33,0,0,1,2.65-2.54c1.21.09,1.7-.39,2.15-1.43,2.19-5.06,4.47-10.07,6.69-15.12A1.62,1.62,0,0,1,32,101.42c.58.07.76-.18.74-.74,0-1.22,0-2.45,0-3.66a1.45,1.45,0,0,0-.63-1.31A53,53,0,0,1,45,4.8,50.82,50.82,0,0,1,69.46,1.49,52.5,52.5,0,0,1,114.7,41.17a51.69,51.69,0,0,1,1,20.5,52.54,52.54,0,0,1-19.8,34.1,1.22,1.22,0,0,0-.49.74C95.32,98.1,95.34,99.7,95.34,101.38Zm-31.4-6.66q14.27,0,28.53,0a2.48,2.48,0,0,0,1.42-.46,50.71,50.71,0,0,0,18.78-51.12,50.08,50.08,0,0,0-43-39.18A48.19,48.19,0,0,0,48.17,6.21,50.34,50.34,0,0,0,14.84,62.32,49.78,49.78,0,0,0,34,94.16a2.76,2.76,0,0,0,1.56.53C45,94.73,54.49,94.72,63.94,94.72Zm38.49,24.36c-.08-.24-.12-.43-.19-.61q-3.15-7-6.28-14.07a.9.9,0,0,0-1-.59H33a1,1,0,0,0-1,.67c-1.56,3.56-3.17,7.1-4.76,10.65l-1.75,4ZM92.87,97.2H35.16v4.16H92.87Zm14,24.38H21.15v2.76h85.71Z" transform="translate(-11.74 -1.19)"/><path d="M56.3,80a7.17,7.17,0,0,1-.83-.42q-6-3.62-12-7.28a1.23,1.23,0,0,0-1.48,0c-3.91,2.4-7.85,4.76-11.77,7.13l-.52.32a1.18,1.18,0,0,1-1.6-.07A1.21,1.21,0,0,1,28,78.05q2.05-3.43,4.09-6.89c1.1-1.84,2.17-3.71,3.31-5.53a1.17,1.17,0,0,0,0-1.41Q32,58.55,28.6,52.85c-.18-.3-.35-.6-.54-.9a1.25,1.25,0,0,1,0-1.74,1.27,1.27,0,0,1,1.74,0c2.38,1.45,4.77,2.88,7.16,4.33,1.71,1,3.44,2,5.13,3.12a1,1,0,0,0,1.25,0q5.91-3.61,11.84-7.2l.52-.31a1.23,1.23,0,0,1,1.7,1.75c-1.59,2.66-3.17,5.34-4.76,8-.83,1.4-1.61,2.83-2.51,4.18a1.43,1.43,0,0,0,0,1.78c2.24,3.7,4.45,7.42,6.66,11.14a15.38,15.38,0,0,1,.78,1.36A1.21,1.21,0,0,1,56.3,80Zm-3.41-4.82c-.16-.33-.21-.45-.28-.57-1.72-2.89-3.43-5.79-5.17-8.67a1.76,1.76,0,0,1,0-2c1.51-2.48,3-5,4.47-7.48L52.71,55a1.54,1.54,0,0,0-.86.26c-2.69,1.62-5.37,3.24-8,4.89a1.75,1.75,0,0,1-2.09,0c-2.23-1.41-4.51-2.75-6.77-4.11l-2.42-1.44c.25.45.36.68.49.9q2.49,4.19,5,8.38a1.63,1.63,0,0,1,.09,1.86q-2.6,4.33-5.16,8.69a4.5,4.5,0,0,0-.24.63l.84-.46c2.73-1.66,5.47-3.29,8.19-5a1.65,1.65,0,0,1,2,0c1,.63,1.93,1.2,2.9,1.78Z" transform="translate(-11.74 -1.19)"/><path d="M98.92,62.26a10.21,10.21,0,0,1-.45,1q-3,5.12-6,10.19a1.05,1.05,0,0,0,0,1.25c2.08,3.46,4.15,6.92,6.16,10.42a2.05,2.05,0,0,1,.12,1.52c-.25.69-1,.73-1.86.22-3.4-2.06-6.81-4.11-10.18-6.22a1.19,1.19,0,0,0-1.47,0c-3.39,2.09-6.8,4.14-10.2,6.2-.79.48-1.44.42-1.86-.15A1.39,1.39,0,0,1,73.26,85c1.94-3.24,3.83-6.51,5.83-9.7a2.06,2.06,0,0,0,0-2.55c-2-3.15-3.83-6.37-5.72-9.57a2.51,2.51,0,0,1-.41-1.11c0-1,1-1.48,2-.9,1.61.93,3.19,1.91,4.77,2.87,1.91,1.17,3.82,2.32,5.71,3.51a.92.92,0,0,0,1.16,0c3.44-2.12,6.89-4.21,10.34-6.3C97.89,60.6,98.89,61,98.92,62.26ZM94,66l-.15-.14c-2.3,1.4-4.61,2.79-6.9,4.21a1.68,1.68,0,0,1-2,0c-1.88-1.19-3.8-2.34-5.71-3.5-.44-.27-.9-.5-1.35-.76C79.2,68.32,80.56,70.68,82,73a1.81,1.81,0,0,1,0,2.16c-.88,1.37-1.69,2.78-2.52,4.18-.54.9-1.06,1.8-1.59,2.7a1.74,1.74,0,0,0,.89-.3c2.08-1.26,4.17-2.51,6.24-3.8a1.54,1.54,0,0,1,1.85,0c1.09.71,2.22,1.37,3.34,2l3.66,2.21a1.65,1.65,0,0,0-.24-.8c-1.17-2-2.28-4-3.53-5.9a2.28,2.28,0,0,1,0-2.84C91.45,70.48,92.71,68.24,94,66Z" transform="translate(-11.74 -1.19)"/><path d="M44.71,17.38a8.2,8.2,0,0,1,.82.4c3,1.8,6,3.6,9,5.44a1.25,1.25,0,0,0,1.55,0q4.53-2.8,9.11-5.48a2,2,0,0,1,1.52-.14c.69.25.74,1,.25,1.87-1.78,3-3.54,6-5.36,9a1.62,1.62,0,0,0,0,1.95c1.81,2.94,3.54,5.94,5.31,8.9.38.64.66,1.29,0,1.9s-1.27.29-1.9-.09c-3-1.83-6-3.63-9-5.47a1.16,1.16,0,0,0-1.4,0c-3,1.85-6.07,3.66-9.09,5.51-.65.39-1.3.63-1.89,0s-.29-1.21.08-1.82c1.81-3,3.57-6.06,5.41-9a1.41,1.41,0,0,0,0-1.71c-1.85-3-3.66-6.07-5.48-9.11C43,18.4,43.45,17.4,44.71,17.38ZM62.28,36.6l.14-.14c-1.2-2-2.38-4.05-3.6-6.06a1.65,1.65,0,0,1,0-1.93c1-1.66,2-3.34,3-5,.21-.35.4-.71.6-1.07-2.17,1.14-4.22,2.35-6.25,3.6a1.43,1.43,0,0,1-1.69,0c-.71-.46-1.44-.88-2.16-1.31l-3.91-2.34c.73,1.57,1.6,3,2.44,4.44,1.8,3.13,1.89,2.09,0,5.37-.86,1.46-1.73,2.91-2.6,4.37,2.08-1.08,4-2.23,6-3.45a1.83,1.83,0,0,1,2.23,0C58.34,34.28,60.33,35.42,62.28,36.6Z" transform="translate(-11.74 -1.19)"/><path d="M107.62,52.37c0,.55,0,1.11,0,1.66a1,1,0,0,1-1,1.08,1.06,1.06,0,0,1-1.28-.9,7.12,7.12,0,0,1-.11-1.39c-.2-19-14.45-36.14-33.08-39.71-2.44-.47-5-.53-7.44-.78-.23,0-.47,0-.7,0-.71-.12-1.21-.52-1.16-1.28A1.12,1.12,0,0,1,64.1,9.9a70.53,70.53,0,0,1,7.28.63,43.64,43.64,0,0,1,35,33.06c.69,2.86,1,5.83,1.43,8.74Z" transform="translate(-11.74 -1.19)"/><path d="M96.93,116.73c-.37.34-.69.82-1.13,1a1.09,1.09,0,0,1-1.43-.79c-.55-1.4-1.09-2.81-1.63-4.21-.76-1.94-1.53-3.87-2.26-5.82-.38-1,.16-1.85,1.08-1.73a1.48,1.48,0,0,1,1,.73c1.4,3.42,2.73,6.88,4.08,10.33,0,.11.06.22.09.33Z" transform="translate(-11.74 -1.19)"/></svg>