<?xml version="1.0" encoding="utf-8"?>
<!-- Generator: Adobe Illustrator 25.2.1, SVG Export Plug-In . SVG Version: 6.00 Build 0)  -->
<svg version="1.1" id="_x32_" xmlns="http://www.w3.org/2000/svg" xmlns:xlink="http://www.w3.org/1999/xlink" x="0px" y="0px"
	 viewBox="0 0 800 800" style="enable-background:new 0 0 800 800;" xml:space="preserve">
<path d="M644,550.6c-19.6,5.9-38.8,16-58.2,35.3l0,0c-25.2,25.4-35.1,50.6-39.5,76.6c-4.3,26-2.2,52.6-1.7,78.1
	c0,4.3,0.1,8.5,0,12.7l208.7-208.7c-6.6,0.2-13.3,0.1-20.1-0.1C704,543.6,673.3,541.8,644,550.6z"/>
<g>
	<polygon points="221.8,483.2 449.5,519.6 276.8,428.2 	"/>
	<polygon points="355.1,292.1 262.2,240.4 226.1,276.4 277.8,369.4 	"/>
	<path d="M196,306.5l-35.3,35.3c-5.5,5.5-7.4,13.6-4.9,20.9l32.2,96.5l59.7-59.7L196,306.5z"/>
	<path d="M444.9,202.3l-96.5-32.2c-7.3-2.4-15.5-0.5-20.9,4.9l-35.3,35.3l93,51.7L444.9,202.3z"/>
	<path d="M400,0C179.1,0,0,179.1,0,400c0,220.9,179.1,400,400,400c33.1,0,65.1-4.3,95.9-11.9c4-4.4,6.5-9.8,8.1-18.5
		c1.7-9.1,1.8-21.3,1.4-35.3c-0.7-28.1-3.4-63.7,7.7-101.5c7.4-25.1,21.3-51,45.2-74.7c0,0,0,0,0,0c31.2-31.4,66-45.3,98-50.4
		c32.1-5.2,61.6-2.5,85.1-2.2c15.6,0.3,28.3-0.6,36.6-3.6c4.4-1.5,7.5-3.5,10.3-6.1C795.7,465.1,800,433,800,400
		C800,179.1,620.9,0,400,0z M481.6,566.2l-281.3-45c-22.6-3.6-41.3-19.5-48.5-41.2L117,375.6c-7.3-22-1.6-46.4,14.8-62.8
		l166.7-166.7c16.4-16.4,40.7-22.2,62.8-14.8l104.3,34.8c21.7,7.2,37.6,25.9,41.2,48.5l45,281.3
		C558.5,537.1,522.8,572.8,481.6,566.2z"/>
	<polygon points="413.9,291.1 505.3,463.8 468.9,236.1 	"/>
	<polygon points="307.1,397.9 469.7,484 383.6,321.4 	"/>
</g>
</svg>
