<?xml version="1.0" encoding="utf-8"?>
<svg version="1.1" xmlns="http://www.w3.org/2000/svg" xmlns:xlink="http://www.w3.org/1999/xlink" x="0px" y="0px"
	 viewBox="0 0 512 512" style="enable-background:new 0 0 512 512;" xml:space="preserve">
<g>
	<path d="M320,0H85.3C38.4,0,0,38.4,0,85.3v341.3C0,473.6,38.4,512,85.3,512H320c46.9,0,85.3-38.4,85.3-85.3v-42.7
		c0-11.8-9.5-21.3-21.3-21.3s-21.3,9.5-21.3,21.3v42.7c0,23.5-19.1,42.7-42.7,42.7H85.3c-23.5,0-42.7-19.1-42.7-42.7V85.3
		c0-23.5,19.1-42.7,42.7-42.7H320c23.5,0,42.7,19.1,42.7,42.7v42.7c0,11.8,9.5,21.3,21.3,21.3s21.3-9.5,21.3-21.3V85.3
		C405.3,38.4,366.9,0,320,0z"/>
	<path d="M506.5,240.9L400.9,135.3c-8.3-8.3-21.8-8.3-30.2,0c-8.3,8.3-8.3,21.8,0,30.2l74.4,74.4H202.7c-11.8,0-21.3,9.5-21.3,21.3
		s9.5,21.3,21.3,21.3h242.3l-74.4,74.4c-8.3,8.3-8.3,21.8,0,30.2c4.2,4.2,9.6,6.2,15.1,6.2s10.9-2.1,15.1-6.2l105.6-105.6
		C514.8,272.6,514.8,249.3,506.5,240.9z"/>
</g>
</svg>
