<svg id="Calque_7" data-name="Calque 7" xmlns="http://www.w3.org/2000/svg" viewBox="0 0 71.4 74.62"><path d="M74.74,46.81A8.79,8.79,0,0,0,69.15,43L57.69,35.07c-.37-4.82-4-5.72-4.77-5.86l-3.36-9.49A23.11,23.11,0,0,0,28.1,4.52a21.73,21.73,0,0,0-3.32.25,3.82,3.82,0,0,0-.49-.65,4.38,4.38,0,0,0-2.14-1.29,4.54,4.54,0,0,0-1.1-.14,4.52,4.52,0,0,0-3,1.15A4.47,4.47,0,0,0,16.8,6a4.42,4.42,0,0,0-.1,1.66A23,23,0,0,0,6.89,34.83l3.36,9.49c-.52.6-2.77,3.57,0,7.56L6.35,65.19c-2.85,4.08-2.72,8.35.33,10.63A5.72,5.72,0,0,0,9.18,77a17,17,0,0,0,3.73.35h0c7.09,0,18.53-2.56,30.61-6.83,14.74-5.22,27.1-11.88,30.77-16.56a5.81,5.81,0,0,0,1.23-2.47A5.88,5.88,0,0,0,74.74,46.81ZM20.29,5.93a1.4,1.4,0,0,1,.3-.15,1.3,1.3,0,0,1,.33-.07ZM38.21,55.48c9.55-3.38,18.72-5.4,24.52-5.4,3.11,0,5,.61,5.44,1.72,1.18,3.34-10.54,10.66-25.6,16-9.55,3.38-18.71,5.4-24.52,5.4-3.11,0-5-.61-5.43-1.72C11.44,68.13,23.16,60.81,38.21,55.48Z" transform="translate(-4.3 -2.69)"/><path d="M42.44,57.65a2.29,2.29,0,0,0,.08.28A6.87,6.87,0,0,0,49,62.5h0a6.83,6.83,0,0,0,6.83-6.4,6.61,6.61,0,0,0-.36-2.7l-.06-.18-.2,0a99.83,99.83,0,0,0-12.83,3.22l-.19.06,0,.19A4.87,4.87,0,0,0,42.44,57.65Z" transform="translate(-4.3 -2.69)"/></svg>