<?xml version="1.0" encoding="iso-8859-1"?>
<!-- Uploaded to: SVG Repo, www.svgrepo.com, Generator: SVG Repo Mixer Tools -->
<!DOCTYPE svg PUBLIC "-//W3C//DTD SVG 1.1//EN" "http://www.w3.org/Graphics/SVG/1.1/DTD/svg11.dtd">
<svg fill="#000000" version="1.1" id="Capa_1" xmlns="http://www.w3.org/2000/svg" xmlns:xlink="http://www.w3.org/1999/xlink" 
	 width="800px" height="800px" viewBox="0 0 979.943 979.943"
	 xml:space="preserve">
<g>
	<path d="M54.372,438.472c6.9,15.2,22,24.2,37.7,24.2c5.7,0,11.4-1.2,16.9-3.6l0.3-0.101l98.2-49.6v358.5
		c0,15.6,10.5,28.7,31.2,39.2c15.3,7.699,37,14.399,64.5,19.699c49.399,9.7,115.8,15,186.8,15s137.4-5.3,186.8-15
		c27.4-5.399,49.101-12,64.5-19.699c20.7-10.4,31.2-23.601,31.2-39.2V409.271l97.9,49.5l0.6,0.301c10,4.5,21.2,4.899,31.5,1
		c10.3-3.9,18.5-11.601,23-21.601l50.8-113.2c4.5-10,4.9-21.2,1-31.5c-3.899-10.3-11.6-18.5-21.6-23l-267.101-121.6
		c-8-3.6-43.8-9.5-64.699-11c1.699,3.4,2.8,7.1,3.3,11l6.5,55.9l299,143.9l-17.3,38.7l-190.2-91.6c-11-5.3-23.8,2.7-23.8,15v479
		c-8.4,2.399-18.5,4.899-30.4,7.199c-8.5,1.7-17.5,3.2-27,4.601c0,0-1.4-502.2-2.5-504.9c-1.5,5.2-4.1,10-7.8,14.2
		c-7,7.8-16.9,12.3-27.3,12.3c-2.7,0-5.4-0.3-8.101-0.9l-15.899-3.6v489.601c-19.601,1.5-40.301,2.399-61.7,2.899v-506.4l-30.8-6.9
		l-30.801,6.9v506.3c-20.699-0.5-40.8-1.4-60-2.8v-490l-17.6,4c-2.6,0.6-5.4,0.9-8.1,0.9c-10.4,0-20.4-4.5-27.301-12.3
		c-3.6-4.1-6.199-8.9-7.699-14c-1.2,2.6-0.9,505-0.9,505c-10.1-1.5-19.6-3.1-28.6-4.8c-11.101-2.2-20.601-4.5-28.7-6.7v-479.6
		c0-12.2-12.8-20.3-23.8-15l-191.5,92.3l-17.4-38.7l298.6-143.7l6.601-56.7c0.5-3.9,1.6-7.7,3.3-11c-20.9,1.5-56.7,7.4-64.7,11
		l-267,121.4c-10,4.5-17.7,12.7-21.6,23c-3.9,10.3-3.5,21.5,1,31.5L54.372,438.472z"/>
	<path d="M373.472,298.372c0.8,0,1.7-0.1,2.6-0.3l23.101-5.2l60-13.5l28.3-6.3c0.8-0.2,1.7-0.3,2.5-0.3c0.9,0,1.7,0.1,2.5,0.3
		l28.3,6.3l61.7,13.8l21.4,4.8c0.899,0.2,1.699,0.3,2.6,0.3c6.7,0,12.3-5.9,11.5-13l-3.3-28l-10.5-89.7l-1.8-15.7
		c-0.301-2.2-1.301-4-2.7-5.3c-1.601-1.6-3.9-2.4-6.101-2.4c-2.1,0-4.3,0.8-6.1,2.5l-89.4,87.7c-2.3,2.2-5.199,3.3-8.1,3.3
		s-5.9-1.1-8.1-3.3l-89.4-87.7c-1.8-1.7-3.9-2.5-6.1-2.5c-2.601,0-5.101,1.2-6.801,3.2c-1,1.2-1.699,2.8-1.899,4.6l-1.8,15.7
		l-10.601,91.1l-3.1,26.6C361.172,292.472,366.771,298.372,373.472,298.372z"/>
</g>
</svg>