<svg id="Calque_1" data-name="Calque 1" xmlns="http://www.w3.org/2000/svg" viewBox="0 0 79.93 54.29"><path d="M40,54.27c-7.07,0-14.15-.07-21.22,0-12,.16-19.8-10-18.57-20.93A22.76,22.76,0,0,1,16.94,13.57a22.84,22.84,0,0,1,5.46-.65c11.65-.06,23.31.07,35-.06C67.82,12.74,76.77,20.3,79.22,30c1.59,6.31.72,12.24-3.32,17.47a17.15,17.15,0,0,1-14.1,6.78C54.52,54.31,47.24,54.27,40,54.27Zm0-9.55v0c7,0,14.09.16,21.12,0A12.55,12.55,0,0,0,73.11,30,16.87,16.87,0,0,0,56.48,15.56q-16.48,0-33,0A16.85,16.85,0,0,0,8,26c-1.83,4.5-1.81,9,1,13.12,2.66,4,6.58,5.62,11.29,5.61C26.78,44.71,33.38,44.72,40,44.72Z" transform="translate(-0.03 -12.86)"/><path d="M2.93,50.82c1.45,1.1,2.86,2.31,4.41,3.31a18.78,18.78,0,0,0,10.13,3c15,0,30,.08,45,0a19.62,19.62,0,0,0,13.87-5.83c.19-.18.32-.43.58-.55a18.57,18.57,0,0,1-4.89,6.63,18.16,18.16,0,0,1-12.18,4.24h-25c-5,0-10,0-15,0-7.65,0-13.14-3.66-16.77-10.29C3.06,51.11,3,50.93,2.93,50.82Z" transform="translate(-0.03 -12.86)"/><path d="M76.84,56.59c-2.56,5-6.37,8.61-12,10a19,19,0,0,1-4.5.55c-13.58,0-27.17.07-40.76,0-7.52,0-12.87-3.74-16.44-10.21a.85.85,0,0,1-.09-.25c1.31,1.21,2.57,2.55,4,3.65a20.72,20.72,0,0,0,13.09,4.13q12.59,0,25.16,0c4.48,0,9-.08,13.46,0C66.05,64.6,72.15,62.26,76.84,56.59Z" transform="translate(-0.03 -12.86)"/><path d="M41.32,29c.86-.49,16.57-.45,17.26.1-1,0-1.91,0-2.78,0-1.51,0-2.1.92-1.49,2.3.83,1.87,1.69,3.73,2.51,5.6a1.67,1.67,0,0,0,1.74,1.11c1.36,0,2.73,0,4.09,0a1.31,1.31,0,0,1,.88.52c.45.69.79,1.45,1.29,2.4a19.14,19.14,0,0,1-3.42.74c-3,.12-6.06.09-9.09.1-3.26,0-6.53,0-9.8,0h-1c0-1.35,0-2.6,0-3.83,0-.18.34-.4.57-.51a17.81,17.81,0,0,0,2.79-1.3,3.3,3.3,0,0,0,0-5.63,14.55,14.55,0,0,0-2.7-1.28C41.92,29.21,41.67,29.12,41.32,29Z" transform="translate(-0.03 -12.86)"/><path d="M21.7,29.09c.47-.49,15.52-.62,17.06-.25a7.15,7.15,0,0,1-.72.45,15.88,15.88,0,0,0-2.59,1.14,3.39,3.39,0,0,0,0,6A9.55,9.55,0,0,0,38,37.48c.49.15.67.32.66.83,0,1.15,0,2.3,0,3.51-.39,0-.68,0-1,0H20.08A10.36,10.36,0,0,1,15.37,41c.44-.85.82-1.69,1.3-2.47a1,1,0,0,1,.78-.37c1.43,0,2.85,0,4.28,0A1.62,1.62,0,0,0,23.39,37c.82-1.87,1.68-3.73,2.51-5.6.61-1.38,0-2.29-1.46-2.32C23.52,29.08,22.61,29.09,21.7,29.09Z" transform="translate(-0.03 -12.86)"/><path d="M12.93,39.42A8.68,8.68,0,0,1,10.43,36a1.85,1.85,0,0,1,0-1A14,14,0,0,1,23.92,24.17h32.2A13.94,13.94,0,0,1,69.53,35a2.11,2.11,0,0,1-.17,1.36c-.61,1-1.33,2-2.11,3.12l-5.14-9.79c-.45-.87-1-1.72-1.35-2.61a2.07,2.07,0,0,0-2.17-1.33c-4.22,0-8.44,0-12.67,0-8.05,0-16.11,0-24.17,0a2.46,2.46,0,0,0-2.52,1.5C17.21,31.31,15.09,35.29,12.93,39.42Z" transform="translate(-0.03 -12.86)"/><path d="M10.18,28.61a13,13,0,0,1,4.68-7.15A13.5,13.5,0,0,1,23.5,18.4c11,0,22,0,33,0a14,14,0,0,1,13.19,9.42c.08.24.14.49.17.6-1.22-1.19-2.42-2.56-3.82-3.68a15.12,15.12,0,0,0-9.73-3.4c-10.87,0-21.75,0-32.62,0a16.06,16.06,0,0,0-12.62,6.16C10.75,27.88,10.47,28.25,10.18,28.61Z" transform="translate(-0.03 -12.86)"/><path d="M18.35,35.23c.55-1.07,1-2,1.53-2.95a.78.78,0,0,1,.56-.32c.65,0,1.3,0,2.08,0-.48,1.06-.9,2-1.35,3a.68.68,0,0,1-.49.28C20,35.25,19.22,35.23,18.35,35.23Z" transform="translate(-0.03 -12.86)"/><path d="M61.72,35.13a1.33,1.33,0,0,1-.21.08c-2.28.16-2.28.16-3.19-1.88L57.7,32c.8,0,1.46,0,2.12,0a.65.65,0,0,1,.39.29C60.72,33.19,61.2,34.13,61.72,35.13Z" transform="translate(-0.03 -12.86)"/><path d="M41.5,34.71V32.25c.07,0,.13-.09.17-.08.77.2,1.81.4,1.78,1.26S42.4,34.45,41.5,34.71Z" transform="translate(-0.03 -12.86)"/><path d="M38.56,32.21v2.36c-1,0-2-.61-2-1.15S37.49,32.32,38.56,32.21Z" transform="translate(-0.03 -12.86)"/></svg>