<svg id="Calque_1" data-name="Calque 1" xmlns="http://www.w3.org/2000/svg" viewBox="0 0 666.67 533.33"><path d="M666.67,133.33H133.33A66.66,66.66,0,0,0,66.67,200V600a66.66,66.66,0,0,0,66.66,66.67H666.67A66.66,66.66,0,0,0,733.33,600V200A66.66,66.66,0,0,0,666.67,133.33ZM300,533.33a33.34,33.34,0,1,1-66.67,0V400A33.34,33.34,0,0,1,300,400Zm133.33,0a33.33,33.33,0,1,1-66.66,0v-200a33.33,33.33,0,1,1,66.66,0Zm133.34,0a33.34,33.34,0,1,1-66.67,0V266.67a33.34,33.34,0,1,1,66.67,0Z" transform="translate(-66.67 -133.33)"/></svg>