<?xml version="1.0" encoding="utf-8"?>
<!-- Generator: Adobe Illustrator 25.2.1, SVG Export Plug-In . SVG Version: 6.00 Build 0)  -->
<svg version="1.1" id="_x32_" xmlns="http://www.w3.org/2000/svg" xmlns:xlink="http://www.w3.org/1999/xlink" x="0px" y="0px"
	 viewBox="0 0 800 800" style="enable-background:new 0 0 800 800;" xml:space="preserve">
<path d="M644,550.6c-19.6,5.9-38.8,16-58.2,35.3l0,0c-25.2,25.4-35.1,50.6-39.5,76.6c-4.3,26-2.2,52.6-1.7,78.1
	c0,4.3,0.1,8.5,0,12.7l208.7-208.7c-6.6,0.2-13.3,0.1-20.1-0.1C704,543.6,673.3,541.8,644,550.6z"/>
<g>
	<path d="M607.7,395.3l-44.1-44.1l44.1-44.1l1.4-1.7c2.9-4.2,2.9-9.9,0-14.2l-1.4-1.7l-1.7-1.4c-4.2-2.9-9.9-2.9-14.2,0l-1.7,1.4
		L546,333.7l-44-44l-1.7-1.4c-4.2-2.9-9.9-2.9-14.2,0l-1.7,1.4l-1.4,1.7c-2.9,4.2-2.9,9.9,0,14.2l1.4,1.7l44,44l-44,44.1l-1.4,1.7
		c-2.9,4.2-2.9,9.9,0,14.2l1.4,1.7l1.7,1.4c4.2,2.9,9.9,2.9,14.2,0l1.7-1.4l44-44.1l44.1,44.1l1.7,1.4c4.2,2.9,9.9,2.9,14.2,0
		l1.7-1.4l1.4-1.7c2.9-4.2,2.9-9.9,0-14.2L607.7,395.3z"/>
	<path d="M400,0C179.1,0,0,179.1,0,400s179.1,400,400,400c33.1,0,65.1-4.3,95.9-11.9c4-4.4,6.5-9.8,8.1-18.5
		c1.7-9.1,1.8-21.3,1.4-35.3c-0.7-28.1-3.4-63.7,7.7-101.5c7.4-25.1,21.3-51,45.2-74.7c31.2-31.4,66-45.3,98-50.4
		c32.1-5.2,61.6-2.5,85.1-2.2c15.6,0.3,28.3-0.6,36.6-3.6c4.4-1.5,7.5-3.5,10.3-6.1C795.7,465.1,800,433,800,400
		C800,179.1,620.9,0,400,0z M532.8,179.7l9.9,9.9c-40.3,0.8-80.4,16.6-111.1,47.4l-4.2,4.4c-9.3-3.9-19.3-5.9-29.2-6.1l55.5-55.5
		C475.5,157.8,510.9,157.8,532.8,179.7z M325.9,96c24.3-24.3,63.7-24.3,88,0s24.3,63.7,0,88c-24.3,24.3-63.7,24.3-88,0
		S301.6,120.3,325.9,96z M193.9,192.9c29.2-29.2,76.5-29.2,105.6,0c29.2,29.2,29.2,76.5,0,105.6c-29.2,29.2-76.5,29.2-105.6,0
		C164.7,269.3,164.7,222,193.9,192.9z M97.1,412.9c-24.3-24.3-24.3-63.7,0-88c24.3-24.3,63.7-24.3,88,0s24.3,63.7,0,88
		S121.4,437.2,97.1,412.9z M370,580.1c-38.9,38.9-102,38.9-140.9,0l-48.4-48.4c-21-21-21.8-54.4-2.6-76.4l2.6-2.8l55.6-55.6
		c0.4,18.5,7,36.8,20,51.6l3.7,3.9l74.8,74.8c14.9,14.9,32.4,25.7,51,32.3C381.6,566.9,376.3,573.8,370,580.1z M510.8,509.7
		c-43.8,43.8-114.7,43.8-158.5,0l-74.8-74.8c-21.9-21.9-21.9-57.3,0-79.2l79.3-79.3c14.7-14.7,35.5-19.5,54.2-14.5
		c-41.7,62.9-34.9,148.4,20.5,203.8c22.7,22.7,50.5,37.2,79.6,43.6L510.8,509.7z M642.8,448.1c-53.5,53.5-140.2,53.5-193.6,0
		c-53.5-53.5-53.5-140.2,0-193.6c53.5-53.5,140.2-53.5,193.6,0C696.3,307.9,696.3,394.6,642.8,448.1z"/>
</g>
</svg>
