<svg id="Calque_1" data-name="Calque 1" xmlns="http://www.w3.org/2000/svg" viewBox="0 0 738.46 615.38"><path d="M707.69,123.08H536.92s1.54,10.77,1.54,15.38A107,107,0,0,1,430.77,246.15H338.46A107,107,0,0,1,230.77,138.46c0-4.61,0-15.38,1.54-15.38h-140a61.72,61.72,0,0,0-61.54,61.54V646.15a61.72,61.72,0,0,0,61.54,61.54H707.69a61.72,61.72,0,0,0,61.54-61.54V184.62A61.72,61.72,0,0,0,707.69,123.08ZM333.85,584.62H158.46c-20,0-35.38-18.47-35.38-38.47,0-30.77,32.3-47.69,66.15-61.53,23.08-9.24,26.15-18.47,26.15-29.24,0-9.23-6.15-18.46-13.84-26.15C187.69,416.92,180,398.46,180,378.46c0-38.46,23.08-70.77,64.62-70.77s64.61,32.31,64.61,70.77c0,20-7.69,38.46-21.54,50.77-7.69,7.69-13.84,16.92-13.84,26.15s3.07,18.47,26.15,29.24c33.85,13.84,66.15,30.76,66.15,61.53C369.23,566.15,353.85,584.62,333.85,584.62Zm343.07-61.54c0,9.23-6.15,15.38-15.38,15.38H446.15c-9.23,0-15.38-6.15-15.38-15.38V492.31c0-9.23,6.15-15.39,15.38-15.39H661.54c9.23,0,15.38,6.16,15.38,15.39ZM707.69,400c0,9.23-6.15,15.38-15.38,15.38H446.15c-9.23,0-15.38-6.15-15.38-15.38V369.23c0-9.23,6.15-15.38,15.38-15.38H692.31c9.23,0,15.38,6.15,15.38,15.38Z" transform="translate(-30.77 -92.31)"/><path d="M338.46,184.62h92.31c26.15,0,46.15-20,46.15-46.16s-20-46.15-46.15-46.15H338.46c-26.15,0-46.15,20-46.15,46.15S312.31,184.62,338.46,184.62Z" transform="translate(-30.77 -92.31)"/></svg>